SubSource-HROTn_VROTdd.ufo
<glyph name="exclam" format="2">
  <advance width="185"/>
  <unicode hex="0021"/>
  <outline>
    <contour>
      <point x="71.0" y="622.0" type="curve" smooth="yes"/>
      <point x="54.0" y="589.0"/>
      <point x="54.0" y="567.0"/>
      <point x="54.0" y="539.0" type="curve" smooth="yes"/>
      <point x="54.0" y="469.0"/>
      <point x="54.0" y="404.0"/>
      <point x="54.0" y="371.0" type="curve" smooth="yes"/>
      <point x="54.0" y="337.0"/>
      <point x="56.0" y="325.0"/>
      <point x="68.0" y="294.0" type="curve" smooth="yes"/>
      <point x="88.0" y="245.0"/>
      <point x="4.0" y="210.0"/>
      <point x="-18.0" y="266.0" type="curve" smooth="yes"/>
      <point x="-32.0" y="301.0"/>
      <point x="-36.0" y="331.0"/>
      <point x="-36.0" y="365.0" type="curve" smooth="yes"/>
      <point x="-36.0" y="434.0"/>
      <point x="-36.0" y="488.0"/>
      <point x="-36.0" y="543.0" type="curve" smooth="yes"/>
      <point x="-36.0" y="576.0"/>
      <point x="-31.0" y="621.0"/>
      <point x="-11.0" y="659.0" type="curve" smooth="yes"/>
      <point x="23.0" y="722.0"/>
      <point x="99.0" y="676.0"/>
    </contour>
    <contour>
      <point x="-25.0" y="16.0" type="curve" smooth="yes"/>
      <point x="-38.0" y="43.0"/>
      <point x="-39.0" y="81.0"/>
      <point x="-26.0" y="109.0" type="curve" smooth="yes"/>
      <point x="3.0" y="170.0"/>
      <point x="81.0" y="122.0"/>
      <point x="60.0" y="79.0" type="curve" smooth="yes"/>
      <point x="51.0" y="59.0"/>
      <point x="51.0" y="67.0"/>
      <point x="60.0" y="48.0" type="curve" smooth="yes"/>
      <point x="82.0" y="5.0"/>
      <point x="5.0" y="-44.0"/>
    </contour>
  </outline>
</glyph>
<glyph name="quotedbl" format="2">
  <advance width="350"/>
  <unicode hex="0022"/>
  <outline>
    <contour>
      <point x="59.312523945932426" y="438.00555074028307" type="curve" smooth="yes"/>
      <point x="59.33745345562552" y="640.0055476636471" type="line" smooth="yes"/>
      <point x="59.345783861155695" y="707.5055471496053"/>
      <point x="149.3457831757665" y="707.4944399422316"/>
      <point x="149.33745277023633" y="639.9944404562734" type="curve" smooth="yes"/>
      <point x="149.31252326054323" y="437.9944435329095" type="line" smooth="yes"/>
      <point x="149.30419285501304" y="370.4944440469514"/>
      <point x="59.30419354040224" y="370.505551254325"/>
    </contour>
    <contour>
      <point x="200.73388018324192" y="438.00555074028307" type="curve" smooth="yes"/>
      <point x="200.75880969293502" y="640.0055476636471" type="line" smooth="yes"/>
      <point x="200.7671400984652" y="707.5055471496053"/>
      <point x="290.767139413076" y="707.4944399422316"/>
      <point x="290.75880900754584" y="639.9944404562734" type="curve" smooth="yes"/>
      <point x="290.73387949785274" y="437.9944435329095" type="line" smooth="yes"/>
      <point x="290.7255490923226" y="370.4944440469514"/>
      <point x="200.72554977771173" y="370.505551254325"/>
    </contour>
  </outline>
</glyph>
<glyph name="numbersign" format="2">
  <advance width="494"/>
  <unicode hex="0023"/>
  <outline>
    <contour>
      <point x="140.0" y="647.0" type="curve" smooth="yes"/>
      <point x="150.0" y="566.0"/>
      <point x="204.0" y="512.0"/>
      <point x="194.0" y="340.0" type="curve" smooth="yes"/>
      <point x="184.0" y="178.0"/>
      <point x="114.0" y="110.0"/>
      <point x="106.0" y="34.0" type="curve" smooth="yes"/>
      <point x="98.0" y="-31.0"/>
      <point x="9.0" y="-24.0"/>
      <point x="16.0" y="46.0" type="curve" smooth="yes"/>
      <point x="26.0" y="130.0"/>
      <point x="96.0" y="206.0"/>
      <point x="104.0" y="348.0" type="curve" smooth="yes"/>
      <point x="112.0" y="494.0"/>
      <point x="62.0" y="546.0"/>
      <point x="50.0" y="632.0" type="curve" smooth="yes"/>
      <point x="42.0" y="702.0"/>
      <point x="131.0" y="712.0"/>
    </contour>
    <contour>
      <point x="308.0" y="648.0" type="curve" smooth="yes"/>
      <point x="319.0" y="565.0"/>
      <point x="370.0" y="511.0"/>
      <point x="362.0" y="341.0" type="curve" smooth="yes"/>
      <point x="354.0" y="178.0"/>
      <point x="286.0" y="108.0"/>
      <point x="273.0" y="31.0" type="curve" smooth="yes"/>
      <point x="263.0" y="-33.0"/>
      <point x="173.0" y="-21.0"/>
      <point x="185.0" y="49.0" type="curve" smooth="yes"/>
      <point x="198.0" y="131.0"/>
      <point x="266.0" y="206.0"/>
      <point x="272.0" y="346.0" type="curve" smooth="yes"/>
      <point x="280.0" y="496.0"/>
      <point x="230.0" y="544.0"/>
      <point x="218.0" y="632.0" type="curve" smooth="yes"/>
      <point x="209.0" y="703.0"/>
      <point x="298.0" y="712.0"/>
    </contour>
    <contour>
      <point x="373.0" y="417.0" type="curve" smooth="yes"/>
      <point x="325.0" y="417.0"/>
      <point x="284.0" y="417.0"/>
      <point x="268.0" y="417.0" type="curve" smooth="yes"/>
      <point x="171.0" y="417.0"/>
      <point x="138.0" y="417.0"/>
      <point x="72.0" y="417.0" type="curve" smooth="yes"/>
      <point x="41.0" y="417.0"/>
      <point x="39.0" y="417.0"/>
      <point x="-10.0" y="417.0" type="curve" smooth="yes"/>
      <point x="-69.0" y="417.0"/>
      <point x="-69.0" y="507.0"/>
      <point x="-10.0" y="507.0" type="curve" smooth="yes"/>
      <point x="43.0" y="507.0"/>
      <point x="52.0" y="507.0"/>
      <point x="72.0" y="507.0" type="curve" smooth="yes"/>
      <point x="170.0" y="507.0"/>
      <point x="203.0" y="507.0"/>
      <point x="268.0" y="507.0" type="curve" smooth="yes"/>
      <point x="292.0" y="507.0"/>
      <point x="337.0" y="507.0"/>
      <point x="381.0" y="507.0" type="curve" smooth="yes"/>
      <point x="446.0" y="507.0"/>
      <point x="454.0" y="417.0"/>
    </contour>
    <contour>
      <point x="375.0" y="173.0" type="curve" smooth="yes"/>
      <point x="309.0" y="173.0"/>
      <point x="273.0" y="173.0"/>
      <point x="253.0" y="173.0" type="curve" smooth="yes"/>
      <point x="156.0" y="173.0"/>
      <point x="130.0" y="173.0"/>
      <point x="66.0" y="173.0" type="curve" smooth="yes"/>
      <point x="41.0" y="173.0"/>
      <point x="36.0" y="173.0"/>
      <point x="-10.0" y="173.0" type="curve" smooth="yes"/>
      <point x="-70.0" y="173.0"/>
      <point x="-70.0" y="263.0"/>
      <point x="-10.0" y="263.0" type="curve" smooth="yes"/>
      <point x="39.0" y="263.0"/>
      <point x="49.0" y="263.0"/>
      <point x="66.0" y="263.0" type="curve" smooth="yes"/>
      <point x="162.0" y="263.0"/>
      <point x="189.0" y="263.0"/>
      <point x="253.0" y="263.0" type="curve" smooth="yes"/>
      <point x="283.0" y="263.0"/>
      <point x="328.0" y="263.0"/>
      <point x="381.0" y="263.0" type="curve" smooth="yes"/>
      <point x="447.0" y="263.0"/>
      <point x="453.0" y="173.0"/>
    </contour>
  </outline>
</glyph>
<glyph name="dollar" format="2">
  <advance width="354"/>
  <unicode hex="0024"/>
  <outline>
    <contour>
      <point x="231" y="726" type="curve" smooth="yes"/>
      <point x="229" y="684"/>
      <point x="223" y="643"/>
      <point x="237" y="637" type="curve" smooth="yes"/>
      <point x="388" y="566"/>
      <point x="251" y="514"/>
      <point x="133" y="553" type="curve" smooth="yes"/>
      <point x="94" y="566"/>
      <point x="32" y="549"/>
      <point x="32" y="478" type="curve" smooth="yes"/>
      <point x="32" y="360"/>
      <point x="258" y="391"/>
      <point x="258" y="198" type="curve" smooth="yes"/>
      <point x="258" y="49"/>
      <point x="114" y="7"/>
      <point x="35" y="34" type="curve" smooth="yes"/>
      <point x="-83" y="74"/>
      <point x="-17" y="181"/>
      <point x="137" y="119" type="curve" smooth="yes"/>
      <point x="189" y="98"/>
      <point x="201" y="77"/>
      <point x="194" y="-59" type="curve" smooth="yes"/>
      <point x="190" y="-127"/>
      <point x="101" y="-122"/>
      <point x="104" y="-55" type="curve" smooth="yes"/>
      <point x="105" y="-35"/>
      <point x="110" y="32"/>
      <point x="103" y="35" type="curve" smooth="yes"/>
      <point x="97" y="38"/>
      <point x="59" y="121"/>
      <point x="63" y="120" type="curve" smooth="yes"/>
      <point x="102" y="107"/>
      <point x="168" y="127"/>
      <point x="168" y="198" type="curve" smooth="yes"/>
      <point x="168" y="321"/>
      <point x="-58" y="293"/>
      <point x="-58" y="478" type="curve" smooth="yes"/>
      <point x="-58" y="627"/>
      <point x="82" y="666"/>
      <point x="161" y="639" type="curve" smooth="yes"/>
      <point x="166" y="637"/>
      <point x="205" y="553"/>
      <point x="199" y="555" type="curve" smooth="yes"/>
      <point x="150" y="578"/>
      <point x="133" y="588"/>
      <point x="141" y="730" type="curve" smooth="yes"/>
      <point x="145" y="798"/>
      <point x="235" y="793"/>
    </contour>
  </outline>
</glyph>
<glyph name="percent" format="2">
  <advance width="723"/>
  <unicode hex="0025"/>
  <outline>
    <contour>
      <point x="424.1753093475813" y="4.547682436569531" type="curve" smooth="yes"/>
      <point x="364.9749555608467" y="33.33225177660818"/>
      <point x="328.14870912808334" y="99.6830653538894"/>
      <point x="328.15936506613826" y="186.02649852938018" type="curve" smooth="yes"/>
      <point x="328.1742759239862" y="306.8468947769434"/>
      <point x="389.73657160551" y="382.0209426258318"/>
      <point x="469.3445223903768" y="382.0209426258318" type="curve" smooth="yes"/>
      <point x="548.8320843086772" y="382.0209426258318"/>
      <point x="611.9215107344396" y="306.6530742800182"/>
      <point x="611.9066224258631" y="186.0153913220065" type="curve" smooth="yes"/>
      <point x="611.8960675059682" y="100.4904928137265"/>
      <point x="584.7564085051681" y="39.48248822061525"/>
      <point x="551.7663972892414" y="10.970796238113053" type="curve" smooth="yes"/>
      <point x="500.69640702427114" y="-33.166558625265964"/>
      <point x="441.8466005397658" y="34.92676172802766"/>
      <point x="492.916590804736" y="79.06411659140667" type="curve" smooth="yes"/>
      <point x="510.0864408870102" y="93.90319844946922"/>
      <point x="521.901129739606" y="141.5145498647509"/>
      <point x="521.9066231112524" y="186.02649852938015" type="curve" smooth="yes"/>
      <point x="521.9129976199696" y="237.6781658546595"/>
      <point x="503.3775459368467" y="292.0209426258318"/>
      <point x="469.3445223903768" y="292.0209426258318" type="curve" smooth="yes"/>
      <point x="435.6155729962419" y="292.0209426258318"/>
      <point x="418.1656819352749" y="237.20556756239372"/>
      <point x="418.1593643807491" y="186.01539132200648" type="curve" smooth="yes"/>
      <point x="418.15382425655514" y="141.12461393042338"/>
      <point x="432.7511427205226" y="100.45260352016852"/>
      <point x="463.5299733229827" y="85.4872303929502" type="curve" smooth="yes"/>
      <point x="524.2346342902681" y="55.971232411399086"/>
      <point x="484.87997031486674" y="-24.968315544981575"/>
    </contour>
    <contour>
      <point x="238.4735220510331" y="509.71863123494137" type="curve" smooth="yes"/>
      <point x="228.08484200083586" y="368.3853497963444"/>
      <point x="158.45628460647126" y="297.02094254967744"/>
      <point x="83.97194371078" y="297.02094254967744" type="curve" smooth="yes"/>
      <point x="3.474792820066117" y="297.02094254967744"/>
      <point x="-57.897821882836325" y="373.32849203878123"/>
      <point x="-57.88292613010542" y="494.02649383827196" type="curve" smooth="yes"/>
      <point x="-57.86820842001212" y="613.2818434279741"/>
      <point x="-5.1068694525901766" y="690.02356250915"/>
      <point x="84.01066326684489" y="690.0209379152082" type="curve" smooth="yes"/>
      <point x="148.03790173843643" y="690.0190522536881"/>
      <point x="240.52541739908753" y="647.2990083312237"/>
      <point x="341.7849287562669" y="648.003791596198" type="curve" smooth="yes"/>
      <point x="578.8228985027482" y="649.6536158151938"/>
      <point x="537.7858860236486" y="781.3744805787949"/>
      <point x="383.28970347628615" y="462.40465631947467" type="curve" smooth="yes"/>
      <point x="328.0176100444531" y="348.29096342617754"/>
      <point x="292.1664081987493" y="276.2019600546397"/>
      <point x="236.05229078307798" y="162.15439117295546" type="curve" smooth="yes"/>
      <point x="215.39106815343163" y="120.16206696727656"/>
      <point x="195.55570115592846" y="75.2356650129542"/>
      <point x="189.2443370797633" y="33.31607262288448" type="curve" smooth="yes"/>
      <point x="179.1948792715834" y="-33.43164941885723"/>
      <point x="90.19791654926112" y="-20.03237234128403"/>
      <point x="100.24737435744103" y="46.71534970045768" type="curve" smooth="yes"/>
      <point x="108.07434430979905" y="98.7014791793851"/>
      <point x="129.67505524182624" y="149.8111717462334"/>
      <point x="155.29784720084785" y="201.8874988002782" type="curve" smooth="yes"/>
      <point x="211.2944958797879" y="315.69632163264697"/>
      <point x="247.13451615008069" y="387.76241609460476"/>
      <point x="302.2909035298369" y="501.63722451523637" type="curve" smooth="yes"/>
      <point x="310.8762439178441" y="519.3623518913097"/>
      <point x="355.58350958919726" y="558.0976520931886"/>
      <point x="342.41132875209627" y="558.0059714945687" type="curve" smooth="yes"/>
      <point x="221.22210172050646" y="557.1624740496153"/>
      <point x="137.50588059752818" y="600.0193623924418"/>
      <point x="84.00801268379436" y="600.0209379542391" type="curve" smooth="yes"/>
      <point x="44.31927189856069" y="600.022106824443"/>
      <point x="32.12362775758454" y="547.1260878889674"/>
      <point x="32.11707318450537" y="494.01538663089826" type="curve" smooth="yes"/>
      <point x="32.110730389761926" y="442.62069277489894"/>
      <point x="49.69526667696126" y="387.02094254967744"/>
      <point x="83.97194371078002" y="387.02094254967744" type="curve" smooth="yes"/>
      <point x="118.29665591025808" y="387.02094254967744"/>
      <point x="143.92824604295234" y="451.185474056961"/>
      <point x="148.71567449526086" y="516.316267338483" type="curve" smooth="yes"/>
      <point x="153.66390157291713" y="583.6346530053122"/>
      <point x="243.42174912868936" y="577.0370169017706"/>
    </contour>
  </outline>
</glyph>
<glyph name="ampersand" format="2">
  <advance width="448"/>
  <unicode hex="0026"/>
  <outline>
    <contour>
      <point x="407.1527508419194" y="302.99999850737464" type="curve" smooth="yes"/>
      <point x="267.145608166983" y="302.99999850737464" type="line" smooth="yes"/>
      <point x="166.57037766076076" y="302.99999850737464"/>
      <point x="121.21671143816144" y="266.4355182579289"/>
      <point x="121.2060434503144" y="179.99444746247414" type="curve" smooth="yes"/>
      <point x="121.19854890698984" y="119.26731134376308"/>
      <point x="151.25541612310394" y="79.00000328986809"/>
      <point x="203.4672460480965" y="79.00000328986812" type="curve" smooth="yes"/>
      <point x="257.99355703651287" y="79.00000328986815"/>
      <point x="287.8791216715121" y="125.8458440487736"/>
      <point x="287.8880271478782" y="198.00555439569212" type="curve" smooth="yes"/>
      <point x="287.2147487915525" y="470.888994510806" type="line" smooth="yes"/>
      <point x="287.0482456067952" y="538.3887891526379"/>
      <point x="377.0479717959043" y="538.6107933989808"/>
      <point x="377.2144749806616" y="471.110998757149" type="curve" smooth="yes"/>
      <point x="377.888026462489" y="197.99444718831847" type="line" smooth="yes"/>
      <point x="377.87185279097855" y="66.94166534228177"/>
      <point x="302.4951482455897" y="-10.99999671013185"/>
      <point x="203.4672460480965" y="-10.999996710131882" type="curve" smooth="yes"/>
      <point x="104.6354027284593" y="-10.999996710131914"/>
      <point x="31.19185770453138" y="65.05507676557069"/>
      <point x="31.206044135703607" y="180.00555466984778" type="curve" smooth="yes"/>
      <point x="31.222495567511395" y="313.30898564241085"/>
      <point x="112.04545526558228" y="392.99999850737464"/>
      <point x="267.145608166983" y="392.99999850737464" type="curve" smooth="yes"/>
      <point x="407.1527508419194" y="392.99999850737464" type="line" smooth="yes"/>
      <point x="474.6527508419194" y="392.99999850737464"/>
      <point x="474.6527508419194" y="302.99999850737464"/>
    </contour>
    <contour>
      <point x="282.7427128186337" y="581.3099498366623" type="curve" smooth="yes"/>
      <point x="213.47477457207532" y="618.3193712766529"/>
      <point x="133.27943850246248" y="606.0402826307192"/>
      <point x="133.2667212633118" y="502.99444254290285" type="curve" smooth="yes"/>
      <point x="133.25826224064164" y="434.4522780812708"/>
      <point x="173.98197489437436" y="392.99999850737464"/>
      <point x="267.145608166983" y="392.99999850737464" type="curve" smooth="yes"/>
      <point x="334.645608166983" y="392.99999850737464"/>
      <point x="334.645608166983" y="302.99999850737464"/>
      <point x="267.145608166983" y="302.99999850737464" type="curve" smooth="yes"/>
      <point x="115.94911312309823" y="302.99999850737464"/>
      <point x="43.25299368871067" y="391.76756272377395"/>
      <point x="43.266721948701004" y="503.00554975027643" type="curve" smooth="yes"/>
      <point x="43.289021116724065" y="683.6922911867233"/>
      <point x="203.69644513038048" y="725.5845727582201"/>
      <point x="325.1549924829532" y="660.6900388620315" type="curve" smooth="yes"/>
      <point x="384.6900592519802" y="628.880829113792"/>
      <point x="342.2777795876607" y="549.5007400884227"/>
    </contour>
  </outline>
</glyph>
<glyph name="quotesingle" format="2">
  <advance width="211"/>
  <unicode hex="0027"/>
  <outline>
    <contour>
      <point x="-25.0" y="441.0" type="curve" smooth="yes"/>
      <point x="-25.0" y="509.0"/>
      <point x="-22.0" y="611.0"/>
      <point x="10.0" y="662.0" type="curve" smooth="yes"/>
      <point x="48.0" y="724.0"/>
      <point x="121.0" y="671.0"/>
      <point x="89.0" y="619.0" type="curve" smooth="yes"/>
      <point x="62.0" y="576.0"/>
      <point x="65.0" y="499.0"/>
      <point x="65.0" y="437.0" type="curve" smooth="yes"/>
      <point x="65.0" y="371.0"/>
      <point x="-25.0" y="369.0"/>
    </contour>
  </outline>
</glyph>
<glyph name="parenleft" format="2">
  <advance width="320"/>
  <unicode hex="0028"/>
  <outline>
    <contour>
      <point x="260.17066091449107" y="-177.8838256082674" type="curve" smooth="yes"/>
      <point x="146.59597628033558" y="-133.2653133013406"/>
      <point x="35.775999829426596" y="22.793462424677543"/>
      <point x="35.81082858758903" y="305.0055527659889" type="curve" smooth="yes"/>
      <point x="35.84565734575146" y="587.2176431073004"/>
      <point x="146.6951959673404" y="743.2658545667356"/>
      <point x="260.28089364755516" y="787.8843668736623" type="curve" smooth="yes"/>
      <point x="323.1074552898165" y="812.5637743262558"/>
      <point x="356.0133318932746" y="728.7950254699073"/>
      <point x="293.18677025101323" y="704.1156180173137" type="curve" smooth="yes"/>
      <point x="203.58880996481193" y="668.9199219450807"/>
      <point x="125.83830130558061" y="527.6072232154903"/>
      <point x="125.81082790219982" y="304.9944455586153" type="curve" smooth="yes"/>
      <point x="125.78335449881902" y="82.38166790174039"/>
      <point x="203.4900286771873" y="-58.920466561267084"/>
      <point x="293.07930172121286" y="-94.11616263350032" type="curve" smooth="yes"/>
      <point x="355.90504895228815" y="-118.79764323854171"/>
      <point x="322.99640814556636" y="-202.5653062133088"/>
    </contour>
  </outline>
</glyph>
<glyph name="parenright" format="2">
  <advance width="320"/>
  <unicode hex="0029"/>
  <outline>
    <contour>
      <point x="59.34364313192988" y="788.8838239176407" type="curve" smooth="yes"/>
      <point x="172.91832776608533" y="744.265311610714"/>
      <point x="283.7383042169944" y="588.206535884696"/>
      <point x="283.7034754588319" y="305.9944455433844" type="curve" smooth="yes"/>
      <point x="283.6686467006694" y="23.782355202073102"/>
      <point x="172.8191080790805" y="-132.26585625736223"/>
      <point x="59.233410398865736" y="-176.88436856428896" type="curve" smooth="yes"/>
      <point x="-3.5931512433956243" y="-201.56377601688257"/>
      <point x="-36.49902784685371" y="-117.79502716053406"/>
      <point x="26.327533795407653" y="-93.11561970794045" type="curve" smooth="yes"/>
      <point x="115.92549408160896" y="-57.91992363570727"/>
      <point x="193.6760027408403" y="83.39277509388307"/>
      <point x="193.7034761442211" y="306.005552750758" type="curve" smooth="yes"/>
      <point x="193.73094954760194" y="528.6183304076329"/>
      <point x="116.02427536923354" y="669.9204648706406"/>
      <point x="26.435002325208032" y="705.1161609428736" type="curve" smooth="yes"/>
      <point x="-36.390744905867265" y="729.7976415479151"/>
      <point x="-3.482104099145417" y="813.5653045226821"/>
    </contour>
  </outline>
</glyph>
<glyph name="asterisk" format="2">
  <advance width="434"/>
  <unicode hex="002A"/>
  <outline>
    <contour>
      <point x="60.04870504725139" y="508.9999967405936" type="curve" smooth="yes"/>
      <point x="94.51181654172468" y="508.9999967405936"/>
      <point x="109.04733572304565" y="508.9999967405936"/>
      <point x="132.17359672827928" y="508.9999967405936" type="curve" smooth="yes"/>
      <point x="191.72196857681027" y="508.9999967405936"/>
      <point x="261.7143698709167" y="453.5711786556109"/>
      <point x="289.2133556563848" y="384.6831731572639" type="curve" smooth="yes"/>
      <point x="303.4535102072376" y="349.01000860314224"/>
      <point x="310.453623120786" y="332.5998428359075"/>
      <point x="324.65049481980645" y="296.44915101156727" type="curve" smooth="yes"/>
      <point x="349.3242220225465" y="233.62035836102552"/>
      <point x="265.5524984884908" y="200.72205542403879"/>
      <point x="240.8787712857508" y="263.55084807458053" type="curve" smooth="yes"/>
      <point x="226.80340996039615" y="299.39212778581737"/>
      <point x="219.98966361928274" y="315.3366423960473"/>
      <point x="205.6269530914384" y="351.31682324825056" type="curve" smooth="yes"/>
      <point x="194.26971999023866" y="379.76795022526454"/>
      <point x="156.7674033928903" y="418.9999967405936"/>
      <point x="132.17359672827928" y="418.9999967405936" type="curve" smooth="yes"/>
      <point x="97.71048523380598" y="418.9999967405936"/>
      <point x="83.17496605248502" y="418.9999967405936"/>
      <point x="60.04870504725139" y="418.9999967405936" type="curve" smooth="yes"/>
      <point x="-7.451294952748611" y="418.9999967405936"/>
      <point x="-7.451294952748611" y="508.9999967405936"/>
    </contour>
    <contour>
      <point x="239.83958024984437" y="631.5628304018313" type="curve" smooth="yes"/>
      <point x="225.65526861407758" y="595.4668082527108"/>
      <point x="219.47374495863164" y="579.3450013687486"/>
      <point x="205.0877928458436" y="543.328867575976" type="curve" smooth="yes"/>
      <point x="177.58553470590027" y="474.47523863256606"/>
      <point x="106.8393968205357" y="419.0209406915112"/>
      <point x="47.320784278275816" y="419.0209406915112" type="curve" smooth="yes"/>
      <point x="12.857672783802478" y="419.0209406915112"/>
      <point x="-1.6778463975184439" y="419.0209406915112"/>
      <point x="-24.804107402752045" y="419.0209406915112" type="curve" smooth="yes"/>
      <point x="-92.30410740275204" y="419.0209406915112"/>
      <point x="-92.30410740275204" y="509.0209406915112"/>
      <point x="-24.80410740275203" y="509.0209406915112" type="curve" smooth="yes"/>
      <point x="9.659004091721304" y="509.0209406915112"/>
      <point x="24.194523273042233" y="509.0209406915112"/>
      <point x="47.32078427827583" y="509.0209406915112" type="curve" smooth="yes"/>
      <point x="72.00050334715509" y="509.0209406915112"/>
      <point x="110.10453316542612" y="548.1624760732986"/>
      <point x="121.50849531544551" y="576.7130108827195" type="curve" smooth="yes"/>
      <point x="135.82152525645105" y="612.5465794427715"/>
      <point x="141.96248165216113" y="628.5659934126907"/>
      <point x="156.0748932286472" y="664.4790453762308" type="curve" smooth="yes"/>
      <point x="180.76205445944692" y="727.3025606421287"/>
      <point x="264.5267414806441" y="694.3863456677292"/>
    </contour>
    <contour>
      <point x="356.32644636441483" y="418.9999967405936" type="curve" smooth="yes"/>
      <point x="321.8633348699415" y="418.9999967405936"/>
      <point x="307.3278156886207" y="418.9999967405936"/>
      <point x="284.201554683387" y="418.9999967405936" type="curve" smooth="yes"/>
      <point x="224.65318283485598" y="418.9999967405936"/>
      <point x="154.66078154074967" y="474.4288148255764"/>
      <point x="127.16179575528145" y="543.3168203239234" type="curve" smooth="yes"/>
      <point x="112.92164120442861" y="578.9899848780451"/>
      <point x="105.92152829088016" y="595.4001506452798"/>
      <point x="91.72465659185981" y="631.5508424696201" type="curve" smooth="yes"/>
      <point x="67.05092938911983" y="694.3796351201619"/>
      <point x="150.8226529231755" y="727.2779380571486"/>
      <point x="175.4963801259155" y="664.4491454066068" type="curve" smooth="yes"/>
      <point x="189.57174145127013" y="628.60786569537"/>
      <point x="196.3854877923835" y="612.66335108514"/>
      <point x="210.74819832022786" y="576.6831702329368" type="curve" smooth="yes"/>
      <point x="222.1054314214276" y="548.2320432559228"/>
      <point x="259.607748018776" y="508.9999967405936"/>
      <point x="284.201554683387" y="508.9999967405936" type="curve" smooth="yes"/>
      <point x="318.6646661778603" y="508.9999967405936"/>
      <point x="333.2001853591811" y="508.9999967405936"/>
      <point x="356.32644636441483" y="508.9999967405936" type="curve" smooth="yes"/>
      <point x="423.82644636441483" y="508.9999967405936"/>
      <point x="423.82644636441483" y="418.9999967405936"/>
    </contour>
    <contour>
      <point x="6.829946261814996" y="296.47905098119116" type="curve" smooth="yes"/>
      <point x="21.294293807994848" y="333.28770428819826"/>
      <point x="31.122366406356658" y="352.6749736330651"/>
      <point x="45.117637811991465" y="387.71301376135403" type="curve" smooth="yes"/>
      <point x="72.59241430674592" y="456.4978406816368"/>
      <point x="139.88960369444726" y="509.0209406915112"/>
      <point x="199.34874223338352" y="509.0209406915112" type="curve" smooth="yes"/>
      <point x="233.8118537278569" y="509.0209406915112"/>
      <point x="248.3473729091778" y="509.0209406915112"/>
      <point x="271.4736339144114" y="509.0209406915112" type="curve" smooth="yes"/>
      <point x="338.9736339144114" y="509.0209406915112"/>
      <point x="338.9736339144114" y="419.0209406915112"/>
      <point x="271.4736339144114" y="419.0209406915112" type="curve" smooth="yes"/>
      <point x="237.01052241993798" y="419.0209406915112"/>
      <point x="222.4750032386171" y="419.0209406915112"/>
      <point x="199.34874223338352" y="419.0209406915112" type="curve" smooth="yes"/>
      <point x="174.64432492329846" y="419.0209406915112"/>
      <point x="140.11231001323614" y="382.90797722602576"/>
      <point x="128.69693534238957" y="354.32887045461047" type="curve" smooth="yes"/>
      <point x="114.03429772048932" y="317.6200371285306"/>
      <point x="104.400643186714" y="298.696161618335"/>
      <point x="90.59463328301223" y="263.56283600679177" type="curve" smooth="yes"/>
      <point x="65.90747205221268" y="200.73932074089385"/>
      <point x="-17.85721496898455" y="233.65553571529324"/>
    </contour>
    <contour>
      <point x="91.35055104368426" y="663.4700893727553" type="curve" smooth="yes"/>
      <point x="105.4399982939273" y="627.5929414829156"/>
      <point x="112.15052473889234" y="611.5864457461938"/>
      <point x="126.55073127696758" y="575.8328960456732" type="curve" smooth="yes"/>
      <point x="146.71088344207897" y="525.7782665860522"/>
      <point x="184.5831821181338" y="432.9748444363379"/>
      <point x="204.9469681389225" y="383.0027133575063" type="curve" smooth="yes"/>
      <point x="219.22272160719504" y="347.9704348392918"/>
      <point x="225.56793171110806" y="331.7033273406067"/>
      <point x="239.63637816366452" y="296.8750615767637" type="curve" smooth="yes"/>
      <point x="264.9175552878228" y="234.28822523542962"/>
      <point x="181.46844016604405" y="200.57998906988516"/>
      <point x="156.18726304188579" y="263.16682541121924" type="curve" smooth="yes"/>
      <point x="142.28618133125983" y="297.5807580266856"/>
      <point x="136.04761282853883" y="313.5886776479111"/>
      <point x="121.60143561760957" y="349.03917101076684" type="curve" smooth="yes"/>
      <point x="101.18472246554363" y="399.1411837107815"/>
      <point x="63.28015466956319" y="492.024256942698"/>
      <point x="43.06760463407935" y="542.2089824434839" type="curve" smooth="yes"/>
      <point x="28.56505566141382" y="578.2166330356772"/>
      <point x="21.768408624605385" y="594.4396592404934"/>
      <point x="7.578827509628596" y="630.5717864357686" type="curve" smooth="yes"/>
      <point x="-17.094899693111426" y="693.4005790863102"/>
      <point x="66.67682384094424" y="726.298882023297"/>
    </contour>
  </outline>
</glyph>
<glyph name="plus" format="2">
  <advance width="382"/>
  <unicode hex="002B"/>
  <outline>
    <contour>
      <point x="149" y="516" type="curve" smooth="yes"/>
      <point x="188" y="381"/>
      <point x="188" y="239"/>
      <point x="149" y="102" type="curve" smooth="yes"/>
      <point x="131" y="37"/>
      <point x="45" y="61"/>
      <point x="63" y="126" type="curve" smooth="yes"/>
      <point x="96" y="247"/>
      <point x="96" y="373"/>
      <point x="63" y="492" type="curve" smooth="yes"/>
      <point x="44" y="557"/>
      <point x="131" y="581"/>
    </contour>
    <contour>
      <point x="241" y="263" type="curve" smooth="yes"/>
      <point x="90" y="263"/>
      <point x="15" y="263"/>
      <point x="-28" y="263" type="curve" smooth="yes"/>
      <point x="-95" y="263"/>
      <point x="-95" y="353"/>
      <point x="-28" y="353" type="curve" smooth="yes"/>
      <point x="37" y="353"/>
      <point x="140" y="353"/>
      <point x="241" y="353" type="curve" smooth="yes"/>
      <point x="309" y="353"/>
      <point x="309" y="263"/>
    </contour>
  </outline>
</glyph>
<glyph name="comma" format="2">
  <advance width="191"/>
  <unicode hex="002C"/>
  <outline>
    <contour>
      <point x="-9.0" y="-107.0" type="curve" smooth="yes"/>
      <point x="-3.0" y="-55.0"/>
      <point x="10.0" y="39.0"/>
      <point x="2.0" y="72.0" type="curve" smooth="yes"/>
      <point x="-13.0" y="136.0"/>
      <point x="76.0" y="150.0"/>
      <point x="88.0" y="98.0" type="curve" smooth="yes"/>
      <point x="102.0" y="38.0"/>
      <point x="90.0" y="-30.0"/>
      <point x="80.0" y="-124.0" type="curve" smooth="yes"/>
      <point x="74.0" y="-181.0"/>
      <point x="-17.0" y="-178.0"/>
    </contour>
  </outline>
</glyph>
<glyph name="period" format="2">
  <advance width="184"/>
  <unicode hex="002E"/>
  <outline>
    <contour>
      <point x="7.778859221754402" y="15.739345103953596" type="curve" smooth="yes"/>
      <point x="-5.391922503565226" y="41.82578752690149"/>
      <point x="-5.9228134879413625" y="81.2719236305506"/>
      <point x="7.254636198415135" y="109.21494771161508" type="curve" smooth="yes"/>
      <point x="36.04563818405232" y="170.26679620666914"/>
      <point x="117.4481028441244" y="131.87879355915288"/>
      <point x="88.65710085848721" y="70.82694506409882" type="curve" smooth="yes"/>
      <point x="87.7879839317398" y="68.98396665845873"/>
      <point x="87.2508720441296" y="58.02307712807201"/>
      <point x="88.11954918640114" y="56.30254931669437" type="curve" smooth="yes"/>
      <point x="118.5419523459567" y="-3.9529681567906962"/>
      <point x="38.20126238130997" y="-44.51617236953147"/>
    </contour>
  </outline>
</glyph>
<glyph name="zero" format="2">
  <advance width="418"/>
  <unicode hex="0030"/>
  <outline>
    <contour>
      <point x="248.11965297000063" y="81.63060206085984" type="curve" smooth="yes"/>
      <point x="253.4779152557877" y="84.83683542598531"/>
      <point x="265.3298751425858" y="113.8873731897502"/>
      <point x="268.88331598943313" y="122.02639544787675" type="curve" smooth="yes"/>
      <point x="290.2496813999648" y="170.9652496871064"/>
      <point x="315.3466837348399" y="249.74299342871814"/>
      <point x="315.357949343756" y="341.0264961685952" type="curve" smooth="yes"/>
      <point x="315.3739703783453" y="470.842484431338"/>
      <point x="276.6892415208446" y="600.0209379347236"/>
      <point x="211.19593584865385" y="600.0209379347236" type="curve" smooth="yes"/>
      <point x="145.08872852233512" y="600.0209379347236"/>
      <point x="106.97493186787716" y="471.0245137976725"/>
      <point x="106.95888699764372" y="341.01538896122156" type="curve" smooth="yes"/>
      <point x="106.94851491118433" y="256.97196176667404"/>
      <point x="115.43033560750688" y="175.63306762406688"/>
      <point x="148.4256923382691" y="130.62788179011528" type="curve" smooth="yes"/>
      <point x="163.42053135491503" y="110.1751398482418"/>
      <point x="184.09451035316044" y="93.68274299906791"/>
      <point x="207.86268045552106" y="85.64317668820533" type="curve" smooth="yes"/>
      <point x="271.80387881386133" y="64.0151126856326"/>
      <point x="242.96646014376438" y="-21.239818458821123"/>
      <point x="179.0252617854241" y="0.3882455437516015" type="curve" smooth="yes"/>
      <point x="137.76289769368998" y="14.345210292396795"/>
      <point x="101.87430566711387" y="41.90734424677709"/>
      <point x="75.84274731250864" y="77.41401055913424" type="curve" smooth="yes"/>
      <point x="31.38740494566389" y="138.0504498271623"/>
      <point x="16.94491315145344" y="227.7930081932014"/>
      <point x="16.958887683032927" y="341.02649616859514" type="curve" smooth="yes"/>
      <point x="16.986052706293172" y="561.1405169637377"/>
      <point x="99.2720749162836" y="690.0209379347236"/>
      <point x="211.19593584865385" y="690.0209379347236" type="curve" smooth="yes"/>
      <point x="322.3009163453744" y="690.0209379347236"/>
      <point x="405.38512726413876" y="561.2394667667617"/>
      <point x="405.3579486583668" y="341.0153889612215" type="curve" smooth="yes"/>
      <point x="405.34477892358944" y="234.30304614897128"/>
      <point x="376.3426535955845" y="143.22605120379905"/>
      <point x="351.36492112581124" y="86.01549690137276" type="curve" smooth="yes"/>
      <point x="332.88062109323005" y="43.677904726580515"/>
      <point x="322.2044071338022" y="21.07901520789757"/>
      <point x="294.33178113198505" y="4.400820171097081" type="curve" smooth="yes"/>
      <point x="236.40944471466298" y="-30.258275950391244"/>
      <point x="190.19731655267856" y="46.97150593937152"/>
    </contour>
  </outline>
</glyph>
<glyph name="one" format="2">
  <advance width="244"/>
  <unicode hex="0031"/>
  <outline>
    <contour>
      <point x="-3.128679853979179" y="632.7245203802065" type="curve" smooth="yes"/>
      <point x="19.97792930686549" y="640.3814342826545"/>
      <point x="72.99555463417363" y="667.0046129413037"/>
      <point x="93.04923102524808" y="667.00697533884" type="curve" smooth="yes"/>
      <point x="179.04844272713987" y="667.0171063652866"/>
      <point x="115.41651997828993" y="536.1597683814625"/>
      <point x="115.41452754493673" y="520.0153862348957" type="curve" smooth="yes"/>
      <point x="115.39618195466508" y="371.3638794839537"/>
      <point x="115.38181559124689" y="254.9554381635885"/>
      <point x="115.3707157828523" y="165.0153916418548" type="curve" smooth="yes"/>
      <point x="115.36569602563662" y="124.34106813529434"/>
      <point x="118.88413884399873" y="88.02911586124947"/>
      <point x="132.38065675921771" y="58.972695454504496" type="curve" smooth="yes"/>
      <point x="160.8161331984679" y="-2.245550842435833"/>
      <point x="79.19180480254741" y="-40.15951942810267"/>
      <point x="50.75632836329723" y="21.05872686883766" type="curve" smooth="yes"/>
      <point x="31.827193505694495" y="61.81093449850102"/>
      <point x="25.363676158890257" y="107.97995101119288"/>
      <point x="25.370716468241497" y="165.02649884922843" type="curve" smooth="yes"/>
      <point x="25.387257574224193" y="299.05654591974974"/>
      <point x="25.4022175337428" y="420.2748054818011"/>
      <point x="25.414528230325928" y="520.0264934422694" type="curve" smooth="yes"/>
      <point x="25.453406500309683" y="835.0511575353039"/>
      <point x="97.46778491547727" y="577.0074952363971"/>
      <point x="93.059833359299" y="577.0069759633373" type="curve" smooth="yes"/>
      <point x="87.78046174401223" y="577.0063540337592"/>
      <point x="112.96240478633351" y="576.3813144039945"/>
      <point x="25.18107276012762" y="547.2929225552327" type="curve" smooth="yes"/>
      <point x="-38.892625608602756" y="526.0606080946527"/>
      <point x="-67.20237822270956" y="611.4922059196265"/>
    </contour>
  </outline>
</glyph>
<glyph name="two" format="2">
  <advance width="357"/>
  <unicode hex="0032"/>
  <outline>
    <contour>
      <point x="-73.69055470367721" y="68.70121224172914" type="curve" smooth="yes"/>
      <point x="-63.66765805557278" y="84.89742868184894"/>
      <point x="-53.1381177292183" y="101.22597738200788"/>
      <point x="-42.19240672153349" y="118.30359485546171" type="curve" smooth="yes"/>
      <point x="-32.594202488940134" y="133.27881758893542"/>
      <point x="-23.023742515444816" y="148.75972401147985"/>
      <point x="-13.34503972028945" y="164.06844933879367" type="curve" smooth="yes"/>
      <point x="18.81756064379557" y="214.93977220164632"/>
      <point x="50.40226055183219" y="265.0692472764647"/>
      <point x="82.90573529562818" y="316.17172727444665" type="curve" smooth="yes"/>
      <point x="137.0214832573641" y="401.25336699415965"/>
      <point x="161.45549534161123" y="450.7814108226992"/>
      <point x="161.4618196723547" y="502.0264937164249" type="curve" smooth="yes"/>
      <point x="161.46913718739492" y="561.3191967747617"/>
      <point x="131.18361477163236" y="600.0209379347236"/>
      <point x="82.02867395907582" y="600.0209379347236" type="curve" smooth="yes"/>
      <point x="63.72525111328996" y="600.0209379347236"/>
      <point x="42.42867586536066" y="594.1036558563502"/>
      <point x="28.917485288321785" y="581.775553746663" type="curve" smooth="yes"/>
      <point x="-20.945355691428738" y="536.2788825560351"/>
      <point x="-81.60758394559929" y="602.7626705290359"/>
      <point x="-31.744742965848758" y="648.2593417196638" type="curve" smooth="yes"/>
      <point x="-1.4641556176904045" y="675.8884518740115"/>
      <point x="41.00798143816821" y="690.0209379347236"/>
      <point x="82.02867395907585" y="690.0209379347236" type="curve" smooth="yes"/>
      <point x="176.85905099578594" y="690.0209379347236"/>
      <point x="251.4759360360102" y="616.4036716661658"/>
      <point x="251.4618189869655" y="502.0153865090513" type="curve" smooth="yes"/>
      <point x="251.45364380028863" y="435.7731016058838"/>
      <point x="228.79929718792474" y="377.85148633755375"/>
      <point x="158.84622868253217" y="267.87015934799535" type="curve" smooth="yes"/>
      <point x="126.41079639032198" y="216.87465677469152"/>
      <point x="94.82171303329899" y="166.73827125406132"/>
      <point x="62.726441537754866" y="115.97344191383311" type="curve" smooth="yes"/>
      <point x="53.244792426434294" y="100.97639479220526"/>
      <point x="43.37763588248366" y="85.02514644848986"/>
      <point x="33.57969844758436" y="69.7382977984052" type="curve" smooth="yes"/>
      <point x="22.899776518641307" y="53.07536733908746"/>
      <point x="12.619870967212249" y="37.14361393935647"/>
      <point x="2.840355170708335" y="21.34068190476313" type="curve" smooth="yes"/>
      <point x="-32.68004258201621" y="-36.057500501026006"/>
      <point x="-109.21095245640176" y="11.303029835940002"/>
    </contour>
    <contour>
      <point x="227.6135133041741" y="0.017456704816567026" type="curve" smooth="yes"/>
      <point x="184.5346242379018" y="0.022347896612916914"/>
      <point x="149.7087556473769" y="0.024061988243453368"/>
      <point x="130.75404408603538" y="0.02024985164037929" type="curve" smooth="yes"/>
      <point x="120.09176360393236" y="0.018105473469993996"/>
      <point x="122.97239514119151" y="0.006329333177436182"/>
      <point x="121.63961087569434" y="0.0037524259691394946" type="curve" smooth="yes"/>
      <point x="120.2194747398764" y="0.0010066259624266927"/>
      <point x="100.38971885126611" y="3.1223285361647868e-06"/>
      <point x="88.31858564877909" y="3.1223285361647868e-06" type="curve" smooth="yes"/>
      <point x="71.0870299015424" y="3.1223285361647868e-06"/>
      <point x="60.99084318613582" y="3.1223285361647868e-06"/>
      <point x="49.42771268351898" y="3.1223285361647868e-06" type="curve" smooth="yes"/>
      <point x="-18.072287316481017" y="3.1223285526975185e-06"/>
      <point x="-18.072287316481003" y="90.00000312232855"/>
      <point x="49.427712683519" y="90.00000312232854" type="curve" smooth="yes"/>
      <point x="66.6592684307557" y="90.00000312232854"/>
      <point x="76.75545514616233" y="90.00000312232854"/>
      <point x="88.31858564877912" y="90.00000312232854" type="curve" smooth="yes"/>
      <point x="100.29238947779976" y="90.00000312232854"/>
      <point x="120.05691270716117" y="90.00086054084841"/>
      <point x="121.46559830573314" y="90.00358420150911" type="curve" smooth="yes"/>
      <point x="124.69421185671315" y="90.00982665030425"/>
      <point x="104.90701964238316" y="90.01505336597509"/>
      <point x="130.73594345251428" y="90.02024803145738" type="curve" smooth="yes"/>
      <point x="146.30262951216662" y="90.0233787746251"/>
      <point x="192.24490067577327" y="90.02147304930291"/>
      <point x="227.62373193485433" y="90.01745612470316" type="curve" smooth="yes"/>
      <point x="295.1237314997693" y="90.00979215169303"/>
      <point x="295.11351286908905" y="0.009792731806442832"/>
    </contour>
  </outline>
</glyph>
<glyph name="three" format="2">
  <advance width="346"/>
  <unicode hex="0033"/>
  <outline>
    <contour>
      <point x="82.80358472807191" y="100.08169441024378" type="curve" smooth="yes"/>
      <point x="100.4387401355227" y="86.91873714230519"/>
      <point x="119.1216821265276" y="80.77852178486171"/>
      <point x="141.667015856928" y="81.02062183132963" type="curve" smooth="yes"/>
      <point x="183.83905611918243" y="81.47348063702434"/>
      <point x="221.4323761753352" y="137.05242684475505"/>
      <point x="238.74935657315206" y="200.8138636770007" type="curve" smooth="yes"/>
      <point x="261.150564044368" y="283.2955170790013"/>
      <point x="262.15143618570477" y="294.7721353389011"/>
      <point x="191.601707871301" y="296.01200783654014" type="curve" smooth="yes"/>
      <point x="80.47259876883254" y="297.96504053213374"/>
      <point x="36.46362842967738" y="363.50479384220887"/>
      <point x="85.5574042997425" y="437.8242885746756" type="curve" smooth="yes"/>
      <point x="116.47783186265777" y="484.6324737806724"/>
      <point x="163.10813839446286" y="539.0364111689628"/>
      <point x="201.91921967202472" y="580.6956569290493" type="curve" smooth="yes"/>
      <point x="206.43312936208406" y="585.5408214265849"/>
      <point x="251.89680965100712" y="590.0087796885738"/>
      <point x="244.7505951646234" y="590.0094190941564" type="curve" smooth="yes"/>
      <point x="153.42335018428463" y="590.0175905743722"/>
      <point x="92.6072853857008" y="590.0206652790685"/>
      <point x="53.8362849281732" y="590.0202399580427" type="curve" smooth="yes"/>
      <point x="-13.663715067765239" y="590.0194994777363"/>
      <point x="-13.664702374840331" y="680.019499472321"/>
      <point x="53.83529762109811" y="680.0202399526273" type="curve" smooth="yes"/>
      <point x="79.85234126959752" y="680.0205253617107"/>
      <point x="183.47405654807105" y="680.0149021559137"/>
      <point x="244.75864788992186" y="680.0094187338988" type="curve" smooth="yes"/>
      <point x="390.94050938552033" y="679.9963391519041"/>
      <point x="360.10589521068414" y="618.4588577410832"/>
      <point x="267.7700546935623" y="519.3469199659606" type="curve" smooth="yes"/>
      <point x="232.5321512716975" y="481.52307094142043"/>
      <point x="188.72602192640653" y="430.7170391233413"/>
      <point x="160.65231193537122" y="388.2182924935929" type="curve" smooth="yes"/>
      <point x="158.34357987394006" y="384.72327103237296"/>
      <point x="187.95709744742638" y="386.0899575323754"/>
      <point x="193.18316394152114" y="385.99811230105155" type="curve" smooth="yes"/>
      <point x="322.94673211813017" y="383.71758928244157"/>
      <point x="366.8061239989842" y="328.9354372702738"/>
      <point x="325.6031217708947" y="177.22523355621172" type="curve" smooth="yes"/>
      <point x="293.5378478139834" y="59.16031155803156"/>
      <point x="220.72197086254457" y="-8.135646036390945"/>
      <point x="142.63341308479704" y="-8.974189554649541" type="curve" smooth="yes"/>
      <point x="100.10589053516463" y="-9.430865659272804"/>
      <point x="62.235096957804814" y="3.1279688088243707"/>
      <point x="28.969700303003805" y="27.9574066306864" type="curve" smooth="yes"/>
      <point x="-25.12351553166426" y="68.33281994948743"/>
      <point x="28.710368893403846" y="140.45710772904482"/>
    </contour>
  </outline>
</glyph>
<glyph name="four" format="2">
  <advance width="371"/>
  <unicode hex="0034"/>
  <outline>
    <contour>
      <point x="312" y="166" type="curve" smooth="yes"/>
      <point x="212" y="166"/>
      <point x="136" y="166"/>
      <point x="93" y="166" type="curve" smooth="yes"/>
      <point x="-6" y="166"/>
      <point x="-97" y="229"/>
      <point x="-48" y="338" type="curve" smooth="yes"/>
      <point x="-8" y="425"/>
      <point x="110" y="528"/>
      <point x="139" y="591" type="curve" smooth="yes"/>
      <point x="141" y="597"/>
      <point x="222" y="579"/>
      <point x="222" y="572" type="curve" smooth="yes"/>
      <point x="222" y="462"/>
      <point x="222" y="213"/>
      <point x="222" y="157" type="curve" smooth="yes"/>
      <point x="222" y="114"/>
      <point x="225" y="88"/>
      <point x="239" y="59" type="curve" smooth="yes"/>
      <point x="267" y="-3"/>
      <point x="185" y="-40"/>
      <point x="157" y="21" type="curve" smooth="yes"/>
      <point x="139" y="62"/>
      <point x="132" y="98"/>
      <point x="132" y="157" type="curve" smooth="yes"/>
      <point x="132" y="241"/>
      <point x="132" y="498"/>
      <point x="132" y="572" type="curve" smooth="yes"/>
      <point x="132" y="750"/>
      <point x="285" y="703"/>
      <point x="221" y="555" type="curve" smooth="yes"/>
      <point x="186" y="476"/>
      <point x="66" y="371"/>
      <point x="34" y="300" type="curve" smooth="yes"/>
      <point x="17" y="262"/>
      <point x="58" y="256"/>
      <point x="93" y="256" type="curve" smooth="yes"/>
      <point x="158" y="256"/>
      <point x="245" y="256"/>
      <point x="312" y="256" type="curve" smooth="yes"/>
      <point x="380" y="256"/>
      <point x="380" y="166"/>
    </contour>
  </outline>
</glyph>
<glyph name="five" format="2">
  <advance width="355"/>
  <unicode hex="0035"/>
  <outline>
    <contour>
      <point x="276.2559253708848" y="589.9999941361148" type="curve" smooth="yes"/>
      <point x="100.89344363662097" y="589.9999941361148" type="line"/>
      <point x="145.78017042101425" y="631.8091073341062" type="line"/>
      <point x="125.94674820519498" y="352.80911158351915" type="line"/>
      <point x="66.7697195495032" y="398.670682378489" type="line"/>
      <point x="216.875426192468" y="448.94069588205457"/>
      <point x="343.1451084315549" y="382.77864117967846"/>
      <point x="343.1231674768146" y="204.9944470817024" type="curve" smooth="yes"/>
      <point x="343.0989263380677" y="8.57221445119649"/>
      <point x="190.87528791524272" y="-55.66483927173764"/>
      <point x="45.8789831342968" y="24.63355771557611" type="curve" smooth="yes"/>
      <point x="-13.17068454175201" y="57.33503699936687"/>
      <point x="30.43128783663566" y="136.06792723409865"/>
      <point x="89.48095551268447" y="103.36644795030787" type="curve" smooth="yes"/>
      <point x="179.0926580504006" y="53.739831079253705"/>
      <point x="253.10818647203004" y="83.61121455834353"/>
      <point x="253.1231681622038" y="205.00555428907597" type="curve" smooth="yes"/>
      <point x="253.13698839687515" y="316.98879806210124"/>
      <point x="189.8993580024514" y="344.9935419421805"/>
      <point x="95.35032329210024" y="313.3293143925664" type="curve" smooth="yes"/>
      <point x="64.91362128703446" y="303.13614149449677"/>
      <point x="33.89725728156661" y="327.1734952777625"/>
      <point x="36.17329463640845" y="359.19088518753625" type="curve" smooth="yes"/>
      <point x="56.00671685222772" y="638.1908809381233" type="line" smooth="yes"/>
      <point x="57.68119624177358" y="661.7460565141828"/>
      <point x="77.27882575605804" y="679.9999941361148"/>
      <point x="100.893443636621" y="679.9999941361148" type="curve" smooth="yes"/>
      <point x="276.2559253708848" y="679.9999941361148" type="line" smooth="yes"/>
      <point x="343.7559253708848" y="679.9999941361148"/>
      <point x="343.7559253708848" y="589.9999941361148"/>
    </contour>
  </outline>
</glyph>
<glyph name="six" format="2">
  <advance width="378"/>
  <unicode hex="0036"/>
  <outline>
    <contour>
      <point x="37.0" y="325.0" type="curve" smooth="yes"/>
      <point x="41.0" y="386.0"/>
      <point x="96.0" y="440.0"/>
      <point x="151.0" y="440.0" type="curve" smooth="yes"/>
      <point x="236.0" y="440.0"/>
      <point x="282.0" y="366.0"/>
      <point x="282.0" y="228.0" type="curve" smooth="yes"/>
      <point x="282.0" y="88.0"/>
      <point x="208.0" y="-8.0"/>
      <point x="108.0" y="-8.0" type="curve" smooth="yes"/>
      <point x="23.0" y="-8.0"/>
      <point x="-70.0" y="70.0"/>
      <point x="-70.0" y="314.0" type="curve" smooth="yes"/>
      <point x="-70.0" y="592.0"/>
      <point x="33.0" y="687.0"/>
      <point x="137.0" y="687.0" type="curve" smooth="yes"/>
      <point x="172.0" y="687.0"/>
      <point x="214.0" y="673.0"/>
      <point x="256.0" y="656.0" type="curve" smooth="yes"/>
      <point x="322" y="629"/>
      <point x="279" y="551"/>
      <point x="229.0" y="572.0" type="curve" smooth="yes"/>
      <point x="188.0" y="589.0"/>
      <point x="159.0" y="597.0"/>
      <point x="138.0" y="597.0" type="curve" smooth="yes"/>
      <point x="68.0" y="597.0"/>
      <point x="20.0" y="495.0"/>
      <point x="20.0" y="315.0" type="curve" smooth="yes"/>
      <point x="20.0" y="165.0"/>
      <point x="60.0" y="82.0"/>
      <point x="111.0" y="82.0" type="curve" smooth="yes"/>
      <point x="165.0" y="82.0"/>
      <point x="193.0" y="151.0"/>
      <point x="193.0" y="217.0" type="curve" smooth="yes"/>
      <point x="193.0" y="279.0"/>
      <point x="183.0" y="345.0"/>
      <point x="153.0" y="345.0" type="curve" smooth="yes"/>
      <point x="134.0" y="345.0"/>
      <point x="121.0" y="318.0"/>
      <point x="110.0" y="290.0" type="curve" smooth="yes" identifier="PDtm3NumKH"/>
      <point x="96" y="254"/>
      <point x="33.0" y="261.0"/>
    </contour>
  </outline>
</glyph>
<glyph name="eight" format="2">
  <advance width="379"/>
  <unicode hex="0038"/>
  <outline>
    <contour>
      <point x="27.0" y="0.0" type="curve" smooth="yes"/>
      <point x="-30.0" y="37.0"/>
      <point x="-66.0" y="102.0"/>
      <point x="-59.0" y="205.0" type="curve" smooth="yes"/>
      <point x="-50.0" y="336.0"/>
      <point x="95.0" y="403.0"/>
      <point x="158.0" y="403.0" type="curve" smooth="yes"/>
      <point x="191.0" y="403.0"/>
      <point x="185.0" y="451.0"/>
      <point x="178.0" y="494.0" type="curve" smooth="yes"/>
      <point x="170.0" y="540.0"/>
      <point x="148.0" y="599.0"/>
      <point x="106.0" y="599.0" type="curve" smooth="yes"/>
      <point x="64.0" y="599.0"/>
      <point x="41.0" y="549.0"/>
      <point x="39.0" y="495.0" type="curve" smooth="yes"/>
      <point x="37.0" y="439.0"/>
      <point x="44.0" y="404.0"/>
      <point x="82.0" y="404.0" type="curve" smooth="yes"/>
      <point x="155.0" y="404.0"/>
      <point x="272.0" y="334.0"/>
      <point x="275.0" y="203.0" type="curve" smooth="yes"/>
      <point x="277.0" y="100.0"/>
      <point x="228.0" y="22.0"/>
      <point x="135.0" y="-2.0" type="curve" smooth="yes"/>
      <point x="70.0" y="-19.0"/>
      <point x="47.0" y="68.0"/>
      <point x="112.0" y="85.0" type="curve" smooth="yes"/>
      <point x="166.0" y="99.0"/>
      <point x="186.0" y="144.0"/>
      <point x="185.0" y="201.0" type="curve" smooth="yes"/>
      <point x="184.0" y="276.0"/>
      <point x="137.0" y="314.0"/>
      <point x="82.0" y="314.0" type="curve" smooth="yes"/>
      <point x="-2.0" y="314.0"/>
      <point x="-55.0" y="377.0"/>
      <point x="-51.0" y="497.0" type="curve" smooth="yes"/>
      <point x="-47.0" y="613.0"/>
      <point x="19.0" y="689.0"/>
      <point x="105.0" y="689.0" type="curve" smooth="yes"/>
      <point x="190.0" y="689.0"/>
      <point x="248.0" y="622.0"/>
      <point x="268.0" y="501.0" type="curve" smooth="yes"/>
      <point x="287.0" y="386.0"/>
      <point x="260.0" y="313.0"/>
      <point x="172.0" y="313.0" type="curve" smooth="yes"/>
      <point x="115.0" y="313.0"/>
      <point x="36.0" y="271.0"/>
      <point x="31.0" y="198.0" type="curve" smooth="yes"/>
      <point x="27.0" y="142.0"/>
      <point x="38.0" y="99.0"/>
      <point x="74.0" y="76.0" type="curve" smooth="yes"/>
      <point x="116.0" y="49.0"/>
      <point x="67.0" y="-26.0"/>
    </contour>
  </outline>
</glyph>
<glyph name="nine" format="2">
  <advance width="378"/>
  <unicode hex="0039"/>
  <outline>
    <contour>
      <point x="344.6064877875297" y="526.2958651557819" type="curve" smooth="yes"/>
      <point x="368.85434519663363" y="354.68786750669574"/>
      <point x="287.1588303656703" y="238.99999948215037"/>
      <point x="178.39759433828874" y="238.99999948215037" type="curve" smooth="yes"/>
      <point x="86.30799997771831" y="238.99999948215037"/>
      <point x="10.365933842427541" y="323.8641685816556"/>
      <point x="10.382488688616164" y="458.0055504356656" type="curve" smooth="yes"/>
      <point x="10.39936420399569" y="594.7452656052279"/>
      <point x="81.63906547368147" y="686.9999940294986"/>
      <point x="181.97731024654888" y="686.9999940294986" type="curve" smooth="yes"/>
      <point x="266.8142415052821" y="686.9999940294986"/>
      <point x="362.73784441203134" y="609.8465608669101"/>
      <point x="362.7076263759041" y="364.99444464476306" type="curve" smooth="yes"/>
      <point x="362.66218177915056" y="-3.236159061466507"/>
      <point x="168.8060804957663" y="-59.21273360089476"/>
      <point x="52.99920391804021" y="28.06270169311422" type="curve" smooth="yes"/>
      <point x="-0.9067477917014415" y="68.68779701936546"/>
      <point x="53.260045976633556" y="140.562399299021"/>
      <point x="107.1659976863752" y="99.93730397276975" type="curve" smooth="yes"/>
      <point x="183.1338389446536" y="42.68572608643857"/>
      <point x="272.67781598258847" y="123.45094926323256"/>
      <point x="272.7076270612933" y="365.00555185213665" type="curve" smooth="yes"/>
      <point x="272.7258071855599" y="512.3163129203109"/>
      <point x="233.01788568953936" y="596.9999940294986"/>
      <point x="181.97731024654888" y="596.9999940294986" type="curve" smooth="yes"/>
      <point x="128.14102596848755" y="596.9999940294986"/>
      <point x="100.39154252720596" y="531.3618635437845"/>
      <point x="100.38248800322695" y="457.994443228292" type="curve" smooth="yes"/>
      <point x="100.37384205183356" y="387.9376239656699"/>
      <point x="130.30278586890816" y="328.9999994821504"/>
      <point x="178.39759433828874" y="328.9999994821504" type="curve" smooth="yes"/>
      <point x="238.95708169296043" y="328.9999994821504"/>
      <point x="268.9931662304251" y="418.150850993166"/>
      <point x="255.4916847487802" y="513.7041266195479" type="curve" smooth="yes"/>
      <point x="246.04788084660456" y="580.5402288986099"/>
      <point x="335.1626838853541" y="593.131967434844"/>
    </contour>
  </outline>
</glyph>
<glyph name="colon" format="2">
  <advance width="184"/>
  <unicode hex="003A"/>
  <outline>
    <contour>
      <point x="-30.0" y="16.0" type="curve" smooth="yes"/>
      <point x="-43.0" y="43.0"/>
      <point x="-44.0" y="81.0"/>
      <point x="-31.0" y="109.0" type="curve" smooth="yes"/>
      <point x="-2.0" y="170.0"/>
      <point x="76.0" y="122.0"/>
      <point x="55.0" y="79.0" type="curve" smooth="yes"/>
      <point x="46.0" y="59.0"/>
      <point x="46.0" y="67.0"/>
      <point x="55.0" y="48.0" type="curve" smooth="yes"/>
      <point x="77.0" y="5.0"/>
      <point x="0.0" y="-44.0"/>
    </contour>
    <contour>
      <point x="-30.0" y="373.0" type="curve" smooth="yes"/>
      <point x="-43.0" y="400.0"/>
      <point x="-44.0" y="438.0"/>
      <point x="-31.0" y="466.0" type="curve" smooth="yes"/>
      <point x="-2.0" y="527.0"/>
      <point x="66.0" y="489.0"/>
      <point x="55.0" y="446.0" type="curve" smooth="yes"/>
      <point x="50" y="425"/>
      <point x="46.0" y="421.0"/>
      <point x="55.0" y="402.0" type="curve" smooth="yes"/>
      <point x="77.0" y="359.0"/>
      <point x="0.0" y="313.0"/>
    </contour>
  </outline>
</glyph>
<glyph name="semicolon" format="2">
  <advance width="197"/>
  <unicode hex="003B"/>
  <outline>
    <contour>
      <point x="9" y="356" type="curve" smooth="yes"/>
      <point x="-63" y="371"/>
      <point x="-63" y="473"/>
      <point x="9" y="488" type="curve" smooth="yes"/>
      <point x="75" y="502"/>
      <point x="93" y="414"/>
      <point x="27" y="400" type="curve" smooth="yes"/>
      <point x="25" y="400"/>
      <point x="25" y="444"/>
      <point x="27" y="444" type="curve" smooth="yes"/>
      <point x="93" y="430"/>
      <point x="75" y="342"/>
    </contour>
    <contour>
      <point x="-45" y="-97" type="curve" smooth="yes"/>
      <point x="-26" y="-51"/>
      <point x="-9" y="28"/>
      <point x="-29" y="53" type="curve" smooth="yes"/>
      <point x="-71" y="106"/>
      <point x="-1" y="162"/>
      <point x="41" y="109" type="curve" smooth="yes"/>
      <point x="82" y="58"/>
      <point x="77" y="-38"/>
      <point x="39" y="-131" type="curve" smooth="yes"/>
      <point x="13" y="-194"/>
      <point x="-70" y="-159"/>
    </contour>
  </outline>
</glyph>
<glyph name="less" format="2">
  <advance width="317"/>
  <unicode hex="003C"/>
  <outline>
    <contour>
      <point x="223.0" y="450.0" type="curve" smooth="yes"/>
      <point x="186" y="404"/>
      <point x="148" y="359"/>
      <point x="89.0" y="321.0" type="curve" smooth="yes"/>
      <point x="70" y="309"/>
      <point x="41" y="299"/>
      <point x="53.0" y="287.0" type="curve" smooth="yes"/>
      <point x="88" y="253"/>
      <point x="178" y="216"/>
      <point x="230.0" y="174.0" type="curve" smooth="yes"/>
      <point x="279" y="133"/>
      <point x="218" y="66"/>
      <point x="174.0" y="102.0" type="curve" smooth="yes"/>
      <point x="128" y="141"/>
      <point x="51" y="161"/>
      <point x="-29.0" y="239.0" type="curve" smooth="yes"/>
      <point x="-72" y="282"/>
      <point x="-62.0" y="333.0"/>
      <point x="-21.0" y="359.0" type="curve" smooth="yes"/>
      <point x="65.0" y="416.0"/>
      <point x="118" y="463"/>
      <point x="154.0" y="507.0" type="curve" smooth="yes"/>
      <point x="187" y="549"/>
      <point x="259" y="495"/>
    </contour>
  </outline>
</glyph>
<glyph name="equal" format="2">
  <advance width="346"/>
  <unicode hex="003D"/>
  <outline>
    <contour>
      <point x="205" y="383" type="curve" smooth="yes"/>
      <point x="67" y="383"/>
      <point x="5" y="383"/>
      <point x="-29" y="383" type="curve" smooth="yes"/>
      <point x="-96" y="383"/>
      <point x="-96" y="473"/>
      <point x="-29" y="473" type="curve" smooth="yes"/>
      <point x="22" y="473"/>
      <point x="113" y="473"/>
      <point x="205" y="473" type="curve" smooth="yes"/>
      <point x="273" y="473"/>
      <point x="273" y="383"/>
    </contour>
    <contour>
      <point x="205" y="143" type="curve" smooth="yes"/>
      <point x="67" y="143"/>
      <point x="5" y="143"/>
      <point x="-29" y="143" type="curve" smooth="yes"/>
      <point x="-96" y="143"/>
      <point x="-96" y="233"/>
      <point x="-29" y="233" type="curve" smooth="yes"/>
      <point x="22" y="233"/>
      <point x="113" y="233"/>
      <point x="205" y="233" type="curve" smooth="yes"/>
      <point x="273" y="233"/>
      <point x="273" y="143"/>
    </contour>
  </outline>
</glyph>
<glyph name="greater" format="2">
  <advance width="317"/>
  <unicode hex="003E"/>
  <outline>
    <contour>
      <point x="-43" y="169" type="curve" smooth="yes"/>
      <point x="-12" y="208"/>
      <point x="24" y="252"/>
      <point x="93" y="298" type="curve" smooth="yes"/>
      <point x="98" y="301"/>
      <point x="159" y="322"/>
      <point x="155" y="326" type="curve" smooth="yes"/>
      <point x="117" y="364"/>
      <point x="0" y="398"/>
      <point x="-51" y="440" type="curve" smooth="yes"/>
      <point x="-103" y="484"/>
      <point x="-45" y="553"/>
      <point x="7" y="510" type="curve" smooth="yes"/>
      <point x="43" y="479"/>
      <point x="166" y="442"/>
      <point x="219" y="390" type="curve" smooth="yes"/>
      <point x="296" y="313"/>
      <point x="249" y="293"/>
      <point x="143" y="222" type="curve" smooth="yes"/>
      <point x="84" y="184"/>
      <point x="54" y="146"/>
      <point x="27" y="113" type="curve" smooth="yes"/>
      <point x="-15" y="60"/>
      <point x="-85" y="117"/>
    </contour>
  </outline>
</glyph>
<glyph name="question" format="2">
  <advance width="361"/>
  <unicode hex="003F"/>
  <outline>
    <contour>
      <point x="-45.528623811296086" y="649.8290898318442" type="curve" smooth="yes"/>
      <point x="-0.15465196858930597" y="676.4631353223549"/>
      <point x="45.20825979507727" y="688.0209379651853"/>
      <point x="85.44264069462028" y="688.0209379651853" type="curve" smooth="yes"/>
      <point x="181.76427013971198" y="688.0209379651853"/>
      <point x="248.69734502770143" y="621.6605300230127"/>
      <point x="270.84558715463083" y="518.4612055127883" type="curve" smooth="yes"/>
      <point x="286.84495992891493" y="443.91242401442105"/>
      <point x="279.84584120609424" y="377.99823537024423"/>
      <point x="214.38640052488364" y="339.27745342617976" type="curve" smooth="yes"/>
      <point x="187.33323706869498" y="323.2748779048632"/>
      <point x="119.79209154867081" y="286.9188852198801"/>
      <point x="119.78951177692795" y="266.0153901035368" type="curve" smooth="yes"/>
      <point x="119.78118137139765" y="198.5153906175787"/>
      <point x="29.781182056786847" y="198.5264978249524"/>
      <point x="29.78951246231715" y="266.0264973109105" type="curve" smooth="yes"/>
      <point x="29.797770214051255" y="332.9377942200346"/>
      <point x="81.96935203261609" y="365.51635723793254"/>
      <point x="168.56550460295105" y="416.7399959671487" type="curve" smooth="yes"/>
      <point x="195.91431192385267" y="432.9174517119978"/>
      <point x="189.53383362954173" y="468.42947407428767"/>
      <point x="182.8493316126345" y="499.57578757757506" type="curve" smooth="yes"/>
      <point x="170.28728830378682" y="558.1083960126714"/>
      <point x="140.07435700572273" y="598.0209379651853"/>
      <point x="85.44264069462028" y="598.0209379651853" type="curve" smooth="yes"/>
      <point x="59.261032018030306" y="598.0209379651853"/>
      <point x="29.557412337643456" y="589.5442866743058"/>
      <point x="0.03133169893641252" y="572.2127870733023" type="curve" smooth="yes"/>
      <point x="-58.18089536997001" y="538.0428204406279"/>
      <point x="-103.7408508802025" y="615.6591231991698"/>
    </contour>
    <contour>
      <point x="35.297888833191564" y="15.739345103953667" type="curve" smooth="yes"/>
      <point x="22.12710710787202" y="41.825787526901564"/>
      <point x="21.59621612349588" y="81.2719236305506"/>
      <point x="34.77366580985233" y="109.21494771161508" type="curve" smooth="yes"/>
      <point x="63.56466779548953" y="170.26679620666914"/>
      <point x="144.96713245556163" y="131.87879355915288"/>
      <point x="116.17613046992443" y="70.82694506409882" type="curve" smooth="yes"/>
      <point x="115.30701354317699" y="68.98396665845873"/>
      <point x="114.7699016555668" y="58.02307712807194"/>
      <point x="115.63857879783836" y="56.3025493166943" type="curve" smooth="yes"/>
      <point x="146.06098195739384" y="-3.952968156790817"/>
      <point x="65.72029199274704" y="-44.516172369531446"/>
    </contour>
  </outline>
</glyph>
<glyph name="at" format="2">
  <advance width="676"/>
  <unicode hex="0040"/>
  <outline>
    <contour>
      <point x="401.0" y="428.0" type="curve" smooth="yes"/>
      <point x="401.0" y="392.0"/>
      <point x="401.0" y="310.0"/>
      <point x="401.0" y="263.0" type="curve" smooth="yes"/>
      <point x="401.0" y="136.0"/>
      <point x="338.0" y="57.0"/>
      <point x="256.0" y="57.0" type="curve" smooth="yes"/>
      <point x="173.0" y="57.0"/>
      <point x="106.0" y="140.0"/>
      <point x="106.0" y="266.0" type="curve" smooth="yes"/>
      <point x="106.0" y="395.0"/>
      <point x="179.0" y="477.0"/>
      <point x="277.0" y="477.0" type="curve" smooth="yes"/>
      <point x="375.0" y="477.0"/>
      <point x="468.0" y="387.0"/>
      <point x="468.0" y="278.0" type="curve" smooth="yes"/>
      <point x="468.0" y="214.0"/>
      <point x="447.0" y="170.0"/>
      <point x="454.0" y="170.0" type="curve" smooth="yes"/>
      <point x="465.0" y="170.0"/>
      <point x="485.0" y="225.0"/>
      <point x="485.0" y="309.0" type="curve" smooth="yes"/>
      <point x="485.0" y="476.0"/>
      <point x="400.0" y="599.0"/>
      <point x="269.0" y="599.0" type="curve" smooth="yes"/>
      <point x="132.0" y="599.0"/>
      <point x="39.0" y="450.0"/>
      <point x="39.0" y="260.0" type="curve" smooth="yes"/>
      <point x="39.0" y="67.0"/>
      <point x="128.0" y="-64.0"/>
      <point x="260.0" y="-64.0" type="curve"/>
      <point x="296.0" y="-64.0"/>
      <point x="342.0" y="-52.0"/>
      <point x="406.0" y="-33.0" type="curve" smooth="yes"/>
      <point x="473.0" y="-13.0"/>
      <point x="500.0" y="-99.0"/>
      <point x="430.0" y="-120.0" type="curve" smooth="yes"/>
      <point x="353.0" y="-142.0"/>
      <point x="305.0" y="-154.0"/>
      <point x="260.0" y="-154.0" type="curve"/>
      <point x="86.0" y="-154.0"/>
      <point x="-51.0" y="4.0"/>
      <point x="-51.0" y="260.0" type="curve" smooth="yes"/>
      <point x="-51.0" y="512.0"/>
      <point x="92.0" y="689.0"/>
      <point x="273.0" y="689.0" type="curve" smooth="yes"/>
      <point x="450.0" y="689.0"/>
      <point x="575.0" y="556.0"/>
      <point x="575.0" y="313.0" type="curve" smooth="yes"/>
      <point x="575.0" y="141.0"/>
      <point x="500.0" y="72.0"/>
      <point x="437.0" y="72.0" type="curve" smooth="yes"/>
      <point x="389.0" y="72.0"/>
      <point x="360.0" y="100.0"/>
      <point x="381.0" y="272.0" type="curve" smooth="yes"/>
      <point x="391.0" y="356.0"/>
      <point x="332.0" y="387.0"/>
      <point x="278.0" y="387.0" type="curve" smooth="yes"/>
      <point x="225.0" y="387.0"/>
      <point x="196.0" y="332.0"/>
      <point x="196.0" y="269.0" type="curve" smooth="yes"/>
      <point x="196.0" y="206.0"/>
      <point x="218.0" y="147.0"/>
      <point x="256.0" y="147.0" type="curve" smooth="yes"/>
      <point x="294.0" y="147.0"/>
      <point x="311.0" y="203.0"/>
      <point x="311.0" y="267.0" type="curve" smooth="yes"/>
      <point x="311.0" y="329.0"/>
      <point x="311.0" y="374.0"/>
      <point x="311.0" y="428.0" type="curve" smooth="yes"/>
      <point x="311.0" y="495.0"/>
      <point x="401.0" y="495.0"/>
    </contour>
  </outline>
</glyph>
<glyph name="A" format="2">
  <advance width="461"/>
  <unicode hex="0041"/>
  <anchor x="436.0" y="0" name="ogonek"/>
  <anchor x="230.0" y="50" name="below"/>
  <anchor x="230.0" y="680" name="above"/>
  <outline>
    <contour>
      <point x="-59.0" y="36.0" type="curve" smooth="yes"/>
      <point x="-64.0" y="79.0"/>
      <point x="-64.0" y="114.0"/>
      <point x="-55.0" y="158.0" type="curve" smooth="yes"/>
      <point x="-41.0" y="228.0"/>
      <point x="4.0" y="263.0"/>
      <point x="62.0" y="263.0" type="curve" smooth="yes"/>
      <point x="91.0" y="263.0"/>
      <point x="212.0" y="263.0"/>
      <point x="256.0" y="263.0" type="curve" smooth="yes"/>
      <point x="324.0" y="263.0"/>
      <point x="324.0" y="173.0"/>
      <point x="256.0" y="173.0" type="curve" smooth="yes"/>
      <point x="211.0" y="173.0"/>
      <point x="201.0" y="173.0"/>
      <point x="189.0" y="173.0" type="curve" smooth="yes"/>
      <point x="109.0" y="173.0"/>
      <point x="25.0" y="245.0"/>
      <point x="25.0" y="360.0" type="curve" smooth="yes"/>
      <point x="25.0" y="436.0"/>
      <point x="88.0" y="557.0"/>
      <point x="104.0" y="632.0" type="curve" smooth="yes"/>
      <point x="124.0" y="726.0"/>
      <point x="202.0" y="729.0"/>
      <point x="221.0" y="631.0" type="curve" smooth="yes"/>
      <point x="244.0" y="514.0"/>
      <point x="299.0" y="278.0"/>
      <point x="328.0" y="171.0" type="curve" smooth="yes"/>
      <point x="336.0" y="142.0"/>
      <point x="344.0" y="97.0"/>
      <point x="365.0" y="62.0" type="curve" smooth="yes"/>
      <point x="399.0" y="7.0"/>
      <point x="325.0" y="-44.0"/>
      <point x="285.0" y="20.0" type="curve" smooth="yes"/>
      <point x="261.0" y="58.0"/>
      <point x="251.0" y="112.0"/>
      <point x="242.0" y="145.0" type="curve" smooth="yes"/>
      <point x="211.0" y="260.0"/>
      <point x="163.0" y="456.0"/>
      <point x="140.0" y="561.0" type="curve" smooth="yes"/>
      <point x="134.0" y="586.0"/>
      <point x="190.0" y="582.0"/>
      <point x="184.0" y="557.0" type="curve" smooth="yes"/>
      <point x="169.0" y="493.0"/>
      <point x="115.0" y="421.0"/>
      <point x="115.0" y="353.0" type="curve" smooth="yes"/>
      <point x="115.0" y="309.0"/>
      <point x="152.0" y="263.0"/>
      <point x="188.0" y="263.0" type="curve" smooth="yes"/>
      <point x="207.0" y="263.0"/>
      <point x="226.0" y="263.0"/>
      <point x="256.0" y="263.0" type="curve" smooth="yes"/>
      <point x="324.0" y="263.0"/>
      <point x="324.0" y="173.0"/>
      <point x="256.0" y="173.0" type="curve" smooth="yes"/>
      <point x="194.0" y="173.0"/>
      <point x="102.0" y="173.0"/>
      <point x="65.0" y="173.0" type="curve" smooth="yes"/>
      <point x="42.0" y="173.0"/>
      <point x="38.0" y="164.0"/>
      <point x="33.0" y="140.0" type="curve" smooth="yes"/>
      <point x="26.0" y="107.0"/>
      <point x="26.0" y="82.0"/>
      <point x="30.0" y="43.0" type="curve" smooth="yes"/>
      <point x="37.0" y="-20.0"/>
      <point x="-52.0" y="-33.0"/>
    </contour>
  </outline>
</glyph>
<glyph name="C" format="2">
  <advance width="424"/>
  <unicode hex="0043"/>
  <outline>
    <contour>
      <point x="413.0440522811861" y="46.3847972318798" type="curve" smooth="yes"/>
      <point x="355.31858181021516" y="8.531751144099573"/>
      <point x="296.0253157990451" y="-7.356306064578577"/>
      <point x="252.5299765414639" y="-7.9745082397204925" type="curve" smooth="yes"/>
      <point x="128.37193121060776" y="-9.739174868261065"/>
      <point x="21.63815985921791" y="115.48695712799012"/>
      <point x="21.665871050805166" y="340.026496183826" type="curve" smooth="yes"/>
      <point x="21.693512686989617" y="564.0024384692283"/>
      <point x="131.2825458402081" y="688.9043046279295"/>
      <point x="255.1150878363931" y="688.0197900592404" type="curve" smooth="yes"/>
      <point x="297.75080526062237" y="687.7152504559962"/>
      <point x="354.9086688287312" y="673.6370627435548"/>
      <point x="412.5672681216116" y="636.9954450188427" type="curve" smooth="yes"/>
      <point x="469.5368816784543" y="600.7916726852307"/>
      <point x="421.26518523363825" y="524.8321879427738"/>
      <point x="364.2955716767956" y="561.0359602763858" type="curve" smooth="yes"/>
      <point x="324.47960091608684" y="586.3387181970479"/>
      <point x="283.91421497755977" y="597.8117869723195"/>
      <point x="254.47224970015068" y="598.0220858711302" type="curve" smooth="yes"/>
      <point x="171.68351364155714" y="598.6134315867779"/>
      <point x="111.68435029068773" y="489.755391648062"/>
      <point x="111.66587036541596" y="340.0153889764524" type="curve" smooth="yes"/>
      <point x="111.64749157406358" y="191.09485895627947"/>
      <point x="168.90604737989932" y="80.84602929282674"/>
      <point x="251.25092968742888" y="82.0164026299067" type="curve" smooth="yes"/>
      <point x="281.21150530847007" y="82.44223430138177"/>
      <point x="323.92905913493405" y="95.57258756341716"/>
      <point x="363.69167170046916" y="121.6466237511457" type="curve" smooth="yes"/>
      <point x="420.13804158991854" y="158.66090918668343"/>
      <point x="469.4904221706355" y="83.39908266741753"/>
    </contour>
  </outline>
</glyph>
<glyph name="D" format="2">
  <advance width="466"/>
  <unicode hex="0044"/>
  <outline>
    <contour>
      <point x="80.6713711956787" y="25.833583308270676" type="curve" smooth="yes"/>
      <point x="64.765445881581" y="59.58790913129394"/>
      <point x="55.170844557251606" y="92.40026212596726"/>
      <point x="55.18375683848983" y="197.02649836184054" type="curve" smooth="yes"/>
      <point x="55.22065744937221" y="496.02649380781014" type="line" smooth="yes"/>
      <point x="55.23915488022209" y="645.9083414963255"/>
      <point x="133.87391670017536" y="680.0109897103464"/>
      <point x="174.4840229819743" y="680.0109897103464" type="curve" smooth="yes"/>
      <point x="209.26719788553086" y="680.0109897103464"/>
      <point x="202.87582426310473" y="680.0160023236942"/>
      <point x="232.45927271324317" y="680.0209374608752" type="curve" smooth="yes"/>
      <point x="321.2914192437008" y="680.0357565185635"/>
      <point x="456.35450368558634" y="551.6272769690045"/>
      <point x="456.3285114606932" y="341.01626162584313" type="curve" smooth="yes"/>
      <point x="456.30298026880405" y="134.14092606745078"/>
      <point x="349.3512600906807" y="0.024570743405863498"/>
      <point x="226.03132699456265" y="0.02094709267326067" type="curve" smooth="yes"/>
      <point x="209.7830127501106" y="0.0204696498597865"/>
      <point x="198.46789534389512" y="0.01868027361083558"/>
      <point x="192.10985916552738" y="0.015715976317508762" type="curve" smooth="yes"/>
      <point x="124.60986650172855" y="-0.015754440012780133"/>
      <point x="124.56790594662151" y="89.98423577838565"/>
      <point x="192.06789861042034" y="90.01570619471595" type="curve" smooth="yes"/>
      <point x="198.43608846488087" y="90.01867522594183"/>
      <point x="209.75441989471733" y="90.02046884853742"/>
      <point x="226.02868242148477" y="90.02094705381901" type="curve" smooth="yes"/>
      <point x="306.5597141619789" y="90.0233133892916"/>
      <point x="366.3118396327849" y="205.93254842658223"/>
      <point x="366.3285121460824" y="341.0273688332167" type="curve" smooth="yes"/>
      <point x="366.34436144322507" y="469.45179488475463"/>
      <point x="286.64152668025366" y="590.0299749403551"/>
      <point x="232.47428659306237" y="590.0209387131896" type="curve" smooth="yes"/>
      <point x="202.12695685670127" y="590.0158761446532"/>
      <point x="208.396806614373" y="590.0109897103464"/>
      <point x="174.4840229819743" y="590.0109897103464" type="curve" smooth="yes"/>
      <point x="160.96533168536752" y="590.0109897103464"/>
      <point x="145.22681437055772" y="545.9095291029449"/>
      <point x="145.22065676398302" y="496.01538660043656" type="curve" smooth="yes"/>
      <point x="145.1837561531006" y="197.01539115446695" type="line" smooth="yes"/>
      <point x="145.17385671275028" y="116.80174295470758"/>
      <point x="149.89045713323122" y="90.07621998586868"/>
      <point x="162.0850303429595" y="64.19783886276278" type="curve" smooth="yes"/>
      <point x="190.8582220088286" y="3.1375945023021714"/>
      <point x="109.4445628615478" y="-35.22666105218993"/>
    </contour>
  </outline>
</glyph>
<glyph name="E" format="2">
  <advance width="369"/>
  <unicode hex="0045"/>
  <anchor x="334.0" y="0" name="ogonek"/>
  <anchor x="193.0" y="0" name="below"/>
  <anchor x="193.0" y="680" name="above"/>
  <outline>
    <contour>
      <point x="233.0" y="590.0" type="curve" smooth="yes"/>
      <point x="191" y="590"/>
      <point x="147.0" y="590.0"/>
      <point x="123.0" y="590.0" type="curve" smooth="yes"/>
      <point x="93.0" y="590.0"/>
      <point x="84.0" y="590.0"/>
      <point x="68.0" y="590.0" type="curve" smooth="yes"/>
      <point x="48.0" y="590.0"/>
      <point x="48.0" y="565.0"/>
      <point x="48.0" y="542.0" type="curve" smooth="yes"/>
      <point x="48.0" y="509.0"/>
      <point x="51" y="467"/>
      <point x="77.0" y="434.0" type="curve" smooth="yes"/>
      <point x="91" y="416"/>
      <point x="121.0" y="395.0"/>
      <point x="131.0" y="395.0" type="curve" smooth="yes"/>
      <point x="172.0" y="395.0"/>
      <point x="203" y="395"/>
      <point x="255.0" y="395.0" type="curve" smooth="yes"/>
      <point x="323" y="395"/>
      <point x="323.0" y="305.0"/>
      <point x="255.0" y="305.0" type="curve" smooth="yes"/>
      <point x="205.0" y="305.0"/>
      <point x="77.0" y="305.0"/>
      <point x="52.0" y="305.0" type="curve" smooth="yes"/>
      <point x="45.0" y="305.0"/>
      <point x="48.0" y="293.0"/>
      <point x="48.0" y="284.0" type="curve" smooth="yes"/>
      <point x="48.0" y="219.0"/>
      <point x="48" y="160"/>
      <point x="48.0" y="129.0" type="curve" smooth="yes"/>
      <point x="48" y="95"/>
      <point x="44.0" y="90.0"/>
      <point x="61.0" y="90.0" type="curve" smooth="yes"/>
      <point x="83.0" y="90.0"/>
      <point x="102.0" y="90.0"/>
      <point x="118.0" y="90.0" type="curve" smooth="yes"/>
      <point x="139.0" y="90.0"/>
      <point x="162" y="90"/>
      <point x="234.0" y="90.0" type="curve" smooth="yes"/>
      <point x="304" y="90"/>
      <point x="304.0" y="0.0"/>
      <point x="234.0" y="0.0" type="curve" smooth="yes"/>
      <point x="186.0" y="0.0"/>
      <point x="139.0" y="0.0"/>
      <point x="118.0" y="0.0" type="curve" smooth="yes"/>
      <point x="84.0" y="0.0"/>
      <point x="76.0" y="0.0"/>
      <point x="58.0" y="0.0" type="curve" smooth="yes"/>
      <point x="0.0" y="0"/>
      <point x="-42" y="35"/>
      <point x="-42.0" y="116.0" type="curve" smooth="yes"/>
      <point x="-42" y="157"/>
      <point x="-42.0" y="249.0"/>
      <point x="-42.0" y="298.0" type="curve" smooth="yes"/>
      <point x="-42.0" y="362.0"/>
      <point x="-8.0" y="395.0"/>
      <point x="48.0" y="395.0" type="curve" smooth="yes"/>
      <point x="94.0" y="395.0"/>
      <point x="205" y="395"/>
      <point x="255.0" y="395.0" type="curve" smooth="yes"/>
      <point x="323.0" y="395.0"/>
      <point x="323.0" y="305.0"/>
      <point x="255.0" y="305.0" type="curve" smooth="yes"/>
      <point x="202" y="305"/>
      <point x="158.0" y="305.0"/>
      <point x="134.0" y="305.0" type="curve" smooth="yes"/>
      <point x="94.0" y="305.0"/>
      <point x="43" y="330"/>
      <point x="-11.0" y="409.0" type="curve" smooth="yes"/>
      <point x="-32" y="440"/>
      <point x="-42.0" y="495.0"/>
      <point x="-42.0" y="539.0" type="curve" smooth="yes"/>
      <point x="-42.0" y="646.0"/>
      <point x="-9.0" y="680.0"/>
      <point x="59.0" y="680.0" type="curve" smooth="yes"/>
      <point x="93.0" y="680.0"/>
      <point x="109.0" y="680.0"/>
      <point x="123.0" y="680.0" type="curve" smooth="yes"/>
      <point x="146.0" y="680.0"/>
      <point x="168.0" y="680.0"/>
      <point x="233.0" y="680.0" type="curve" smooth="yes"/>
      <point x="305.0" y="680.0"/>
      <point x="305" y="590"/>
    </contour>
  </outline>
</glyph>
<glyph name="F" format="2">
  <advance width="355"/>
  <unicode hex="0046"/>
  <outline>
    <contour>
      <point x="-41.81835732492628" y="116.02649959554107" type="curve" smooth="yes"/>
      <point x="-41.79661338687262" y="292.21429767164915"/>
      <point x="-49.76405597827963" y="462.84934903801576"/>
      <point x="-41.58487531324117" y="554.0409533603352" type="curve" smooth="yes"/>
      <point x="-33.694856540328864" y="642.0086239010503"/>
      <point x="21.414336502452752" y="680.0139567700598"/>
      <point x="91.63404111193671" y="680.0139567700598" type="curve" smooth="yes"/>
      <point x="127.28572984990123" y="680.0139567700598"/>
      <point x="171.3421497245251" y="680.0209380870324"/>
      <point x="213.96351468800356" y="680.0209380870324" type="curve" smooth="yes"/>
      <point x="281.46351468800356" y="680.0209380870324"/>
      <point x="281.46351468800356" y="590.0209380870324"/>
      <point x="213.96351468800356" y="590.0209380870324" type="curve" smooth="yes"/>
      <point x="155.65191326639317" y="590.0209380870324"/>
      <point x="117.69404836519833" y="590.0139567700598"/>
      <point x="91.63404111193671" y="590.0139567700598" type="curve" smooth="yes"/>
      <point x="63.12682041902401" y="590.0139567700598"/>
      <point x="51.25840803671863" y="581.7133199778602"/>
      <point x="48.05528282163111" y="546.0009254029776" type="curve" smooth="yes"/>
      <point x="40.46014126876191" y="461.3209101758048"/>
      <point x="48.20183328930212" y="279.6223991384072"/>
      <point x="48.18164198968451" y="116.01539238816751" type="curve" smooth="yes"/>
      <point x="48.17331158415432" y="48.51539290220941"/>
      <point x="-41.82668773045647" y="48.52650010958297"/>
    </contour>
    <contour>
      <point x="48.181518576270165" y="115.01539240339838" type="curve" smooth="yes"/>
      <point x="48.180587792897654" y="107.47339736625558"/>
      <point x="42.32568639863572" y="102.53915518216164"/>
      <point x="42.32660787417451" y="110.00573026893298" type="curve" smooth="yes"/>
      <point x="42.33256140776793" y="158.24630067604468"/>
      <point x="42.336315481333145" y="188.66498351227366"/>
      <point x="42.34055358999292" y="223.00572854784465" type="curve" smooth="yes"/>
      <point x="42.34314250460743" y="243.98330695197012"/>
      <point x="-0.24212171156247872" y="375.00586990219716"/>
      <point x="87.34691274814114" y="375.0191968823142" type="curve" smooth="yes"/>
      <point x="110.68527256926969" y="375.0227478959682"/>
      <point x="171.49626455617883" y="375.02111751188664"/>
      <point x="206.1501923505478" y="375.0191973341235" type="curve" smooth="yes"/>
      <point x="273.6501922469258" y="375.0154571521289"/>
      <point x="273.6452053375996" y="285.01545729029147"/>
      <point x="206.14520544122155" y="285.01919747228607" type="curve" smooth="yes"/>
      <point x="163.92789400484017" y="285.0215367379277"/>
      <point x="115.79267379941817" y="285.02352396327444"/>
      <point x="87.36060656494826" y="285.01919792409535" type="curve" smooth="yes"/>
      <point x="82.38370226002142" y="285.0184406705747"/>
      <point x="132.3849969353093" y="583.1177916821063"/>
      <point x="132.34055290460373" y="222.994621340471" type="curve" smooth="yes"/>
      <point x="132.3342372095922" y="171.81951245899907"/>
      <point x="132.33547923653947" y="181.88346649029367"/>
      <point x="132.32660718878532" y="109.99462306155951" type="curve" smooth="yes"/>
      <point x="132.3070027774795" y="-48.856917632832065"/>
      <point x="-41.8382831740033" y="-45.42960210073468"/>
      <point x="-41.818480738340625" y="115.02649961077196" type="curve" smooth="yes"/>
      <point x="-41.810150332810494" y="182.52649909673005"/>
      <point x="48.189848981800296" y="182.51539188935647"/>
    </contour>
  </outline>
</glyph>
<glyph name="G" format="2">
  <advance width="461"/>
  <unicode hex="0047"/>
  <outline>
    <contour>
      <point x="289.0723891088996" y="568.8590932975299" type="curve" smooth="yes"/>
      <point x="241.85969013213423" y="589.7284068967354"/>
      <point x="205.82852838462458" y="601.4005276979328"/>
      <point x="176.32137665083974" y="601.0245897235312" type="curve" smooth="yes"/>
      <point x="78.47383587368438" y="599.7779561408728"/>
      <point x="23.444442888675706" y="476.97152570339364"/>
      <point x="23.42766407738678" y="341.01538896122156" type="curve" smooth="yes"/>
      <point x="23.410838618364433" y="204.68127278330866"/>
      <point x="74.17681703666737" y="80.0209472255548"/>
      <point x="170.01583761685316" y="80.02094722555483" type="curve" smooth="yes"/>
      <point x="214.53514027673518" y="80.02094722555486"/>
      <point x="286.2941941406523" y="106.75959534459201"/>
      <point x="298.96667658097635" y="131.5163063680521" type="curve" smooth="yes"/>
      <point x="314.73487481961877" y="162.3207465393437"/>
      <point x="315.6352200482464" y="191.7733284774743"/>
      <point x="310.5136544304868" y="244.67314081580344" type="curve" smooth="yes"/>
      <point x="308.2129781084222" y="268.43644968886065"/>
      <point x="304.61793650904656" y="275.01570689702726"/>
      <point x="293.79469682448524" y="275.01570689702726" type="curve" smooth="yes"/>
      <point x="259.33158533001193" y="275.01570689702726"/>
      <point x="225.83737256694963" y="275.01570689702726"/>
      <point x="209.6489898632861" y="275.01570689702726" type="curve" smooth="yes"/>
      <point x="142.1489898632861" y="275.01570689702726"/>
      <point x="142.1489898632861" y="365.01570689702726"/>
      <point x="209.6489898632861" y="365.01570689702726" type="curve" smooth="yes"/>
      <point x="233.77316790941742" y="365.01570689702726"/>
      <point x="270.6684358192515" y="365.01570689702726"/>
      <point x="293.79469682448524" y="365.01570689702726" type="curve" smooth="yes"/>
      <point x="335.0838090357679" y="365.01570689702726"/>
      <point x="391.318042399905" y="343.99968421500495"/>
      <point x="400.09479368621965" y="253.34605783633276" type="curve" smooth="yes"/>
      <point x="407.49965750300817" y="176.86243241119476"/>
      <point x="401.8787797451834" y="135.04512095080884"/>
      <point x="379.0807977788121" y="90.5074343438366" type="curve" smooth="yes"/>
      <point x="353.08688315137977" y="39.72623690834959"/>
      <point x="261.3342480438008" y="-9.979052774445133"/>
      <point x="170.01583761685316" y="-9.979052774445165" type="curve" smooth="yes"/>
      <point x="26.65925857420746" y="-9.979052774445208"/>
      <point x="-66.59750285926002" y="137.09711141746473"/>
      <point x="-66.57233523722401" y="341.02649616859514" type="curve" smooth="yes"/>
      <point x="-66.54757396521107" y="541.6632889503072"/>
      <point x="30.776652560339077" y="689.1775709706138"/>
      <point x="175.17481827415315" y="691.0172861154543" type="curve" smooth="yes"/>
      <point x="216.03783169754368" y="691.5379042568775"/>
      <point x="260.0760810896544" y="680.0766955498098"/>
      <point x="325.45864222086374" y="651.175802321106" type="curve" smooth="yes"/>
      <point x="387.19617398854575" y="623.8861124871329"/>
      <point x="350.8099208765816" y="541.5694034635568"/>
    </contour>
  </outline>
</glyph>
<glyph name="H" format="2">
  <advance width="486"/>
  <unicode hex="0048"/>
  <outline>
    <contour>
      <point x="66.0" y="621.0" type="curve" smooth="yes"/>
      <point x="47.0" y="586.0"/>
      <point x="49.0" y="560.0"/>
      <point x="49.0" y="520.0" type="curve" smooth="yes"/>
      <point x="49.0" y="408.0"/>
      <point x="49.0" y="213.0"/>
      <point x="49.0" y="155.0" type="curve" smooth="yes"/>
      <point x="49.0" y="96.0"/>
      <point x="44.0" y="110.0"/>
      <point x="44.0" y="135.0" type="curve" smooth="yes"/>
      <point x="44.0" y="156.0"/>
      <point x="44.0" y="214.0"/>
      <point x="44.0" y="258.0" type="curve" smooth="yes"/>
      <point x="44.0" y="365.0"/>
      <point x="102.0" y="399.0"/>
      <point x="152.0" y="399.0" type="curve"/>
      <point x="228.0" y="399.0"/>
      <point x="288.0" y="399.0"/>
      <point x="332.0" y="399.0" type="curve" smooth="yes"/>
      <point x="355.0" y="399.0"/>
      <point x="354.0" y="415.0"/>
      <point x="354.0" y="450.0" type="curve" smooth="yes"/>
      <point x="354.0" y="480.0"/>
      <point x="354.0" y="526.0"/>
      <point x="354.0" y="545.0" type="curve" smooth="yes"/>
      <point x="354.0" y="564.0"/>
      <point x="359.0" y="584.0"/>
      <point x="359.0" y="525.0" type="curve" smooth="yes"/>
      <point x="359.0" y="468.0"/>
      <point x="359.0" y="210.0"/>
      <point x="359.0" y="161.0" type="curve" smooth="yes"/>
      <point x="359.0" y="124.0"/>
      <point x="356.0" y="94.0"/>
      <point x="375.0" y="59.0" type="curve" smooth="yes"/>
      <point x="405.0" y="4.0"/>
      <point x="330.0" y="-45.0"/>
      <point x="293.0" y="23.0" type="curve" smooth="yes"/>
      <point x="272.0" y="62.0"/>
      <point x="269.0" y="112.0"/>
      <point x="269.0" y="155.0" type="curve" smooth="yes"/>
      <point x="269.0" y="197.0"/>
      <point x="269.0" y="388.0"/>
      <point x="269.0" y="554.0" type="curve" smooth="yes"/>
      <point x="269.0" y="726.0"/>
      <point x="444.0" y="696.0"/>
      <point x="444.0" y="583.0" type="curve" smooth="yes"/>
      <point x="444.0" y="474.0"/>
      <point x="444.0" y="479.0"/>
      <point x="444.0" y="439.0" type="curve" smooth="yes"/>
      <point x="444.0" y="364.0"/>
      <point x="401.0" y="309.0"/>
      <point x="336.0" y="309.0" type="curve" smooth="yes"/>
      <point x="260.0" y="309.0"/>
      <point x="200.0" y="309.0"/>
      <point x="155.0" y="309.0" type="curve"/>
      <point x="138.0" y="309.0"/>
      <point x="134.0" y="287.0"/>
      <point x="134.0" y="264.0" type="curve" smooth="yes"/>
      <point x="134.0" y="226.0"/>
      <point x="134.0" y="206.0"/>
      <point x="134.0" y="105.0" type="curve" smooth="yes"/>
      <point x="134.0" y="-17.0"/>
      <point x="-41.0" y="-56.0"/>
      <point x="-41.0" y="124.0" type="curve" smooth="yes"/>
      <point x="-41.0" y="297.0"/>
      <point x="-41.0" y="441.0"/>
      <point x="-41.0" y="527.0" type="curve" smooth="yes"/>
      <point x="-41.0" y="569.0"/>
      <point x="-37.0" y="619.0"/>
      <point x="-16.0" y="658.0" type="curve" smooth="yes"/>
      <point x="21.0" y="725.0"/>
      <point x="96.0" y="676.0"/>
    </contour>
  </outline>
</glyph>
<glyph name="J" format="2">
  <advance width="316"/>
  <unicode hex="004A"/>
  <outline>
    <contour>
      <point x="9.324341315863823" y="101.99747174313703" type="curve" smooth="yes"/>
      <point x="21.175130945597417" y="90.26572055129382"/>
      <point x="34.232517339787975" y="85.02083570203934"/>
      <point x="47.66505325776163" y="85.02094714785169" type="curve" smooth="yes"/>
      <point x="85.22852553918993" y="85.02125880096835"/>
      <point x="104.5010217082884" y="139.02922536583532"/>
      <point x="104.50904324377946" y="204.02649825522445" type="curve" smooth="yes"/>
      <point x="104.51883125663652" y="283.3372665516623"/>
      <point x="104.53158954547479" y="386.7157259682985"/>
      <point x="104.54137755833189" y="466.02649426473636" type="curve" smooth="yes"/>
      <point x="104.54925729475887" y="529.8747910659648"/>
      <point x="109.47706714117689" y="599.4476130505685"/>
      <point x="128.1656104872111" y="654.4846370667491" type="curve" smooth="yes"/>
      <point x="149.86901305261188" y="718.4003027292779"/>
      <point x="235.08990060265018" y="689.4624326420769"/>
      <point x="213.3864980372494" y="625.5467669795481" type="curve" smooth="yes"/>
      <point x="198.1477971862763" y="580.669393222734"/>
      <point x="194.5478020364223" y="518.0775021608672"/>
      <point x="194.5413768729427" y="466.01538705736266" type="curve" smooth="yes"/>
      <point x="194.52679062493976" y="347.8252546406301"/>
      <point x="194.52362880639302" y="322.20552346458345"/>
      <point x="194.50904255839026" y="204.01539104785087" type="curve" smooth="yes"/>
      <point x="194.49192867405438" y="65.34420875199467"/>
      <point x="127.80717945027718" y="-4.978387939520858"/>
      <point x="47.66579996278469" y="-4.979052849050717" type="curve" smooth="yes"/>
      <point x="13.042326612632344" y="-4.979340109858232"/>
      <point x="-23.446835049911822" y="7.797880406902423"/>
      <point x="-53.99322639618862" y="38.03744032483913" type="curve" smooth="yes"/>
      <point x="-101.96324995991195" y="85.52561610887855"/>
      <point x="-38.64568224785951" y="149.48564752717644"/>
    </contour>
  </outline>
</glyph>
<glyph name="K" format="2">
  <advance width="417"/>
  <unicode hex="004B"/>
  <anchor x="213.0" y="0" name="below"/>
  <anchor x="213.0" y="680" name="above"/>
  <outline>
    <contour>
      <point x="61.0" y="628.0" type="curve" smooth="yes"/>
      <point x="47.0" y="585.0"/>
      <point x="48.0" y="550.0"/>
      <point x="48.0" y="505.0" type="curve" smooth="yes"/>
      <point x="48.0" y="413.0"/>
      <point x="48.0" y="244.0"/>
      <point x="48.0" y="146.0" type="curve" smooth="yes"/>
      <point x="48.0" y="118.0"/>
      <point x="50.0" y="85.0"/>
      <point x="63.0" y="55.0" type="curve" smooth="yes"/>
      <point x="88.0" y="0.0"/>
      <point x="8.0" y="-43.0"/>
      <point x="-22.0" y="25.0" type="curve" smooth="yes"/>
      <point x="-35.0" y="55.0"/>
      <point x="-42.0" y="100.0"/>
      <point x="-42.0" y="150.0" type="curve" smooth="yes"/>
      <point x="-42.0" y="290.0"/>
      <point x="-42.0" y="357.0"/>
      <point x="-42.0" y="512.0" type="curve" smooth="yes"/>
      <point x="-42.0" y="554.0"/>
      <point x="-41.0" y="608.0"/>
      <point x="-27.0" y="650.0" type="curve" smooth="yes"/>
      <point x="-4.0" y="722.0"/>
      <point x="80.0" y="688.0"/>
    </contour>
    <contour>
      <point x="318.0" y="607.0" type="curve" smooth="yes"/>
      <point x="276.0" y="570.0"/>
      <point x="247.0" y="534.0"/>
      <point x="224.0" y="503.0" type="curve" smooth="yes"/>
      <point x="206.0" y="479.0"/>
      <point x="166.0" y="420.0"/>
      <point x="154.0" y="388.0" type="curve" smooth="yes"/>
      <point x="143.0" y="358.0"/>
      <point x="152.0" y="338.0"/>
      <point x="166.0" y="306.0" type="curve" smooth="yes"/>
      <point x="192.0" y="248.0"/>
      <point x="255.0" y="144.0"/>
      <point x="316.0" y="64.0" type="curve" smooth="yes"/>
      <point x="352.0" y="16.0"/>
      <point x="282.0" y="-40.0"/>
      <point x="242.0" y="12.0" type="curve" smooth="yes"/>
      <point x="177.0" y="98.0"/>
      <point x="104.0" y="217.0"/>
      <point x="86.0" y="263.0" type="curve" smooth="yes"/>
      <point x="57.0" y="335.0"/>
      <point x="46.0" y="352.0"/>
      <point x="71.0" y="421.0" type="curve" smooth="yes"/>
      <point x="81.0" y="447.0"/>
      <point x="125.0" y="522.0"/>
      <point x="150.0" y="555.0" type="curve" smooth="yes"/>
      <point x="181.0" y="596.0"/>
      <point x="213.0" y="635.0"/>
      <point x="256.0" y="673.0" type="curve" smooth="yes"/>
      <point x="309.0" y="720.0"/>
      <point x="368.0" y="651.0"/>
    </contour>
  </outline>
</glyph>
<glyph name="L" format="2">
  <advance width="352"/>
  <unicode hex="004C"/>
  <anchor x="190.0" y="0" name="below"/>
  <anchor x="139.0" y="680" name="above"/>
  <anchor x="136.0" y="523" name="right"/>
  <outline>
    <contour>
      <point x="211.0" y="0.0" type="curve" smooth="yes"/>
      <point x="165.0" y="0.0"/>
      <point x="162.0" y="0.0"/>
      <point x="104.0" y="0.0" type="curve" smooth="yes"/>
      <point x="20.0" y="0.0"/>
      <point x="-42.0" y="31.0"/>
      <point x="-42.0" y="216.0" type="curve" smooth="yes"/>
      <point x="-42.0" y="318.0"/>
      <point x="-42.0" y="387.0"/>
      <point x="-42.0" y="524.0" type="curve" smooth="yes"/>
      <point x="-42.0" y="562.0"/>
      <point x="-39.0" y="613.0"/>
      <point x="-26.0" y="651.0" type="curve" smooth="yes"/>
      <point x="-1.0" y="722.0"/>
      <point x="82.0" y="686.0"/>
      <point x="61.0" y="627.0" type="curve" smooth="yes"/>
      <point x="47.0" y="589.0"/>
      <point x="48.0" y="557.0"/>
      <point x="48.0" y="517.0" type="curve" smooth="yes"/>
      <point x="48.0" y="437.0"/>
      <point x="48.0" y="299.0"/>
      <point x="48.0" y="194.0" type="curve" smooth="yes"/>
      <point x="48.0" y="127.0"/>
      <point x="59.0" y="90.0"/>
      <point x="107.0" y="90.0" type="curve" smooth="yes"/>
      <point x="154.0" y="90.0"/>
      <point x="156.0" y="90.0"/>
      <point x="213.0" y="90.0" type="curve" smooth="yes"/>
      <point x="268.0" y="90.0"/>
      <point x="272.0" y="0.0"/>
    </contour>
  </outline>
</glyph>
<glyph name="M" format="2">
  <advance width="572"/>
  <unicode hex="004D"/>
  <outline>
    <contour>
      <point x="-18.398964733148325" y="23.955602782523883" type="curve" smooth="yes"/>
      <point x="-34.56912924251893" y="66.27918171718369"/>
      <point x="-41.15292137769091" y="109.7069126321836"/>
      <point x="-41.147698572959186" y="152.02649904722972" type="curve" smooth="yes"/>
      <point x="-41.13182670786583" y="280.63378974414513"/>
      <point x="-41.82323682049093" y="407.82157705505654"/>
      <point x="-41.808525313005006" y="527.0266678685774" type="curve" smooth="yes"/>
      <point x="-41.78306898253357" y="733.2954128308647"/>
      <point x="143.26856901438757" y="750.2896593076025"/>
      <point x="200.09402815519815" y="538.6700850284744" type="curve" smooth="yes"/>
      <point x="233.01847556206815" y="416.05853645563553"/>
      <point x="265.280898545436" y="279.54813365140046"/>
      <point x="284.4919854959813" y="155.9129124405732" type="curve" smooth="yes"/>
      <point x="285.88631591102575" y="146.93953421638622"/>
      <point x="201.18744643479224" y="146.6763754476324"/>
      <point x="202.63423795361712" y="155.95234684572773" type="curve" smooth="yes"/>
      <point x="221.91776269956193" y="279.58690073303575"/>
      <point x="254.9835721870819" y="418.9803218886314"/>
      <point x="287.0968372557171" y="539.5985649326277" type="curve" smooth="yes"/>
      <point x="344.05427123426466" y="753.5321403602096"/>
      <point x="529.0497905452225" y="735.2913189506316"/>
      <point x="529.0242073079504" y="527.9942676292069" type="curve" smooth="yes"/>
      <point x="529.0080103560281" y="396.75284817270085"/>
      <point x="450.5034940081742" y="269.8424912970365"/>
      <point x="450.4895694149837" y="157.01364643445868" type="curve" smooth="yes"/>
      <point x="450.48553404496346" y="124.31566152856406"/>
      <point x="450.0710194357852" y="88.0512089404735"/>
      <point x="461.9238901468385" y="55.3502974320088" type="curve" smooth="yes"/>
      <point x="484.9257695523451" y="-8.109639093444265"/>
      <point x="400.312520851741" y="-38.77881163411971"/>
      <point x="377.3106414462344" y="24.681124891333354" type="curve" smooth="yes"/>
      <point x="360.99416011218995" y="69.69670172847296"/>
      <point x="360.4840150714508" y="112.01320552122654"/>
      <point x="360.4895701003729" y="157.02475364183226" type="curve" smooth="yes"/>
      <point x="360.5057670522951" y="288.2661730983382"/>
      <point x="439.0102834001491" y="415.17652997400256"/>
      <point x="439.02420799333964" y="528.0053748365804" type="curve" smooth="yes"/>
      <point x="439.0361036879542" y="624.3943654398648"/>
      <point x="400.5513073999339" y="615.9185053947247"/>
      <point x="374.06723763845525" y="516.443663566692" type="curve" smooth="yes"/>
      <point x="342.79636682259377" y="398.9894748318031"/>
      <point x="310.3367686352974" y="262.4739386140144"/>
      <point x="291.55908876013996" y="142.0825628157708" type="curve" smooth="yes"/>
      <point x="260.46843979938893" y="-57.252287268505576"/>
      <point x="225.52249637389113" y="-50.73823921979921"/>
      <point x="195.55920387086857" y="142.0940719530353" type="curve" smooth="yes"/>
      <point x="176.85206160492916" y="262.4860975695867"/>
      <point x="145.23403518267108" y="395.9343515377871"/>
      <point x="113.17326094052038" y="515.3295574677745" type="curve" smooth="yes"/>
      <point x="86.8819933648225" y="613.2389617339351"/>
      <point x="48.20325180694231" y="622.4493125094519"/>
      <point x="48.19147400160578" y="527.015560661204" type="curve" smooth="yes"/>
      <point x="48.175602136512424" y="398.4082699642885"/>
      <point x="48.86701224913753" y="271.2204826533771"/>
      <point x="48.852300741651604" y="152.01539183985614" type="curve" smooth="yes"/>
      <point x="48.84838935834246" y="120.32205225388529"/>
      <point x="53.56398831573719" y="87.77284727541802"/>
      <point x="65.67390144036756" y="56.07651767251555" type="curve" smooth="yes"/>
      <point x="89.76458760786127" y="-6.978131957621379"/>
      <point x="5.691721434345386" y="-39.099046847613046"/>
    </contour>
  </outline>
</glyph>
<glyph name="N" format="2">
  <advance width="486"/>
  <unicode hex="004E"/>
  <outline>
    <contour>
      <point x="48.33893335903373" y="640.0153844071912" type="curve" smooth="yes"/>
      <point x="48.331113927114615" y="576.6557257920358"/>
      <point x="48.327623711732905" y="548.3750453831317"/>
      <point x="48.319804279813795" y="485.01538676797617" type="curve" smooth="yes"/>
      <point x="48.30900719346633" y="397.52825060592625"/>
      <point x="48.290985660163834" y="251.5025278191356"/>
      <point x="48.280188573816346" y="164.0153916570857" type="curve" smooth="yes"/>
      <point x="48.27577614128439" y="128.26212699803912"/>
      <point x="50.44992459901838" y="90.44073842459674"/>
      <point x="62.77789064939824" y="54.68442980363322" type="curve" smooth="yes"/>
      <point x="84.77939781602261" y="-9.129233955760625"/>
      <point x="-0.3054871965025221" y="-38.46457684459314"/>
      <point x="-22.306994363126897" y="25.349086914800708" type="curve" smooth="yes"/>
      <point x="-38.22730079230798" y="71.52469996368384"/>
      <point x="-41.72550894581218" y="117.85481678085286"/>
      <point x="-41.71981074079444" y="164.02649886445928" type="curve" smooth="yes"/>
      <point x="-41.703720755883985" y="294.40118101487553"/>
      <point x="-41.696285019707425" y="354.6518118249335"/>
      <point x="-41.680195034796995" y="485.02649397534975" type="curve" smooth="yes"/>
      <point x="-41.67494785264682" y="527.5436068765329"/>
      <point x="-41.666313137727236" y="597.5093787133816"/>
      <point x="-41.66106595557706" y="640.0264916145646" type="curve" smooth="yes"/>
      <point x="-41.65273555004693" y="707.5264911005228"/>
      <point x="48.34726376456386" y="707.5153838931493"/>
    </contour>
    <contour>
      <point x="357.9349619348201" y="19.182977118122054" type="curve" smooth="yes"/>
      <point x="335.97236222498606" y="61.27395746858724"/>
      <point x="314.46574129279173" y="103.45846282300161"/>
      <point x="292.817622939678" y="145.3352092442238" type="curve" smooth="yes"/>
      <point x="231.82001934575166" y="263.33073829387365"/>
      <point x="170.4548763591722" y="382.2999793552249"/>
      <point x="109.68158548621253" y="500.41119658872555" type="curve" smooth="yes"/>
      <point x="89.18688443707893" y="540.2420836935556"/>
      <point x="68.66000389976055" y="579.4484103058613"/>
      <point x="48.1452214424656" y="619.474988366657" type="curve" smooth="yes"/>
      <point x="17.357712902510652" y="679.5447754305563"/>
      <point x="97.45076232104306" y="720.5947868171628"/>
      <point x="128.238270860998" y="660.5249997532635" type="curve" smooth="yes"/>
      <point x="149.2375418029544" y="619.5531318171678"/>
      <point x="169.69028862484618" y="580.4948316756393"/>
      <point x="189.7091143511016" y="541.5887951561426" type="curve" smooth="yes"/>
      <point x="250.41585942670673" y="423.60690784725875"/>
      <point x="311.8359538504275" y="304.5311191163367"/>
      <point x="372.7667660280989" y="186.66479331456253" type="curve" smooth="yes"/>
      <point x="393.92281596106824" y="145.73991828078186"/>
      <point x="415.25591772863976" y="103.88054335994684"/>
      <point x="437.7259745908724" y="60.81702927884372" type="curve" smooth="yes"/>
      <point x="468.9515137114136" y="0.973769786804418"/>
      <point x="389.1605010553613" y="-40.66028237391725"/>
    </contour>
    <contour>
      <point x="372.56070195523097" y="625.3374612140553" type="curve" smooth="yes"/>
      <point x="360.22391103978725" y="589.5872405169257"/>
      <point x="358.0408126878976" y="551.7686509548657"/>
      <point x="358.0364002553656" y="516.0153862958191" type="curve" smooth="yes"/>
      <point x="358.0259058910651" y="430.9811604934527"/>
      <point x="358.01034932615295" y="304.92869884882685"/>
      <point x="357.99801868351136" y="205.01539103262" type="curve" smooth="yes"/>
      <point x="357.99170298849964" y="153.84028215114807"/>
      <point x="357.9831998244414" y="84.94044678331959"/>
      <point x="357.9776554701482" y="40.01539354571366" type="curve" smooth="yes"/>
      <point x="357.9693250646179" y="-27.484605940244442"/>
      <point x="267.9693257500071" y="-27.473498732870787"/>
      <point x="267.9776561555374" y="40.02650075308731" type="curve" smooth="yes"/>
      <point x="267.98591843797567" y="106.97450926481274"/>
      <point x="267.99378126024067" y="170.68575320442264"/>
      <point x="267.99801936890054" y="205.02649823999357" type="curve" smooth="yes"/>
      <point x="268.0062937715219" y="272.0727147380135"/>
      <point x="268.02076207691675" y="389.3071762728814"/>
      <point x="268.0364009407548" y="516.0264935031928" type="curve" smooth="yes"/>
      <point x="268.0420991457726" y="562.1981755867994"/>
      <point x="271.5521279084262" y="608.5282861090037"/>
      <point x="287.4838307476427" y="654.6960372273336" type="curve" smooth="yes"/>
      <point x="309.50276275760126" y="718.5036906330248"/>
      <point x="394.57963396518954" y="689.1451146197466"/>
    </contour>
  </outline>
</glyph>
<glyph name="P" format="2">
  <advance width="393"/>
  <unicode hex="0050"/>
  <outline>
    <contour>
      <point x="90.07302568284311" y="343.0171015215803" type="curve" smooth="yes"/>
      <point x="97.14879211355763" y="343.01919730832776"/>
      <point x="111.28393046393715" y="343.02022050869414"/>
      <point x="132.5112294104101" y="343.02094319375675" type="curve" smooth="yes"/>
      <point x="173.46223099154216" y="343.0223373738275"/>
      <point x="213.13419034918797" y="404.46643749327825"/>
      <point x="220.7612089122805" y="471.13237815130833" type="curve" smooth="yes"/>
      <point x="227.78329680416758" y="532.5107648463841"/>
      <point x="210.0978306884003" y="590.011644289793"/>
      <point x="169.3259745274309" y="590.0097680275246" type="curve" smooth="yes"/>
      <point x="154.87206135271526" y="590.0091028791974"/>
      <point x="127.97873654276634" y="590.0087207823303"/>
      <point x="110.63404078884115" y="590.0087207823303" type="curve" smooth="yes"/>
      <point x="86.2795169682222" y="590.0087207823303"/>
      <point x="48.8546133628785" y="583.936027124916"/>
      <point x="48.85042710065012" y="550.0153857779696" type="curve" smooth="yes"/>
      <point x="48.837914589368935" y="448.628424244379"/>
      <point x="48.82135916388639" y="314.48234846111154"/>
      <point x="48.80451731052226" y="178.0153914438535" type="curve" smooth="yes"/>
      <point x="48.7995121434423" y="137.45928957091672"/>
      <point x="48.481055835187405" y="93.79472892710999"/>
      <point x="60.94452660412744" y="53.23554949975304" type="curve" smooth="yes"/>
      <point x="80.77166611738573" y="-11.286807390876668"/>
      <point x="-5.258143070120571" y="-37.72299340855432"/>
      <point x="-25.085282583378863" y="26.799363482075385" type="curve" smooth="yes"/>
      <point x="-40.846095984535836" y="78.0889015657743"/>
      <point x="-41.20181134090421" y="126.74085232142629"/>
      <point x="-41.19548200408853" y="178.0264986512271" type="curve" smooth="yes"/>
      <point x="-41.184180380995876" y="269.60181874608315"/>
      <point x="-41.16821855161385" y="398.9380762876643"/>
      <point x="-41.14957221396067" y="550.0264929853431" type="curve" smooth="yes"/>
      <point x="-41.137891310033666" y="644.67506756101"/>
      <point x="42.67775008921892" y="680.0087207823303"/>
      <point x="110.63404078884118" y="680.0087207823303" type="curve" smooth="yes"/>
      <point x="136.4813744096961" y="680.0087207823303"/>
      <point x="147.78238810346832" y="680.0087767179122"/>
      <point x="169.32183285645652" y="680.0097679322278" type="curve" smooth="yes"/>
      <point x="257.99377831594325" y="680.013848487817"/>
      <point x="325.4497929967373" y="594.3902133616461"/>
      <point x="310.177930168054" y="460.90252185381814" type="curve" smooth="yes"/>
      <point x="295.3907708441475" y="331.65150747203654"/>
      <point x="211.90953550693575" y="253.0236462631766"/>
      <point x="132.5142934673643" y="253.0209432459148" type="curve" smooth="yes"/>
      <point x="110.01367427783889" y="253.02017721056427"/>
      <point x="97.59988949731574" y="253.01932697200797"/>
      <point x="90.099682978672" y="253.01710546942158" type="curve" smooth="yes"/>
      <point x="22.599685939552998" y="252.99711249754992"/>
      <point x="22.5730286437241" y="342.9971085497086"/>
    </contour>
  </outline>
</glyph>
<glyph name="Q" format="2">
  <advance width="518"/>
  <unicode hex="0051"/>
  <outline>
    <contour>
      <point x="379.9847563943599" y="-47.22460289477472" type="curve" smooth="yes"/>
      <point x="357.2689437378583" y="3.9888771897071584"/>
      <point x="329.47114635317047" y="70.43828389174604"/>
      <point x="307.03428687733526" y="122.0928064328881" type="curve" smooth="yes"/>
      <point x="232.57598393014428" y="293.51198798559886"/>
      <point x="405.31654180667505" y="329.28991172360514"/>
      <point x="480.06271565635274" y="157.99605842813315" type="curve" smooth="yes"/>
      <point x="481.64559179117714" y="154.36862255470845"/>
      <point x="443.13086368467424" y="144.19356264840144"/>
      <point x="443.6429106949148" y="148.42015642463994" type="curve" smooth="yes"/>
      <point x="449.99166211282943" y="200.82470657959922"/>
      <point x="451.6847881605956" y="264.8100735092433"/>
      <point x="445.6189099728334" y="337.2631186857355" type="curve" smooth="yes"/>
      <point x="433.68558214261174" y="479.799106654184"/>
      <point x="374.8546711484584" y="600.0209379347236"/>
      <point x="282.61014941102695" y="600.0209379347236" type="curve" smooth="yes"/>
      <point x="189.9804358925088" y="600.0209379347236"/>
      <point x="131.0146009100311" y="484.0686327352725"/>
      <point x="130.99694622051817" y="341.01538896122156" type="curve" smooth="yes"/>
      <point x="130.97779737613803" y="185.85523725766814"/>
      <point x="199.65315031819208" y="67.19063708869305"/>
      <point x="294.1784354144704" y="81.5131126305595" type="curve" smooth="yes"/>
      <point x="360.91668356767" y="91.62529505780778"/>
      <point x="374.3995934706677" y="2.640964186874962"/>
      <point x="307.6613453174681" y="-7.471218240373304" type="curve" smooth="yes"/>
      <point x="165.84695694173985" y="-28.95894088439729"/>
      <point x="40.96821827894681" y="108.24283419166873"/>
      <point x="40.996946905907365" y="341.02649616859514" type="curve" smooth="yes"/>
      <point x="41.02302682554233" y="552.3480885659012"/>
      <point x="145.77537343798275" y="690.0209379347236"/>
      <point x="282.61014941102695" y="690.0209379347236" type="curve" smooth="yes"/>
      <point x="418.1963054220642" y="690.0209379347236"/>
      <point x="517.7648678892314" y="554.2791503112163"/>
      <point x="535.3051404002084" y="344.77178512710867" type="curve" smooth="yes"/>
      <point x="541.962764661503" y="265.2507106114919"/>
      <point x="539.9577188074837" y="195.112687701924"/>
      <point x="532.989626115792" y="137.59590386380327" type="curve" smooth="yes"/>
      <point x="520.2579825408573" y="32.50499537507921"/>
      <point x="436.93109223758734" y="31.807830869226215"/>
      <point x="397.5741301446075" y="122.00115239586937" type="curve" smooth="yes"/>
      <point x="393.82549463388955" y="130.5918024339909"/>
      <point x="385.8490273544779" y="166.54602026260253"/>
      <point x="389.583225696951" y="157.9490848197387" type="curve" smooth="yes"/>
      <point x="412.201875664512" y="105.8760410919429"/>
      <point x="439.72238398467954" y="40.067045826286936"/>
      <point x="462.2550393703142" y="-10.73350070456404" type="curve" smooth="yes"/>
      <point x="489.6233660129721" y="-72.43621293652983"/>
      <point x="407.3530830370178" y="-108.92731512674051"/>
    </contour>
  </outline>
</glyph>
<glyph name="R" format="2">
  <advance width="421"/>
  <unicode hex="0052"/>
  <outline>
    <contour>
      <point x="72.10003216795675" y="18.938236585480134" type="curve" smooth="yes"/>
      <point x="46.21334421358266" y="67.76839632893689"/>
      <point x="45.65591585077151" y="125.62926658306928"/>
      <point x="45.660284344137025" y="161.02649891015184" type="curve" smooth="yes"/>
      <point x="45.66754967326799" y="219.89634754255923"/>
      <point x="45.686246341393954" y="371.3925843478128"/>
      <point x="45.70397269280711" y="515.0264935184235" type="curve" smooth="yes"/>
      <point x="45.718243254610684" y="630.6586690368699"/>
      <point x="104.10445345200348" y="680.0139567700598"/>
      <point x="169.9147410219304" y="680.0139567700598" type="curve" smooth="yes"/>
      <point x="191.4541857059763" y="680.0139567700598"/>
      <point x="210.3146221878998" y="680.0139567700598"/>
      <point x="228.60460386041387" y="680.0139567700598" type="curve" smooth="yes"/>
      <point x="329.6412528695887" y="680.0139567700598"/>
      <point x="371.85082624267363" y="599.19195604857"/>
      <point x="369.0328168838968" y="475.0001182832352" type="curve" smooth="yes"/>
      <point x="366.1901032262516" y="349.7195430842825"/>
      <point x="297.3542010106974" y="273.02094291521837"/>
      <point x="208.76649236564447" y="273.02094291521837" type="curve" smooth="yes"/>
      <point x="182.6035414617422" y="273.02094291521837" type="line" smooth="yes"/>
      <point x="177.69718521933032" y="273.02094291521837"/>
      <point x="262.60332762849043" y="362.99999896430074"/>
      <point x="267.4563539117456" y="362.99999896430074" type="curve" smooth="yes"/>
      <point x="340.7312057778354" y="362.99999896430074"/>
      <point x="386.9271328385028" y="303.0142338821071"/>
      <point x="385.98093731371785" y="233.39491980966298" type="curve" smooth="yes"/>
      <point x="385.3151601260542" y="184.40826756276124"/>
      <point x="370.9150515836444" y="126.60521974043131"/>
      <point x="418.7822840881185" y="68.68397143254217" type="curve" smooth="yes"/>
      <point x="461.78205650056043" y="16.652542733358842"/>
      <point x="392.40681823498267" y="-40.68048714989707"/>
      <point x="349.40704582254074" y="11.350941549286254" type="curve" smooth="yes"/>
      <point x="280.5744852035714" y="94.64106773125216"/>
      <point x="295.03186797280915" y="164.175722059737"/>
      <point x="295.9892483399383" y="234.61799611412405" type="curve" smooth="yes"/>
      <point x="296.25971409832835" y="254.51836563180134"/>
      <point x="288.40164255637205" y="272.99999896430074"/>
      <point x="267.4563539117456" y="272.99999896430074" type="curve" smooth="yes"/>
      <point x="118.23843403824716" y="272.99999896430074"/>
      <point x="31.745864226996545" y="363.02094291521837"/>
      <point x="182.6035414617422" y="363.02094291521837" type="curve" smooth="yes"/>
      <point x="208.76649236564447" y="363.02094291521837" type="line" smooth="yes"/>
      <point x="253.20199202347752" y="363.02094291521837"/>
      <point x="277.6300750308896" y="414.2011605611923"/>
      <point x="279.05597715313246" y="477.0417627342463" type="curve" smooth="yes"/>
      <point x="280.3649842769047" y="534.7307125039977"/>
      <point x="275.53762518028395" y="590.0139567700598"/>
      <point x="228.60460386041387" y="590.0139567700598" type="curve" smooth="yes"/>
      <point x="201.34859055722237" y="590.0139567700598"/>
      <point x="184.36865415020137" y="590.0139567700598"/>
      <point x="169.9147410219304" y="590.0139567700598" type="curve" smooth="yes"/>
      <point x="145.18070269123479" y="590.0139567700598"/>
      <point x="135.70933543364936" y="558.4744071897543"/>
      <point x="135.70397200741792" y="515.0153863110501" type="curve" smooth="yes"/>
      <point x="135.69207684729818" y="418.63072663764103"/>
      <point x="135.6711105644819" y="248.74414978530152"/>
      <point x="135.6602836587478" y="161.01539170277837" type="curve" smooth="yes"/>
      <point x="135.65752651502424" y="138.67467860642677"/>
      <point x="135.27887580468945" y="91.9119960673615"/>
      <point x="151.61707601366382" y="61.09318573786202" type="curve" smooth="yes"/>
      <point x="183.23328787795023" y="1.455402853581731"/>
      <point x="103.71624403224317" y="-40.69954629880016"/>
    </contour>
  </outline>
</glyph>
<glyph name="T" format="2">
  <advance width="352"/>
  <unicode hex="0054"/>
  <outline>
    <contour>
      <point x="220.0" y="590.0" type="curve" smooth="yes"/>
      <point x="129.0" y="590.0"/>
      <point x="98.0" y="590.0"/>
      <point x="-5.0" y="590.0" type="curve" smooth="yes"/>
      <point x="-61.0" y="590.0"/>
      <point x="-60" y="680"/>
      <point x="-1.0" y="680.0" type="curve" smooth="yes"/>
      <point x="70" y="680"/>
      <point x="195" y="661"/>
      <point x="158.0" y="524.0" type="curve" smooth="yes"/>
      <point x="127" y="410"/>
      <point x="130" y="268"/>
      <point x="132.0" y="204.0" type="curve" smooth="yes"/>
      <point x="134" y="129"/>
      <point x="138" y="85"/>
      <point x="149.0" y="52.0" type="curve" smooth="yes"/>
      <point x="169" y="-6"/>
      <point x="84.0" y="-37.0"/>
      <point x="63.0" y="24.0" type="curve" smooth="yes"/>
      <point x="50" y="62"/>
      <point x="44" y="110"/>
      <point x="42.0" y="200.0" type="curve" smooth="yes"/>
      <point x="40.0" y="282.0"/>
      <point x="44" y="419"/>
      <point x="60.0" y="497.0" type="curve" smooth="yes"/>
      <point x="73" y="559"/>
      <point x="100" y="590"/>
      <point x="-5.0" y="590.0" type="curve" smooth="yes"/>
      <point x="-61.0" y="590.0"/>
      <point x="-62.0" y="680.0"/>
      <point x="-1.0" y="680.0" type="curve" smooth="yes"/>
      <point x="85.0" y="680.0"/>
      <point x="156.0" y="680.0"/>
      <point x="219.0" y="680.0" type="curve" smooth="yes"/>
      <point x="276.0" y="680.0"/>
      <point x="275.0" y="590.0"/>
    </contour>
  </outline>
</glyph>
<glyph name="U" format="2">
  <advance width="472"/>
  <unicode hex="0055"/>
  <outline>
    <contour>
      <point x="58.0" y="620.0" type="curve" smooth="yes"/>
      <point x="40.0" y="590.0"/>
      <point x="41.0" y="533.0"/>
      <point x="41.0" y="498.0" type="curve" smooth="yes"/>
      <point x="41.0" y="401.0"/>
      <point x="41.0" y="339.0"/>
      <point x="41.0" y="269.0" type="curve" smooth="yes"/>
      <point x="41.0" y="163.0"/>
      <point x="82.0" y="80.0"/>
      <point x="158.0" y="80.0" type="curve" smooth="yes"/>
      <point x="237.0" y="80.0"/>
      <point x="261.0" y="154.0"/>
      <point x="261.0" y="280.0" type="curve" smooth="yes"/>
      <point x="261.0" y="364.0"/>
      <point x="261.0" y="423.0"/>
      <point x="261.0" y="512.0" type="curve" smooth="yes"/>
      <point x="261.0" y="541.0"/>
      <point x="265.0" y="623.0"/>
      <point x="286.0" y="658.0" type="curve" smooth="yes"/>
      <point x="327.0" y="726.0"/>
      <point x="398.0" y="672.0"/>
      <point x="367.0" y="620.0" type="curve" smooth="yes"/>
      <point x="349.0" y="590.0"/>
      <point x="351.0" y="540.0"/>
      <point x="351.0" y="493.0" type="curve" smooth="yes"/>
      <point x="351.0" y="407.0"/>
      <point x="351.0" y="353.0"/>
      <point x="351.0" y="256.0" type="curve" smooth="yes"/>
      <point x="351.0" y="113.0"/>
      <point x="287.0" y="-10.0"/>
      <point x="159.0" y="-10.0" type="curve" smooth="yes"/>
      <point x="35.0" y="-10.0"/>
      <point x="-49.0" y="104.0"/>
      <point x="-49.0" y="267.0" type="curve" smooth="yes"/>
      <point x="-49.0" y="377.0"/>
      <point x="-49.0" y="428.0"/>
      <point x="-49.0" y="507.0" type="curve" smooth="yes"/>
      <point x="-49.0" y="545.0"/>
      <point x="-45.0" y="623.0"/>
      <point x="-24.0" y="658.0" type="curve" smooth="yes"/>
      <point x="17.0" y="726.0"/>
      <point x="89.0" y="672.0"/>
    </contour>
  </outline>
</glyph>
<glyph name="V" format="2">
  <advance width="438"/>
  <unicode hex="0056"/>
  <outline>
    <contour>
      <point x="356.437538461989" y="609.1409652141513" type="curve" smooth="yes"/>
      <point x="334.2743602896282" y="585.6405439844261"/>
      <point x="320.51207839298763" y="536.8055619015918"/>
      <point x="309.56534298027714" y="488.98093184008206" type="curve" smooth="yes"/>
      <point x="293.4503755790105" y="418.57707851190133"/>
      <point x="270.56732349292776" y="269.1802778991134"/>
      <point x="286.1166621505873" y="165.69336395812635" type="curve" smooth="yes"/>
      <point x="318.00169604112807" y="-46.51397365815508"/>
      <point x="102.95390502629778" y="-95.87729807101178"/>
      <point x="45.23349232517518" y="134.0648893713108" type="curve" smooth="yes"/>
      <point x="15.35319962218685" y="253.0997254719954"/>
      <point x="-20.576269224937448" y="399.524987367548"/>
      <point x="-44.55470181724307" y="496.18634004231353" type="curve" smooth="yes"/>
      <point x="-63.022609007648214" y="570.6337787239149"/>
      <point x="-73.08317241764583" y="617.8640193376659"/>
      <point x="-53.583693539794645" y="659.2106168789941" type="curve" smooth="yes"/>
      <point x="-24.79132125602652" y="720.2618191462132"/>
      <point x="56.6102817669323" y="681.8719894345222"/>
      <point x="27.817909483164158" y="620.8207871673031" type="curve" smooth="yes"/>
      <point x="20.328279545685177" y="604.9398132859872"/>
      <point x="35.70431140361907" y="546.4503434618163"/>
      <point x="42.797720998936654" y="517.8555400308541" type="curve" smooth="yes"/>
      <point x="65.78922561984882" y="425.1726706176702"/>
      <point x="101.36936615863829" y="280.0936318139069"/>
      <point x="132.52529796593217" y="155.97700172900727" type="curve" smooth="yes"/>
      <point x="159.78858734687367" y="47.36758430180293"/>
      <point x="212.17608378788907" y="52.087949194480885"/>
      <point x="197.11571146553337" y="152.32060144783716" type="curve" smooth="yes"/>
      <point x="179.56318641487042" y="269.1395021970469"/>
      <point x="203.64319219051805" y="429.5881719694591"/>
      <point x="221.8342146660633" y="509.06199567432526" type="curve" smooth="yes"/>
      <point x="238.58036715762307" y="582.223401122434"/>
      <point x="257.05743391297057" y="634.9398450987926"/>
      <point x="290.9623331709739" y="670.890438832146" type="curve" smooth="yes"/>
      <point x="337.27443838447" y="719.9968428004073"/>
      <point x="402.74964367548506" y="658.2473691824126"/>
    </contour>
  </outline>
</glyph>
<glyph name="W" format="2">
  <advance width="628"/>
  <unicode hex="0057"/>
  <outline>
    <contour>
      <point x="30.640611430637435" y="634.7447239070971" type="curve" smooth="yes"/>
      <point x="26.620572917830238" y="600.6720808252727"/>
      <point x="45.23616059603724" y="519.2061400123989"/>
      <point x="52.59091744775367" y="484.298357348918" type="curve" smooth="yes"/>
      <point x="77.42391704980916" y="366.4338282464293"/>
      <point x="97.93531213031062" y="271.3753920259242"/>
      <point x="123.22678063149829" y="153.458132551467" type="curve" smooth="yes"/>
      <point x="141.25236055640175" y="69.41686839622035"/>
      <point x="163.40432747534447" y="65.97789695504981"/>
      <point x="179.98945305045623" y="152.474107335607" type="curve" smooth="yes"/>
      <point x="202.53109530378222" y="270.03526910292203"/>
      <point x="230.17148067791535" y="422.87162670111576"/>
      <point x="241.67925795378136" y="538.4598297511232" type="curve" smooth="yes"/>
      <point x="242.72322542128222" y="548.9458098599109"/>
      <point x="299.0883617813063" y="541.9353264041819"/>
      <point x="300.1257232700437" y="531.4493486951109" type="curve" smooth="yes"/>
      <point x="311.67467555998496" y="414.7088897613543"/>
      <point x="340.6908357853422" y="261.7827532949193"/>
      <point x="361.80342355481724" y="145.02839040746673" type="curve" smooth="yes"/>
      <point x="376.1473914178477" y="65.70505745500158"/>
      <point x="410.66149872247604" y="71.55445044537315"/>
      <point x="413.9838368936195" y="150.88468938368337" type="curve" smooth="yes"/>
      <point x="418.71293120287174" y="263.80521769512086"/>
      <point x="392.8914520386452" y="376.3615159403007"/>
      <point x="410.1829335675291" y="499.28910987717813" type="curve" smooth="yes"/>
      <point x="416.98462187061114" y="547.6432764307979"/>
      <point x="435.17277849871164" y="614.7021472626666"/>
      <point x="461.39055099266346" y="661.8773287729027" type="curve" smooth="yes"/>
      <point x="494.1803731234302" y="720.8779860966367"/>
      <point x="572.847916221742" y="677.1582232556145"/>
      <point x="540.0580940909754" y="618.1575659318805" type="curve" smooth="yes"/>
      <point x="519.6238342916012" y="581.3889992931554"/>
      <point x="504.60681589798065" y="524.4402439563086"/>
      <point x="499.3055468488421" y="486.7527706224538" type="curve" smooth="yes"/>
      <point x="483.4244314788483" y="373.8516696840362"/>
      <point x="509.05408864350227" y="270.06755096266573"/>
      <point x="503.905014098569" y="147.11880435143885" type="curve" smooth="yes"/>
      <point x="495.9565657467746" y="-42.6729249834573"/>
      <point x="307.5566376316667" y="-60.761706337988514"/>
      <point x="273.23975541017586" y="129.01350093654528" type="curve" smooth="yes"/>
      <point x="251.68782662836398" y="248.19745609121725"/>
      <point x="222.352203910066" y="403.4192782427737"/>
      <point x="210.56292445389144" y="522.5890401103358" type="curve" smooth="yes"/>
      <point x="189.62787106596062" y="734.207174721417"/>
      <point x="352.30488118337115" y="741.161835296138"/>
      <point x="331.2365121484" y="529.5436522562284" type="curve" smooth="yes"/>
      <point x="319.4541313984117" y="411.19723436036577"/>
      <point x="291.4588013891371" y="255.89235208626394"/>
      <point x="268.3792608843243" y="135.5258958933376" type="curve" smooth="yes"/>
      <point x="231.32456968151732" y="-57.72499939528534"/>
      <point x="75.50112759950377" y="-53.182265709304794"/>
      <point x="35.22815560156233" y="134.58375857931284" type="curve" smooth="yes"/>
      <point x="9.89629705353212" y="252.6893299200223"/>
      <point x="-10.602980289890047" y="347.6907669397955"/>
      <point x="-35.47563777172115" y="465.7435236990252" type="curve" smooth="yes"/>
      <point x="-46.15711179189462" y="516.4408589256564"/>
      <point x="-64.57782949344126" y="595.8057270268199"/>
      <point x="-58.73943975461175" y="645.2901707976862" type="curve" smooth="yes"/>
      <point x="-50.83035458666996" y="712.325209186623"/>
      <point x="38.549696598579224" y="701.7797622960339"/>
    </contour>
  </outline>
</glyph>
<glyph name="X" format="2">
  <advance width="437"/>
  <unicode hex="0058"/>
  <outline>
    <contour>
      <point x="53.0" y="647.0" type="curve" smooth="yes"/>
      <point x="55.0" y="612.0"/>
      <point x="60.0" y="595.0"/>
      <point x="82.0" y="552.0" type="curve" smooth="yes"/>
      <point x="103.0" y="510.0"/>
      <point x="162.0" y="431.0"/>
      <point x="195.0" y="366.0" type="curve" smooth="yes"/>
      <point x="229.0" y="297.0"/>
      <point x="242.0" y="235.0"/>
      <point x="265.0" y="190.0" type="curve" smooth="yes"/>
      <point x="293.0" y="135.0"/>
      <point x="309.0" y="101.0"/>
      <point x="331.0" y="59.0" type="curve" smooth="yes"/>
      <point x="361.0" y="1.0"/>
      <point x="281.0" y="-40.0"/>
      <point x="251.0" y="18.0" type="curve" smooth="yes"/>
      <point x="229.0" y="60.0"/>
      <point x="213.0" y="93.0"/>
      <point x="184.0" y="150.0" type="curve" smooth="yes"/>
      <point x="159.0" y="200.0"/>
      <point x="146.0" y="264.0"/>
      <point x="115.0" y="326.0" type="curve" smooth="yes"/>
      <point x="86.0" y="384.0"/>
      <point x="27.0" y="461.0"/>
      <point x="0.0" y="514.0" type="curve" smooth="yes"/>
      <point x="-25.0" y="563.0"/>
      <point x="-33.0" y="598.0"/>
      <point x="-36.0" y="638.0" type="curve" smooth="yes"/>
      <point x="-40.0" y="704.0"/>
      <point x="49.0" y="706.0"/>
    </contour>
    <contour>
      <point x="325.0" y="620.0" type="curve" smooth="yes"/>
      <point x="307.0" y="585.0"/>
      <point x="295.0" y="562.0"/>
      <point x="269.0" y="510.0" type="curve" smooth="yes"/>
      <point x="244.0" y="460.0"/>
      <point x="161.0" y="381.0"/>
      <point x="132.0" y="326.0" type="curve" smooth="yes"/>
      <point x="103.0" y="269.0"/>
      <point x="111.0" y="203.0"/>
      <point x="84.0" y="150.0" type="curve" smooth="yes"/>
      <point x="54.0" y="92.0"/>
      <point x="38.0" y="59.0"/>
      <point x="17.0" y="18.0" type="curve" smooth="yes"/>
      <point x="-13.0" y="-40.0"/>
      <point x="-93.0" y="1.0"/>
      <point x="-63.0" y="59.0" type="curve" smooth="yes"/>
      <point x="-41.0" y="101.0"/>
      <point x="-23.0" y="137.0"/>
      <point x="3.0" y="188.0" type="curve" smooth="yes"/>
      <point x="25.0" y="231.0"/>
      <point x="15.0" y="295.0"/>
      <point x="51.0" y="366.0" type="curve" smooth="yes"/>
      <point x="87.0" y="436.0"/>
      <point x="168.0" y="510.0"/>
      <point x="190.0" y="553.0" type="curve" smooth="yes"/>
      <point x="214.0" y="601.0"/>
      <point x="227.0" y="627.0"/>
      <point x="245.0" y="662.0" type="curve" smooth="yes"/>
      <point x="275.0" y="720.0"/>
      <point x="355.0" y="678.0"/>
    </contour>
  </outline>
</glyph>
<glyph name="Y" format="2">
  <advance width="412"/>
  <unicode hex="0059"/>
  <outline>
    <contour>
      <point x="321.27623694714805" y="614.0323099108857" type="curve" smooth="yes"/>
      <point x="296.97354113864367" y="579.6717887929724"/>
      <point x="282.60320182576106" y="542.7291077350892"/>
      <point x="267.92609856364635" y="508.35164170585097" type="curve" smooth="yes"/>
      <point x="237.02749888517886" y="435.9793525812395"/>
      <point x="219.6275979934781" y="385.46647266677655"/>
      <point x="192.2346755161887" y="313.0917783450433" type="curve" smooth="yes"/>
      <point x="178.47993701158373" y="276.7504571307225"/>
      <point x="166.14554993670845" y="236.74883761820962"/>
      <point x="166.139535575614" y="188.0153912915448" type="curve" smooth="yes"/>
      <point x="166.13731561393504" y="170.0273819871981"/>
      <point x="166.1358973166505" y="158.5351364256885"/>
      <point x="166.13003274271114" y="111.01539246432185" type="curve" smooth="yes"/>
      <point x="166.1291484985073" y="103.85049717903617"/>
      <point x="160.98241805622226" y="107.53898057308301"/>
      <point x="160.9833395317611" y="115.00555565985435" type="curve" smooth="yes"/>
      <point x="160.98830186355593" y="155.21456978101082"/>
      <point x="160.9890135295337" y="160.9810901452973"/>
      <point x="160.99247212442094" y="189.0055545327699" type="curve" smooth="yes"/>
      <point x="161.0033538537116" y="277.1785394928881"/>
      <point x="92.79282043291889" y="311.55118135862966"/>
      <point x="44.704660840292156" y="389.3564441977116" type="curve" smooth="yes"/>
      <point x="-3.7924017073757037" y="467.82330028889913"/>
      <point x="-14.918047820090738" y="516.4417383718725"/>
      <point x="-55.9111244714791" y="623.9900465492846" type="curve" smooth="yes"/>
      <point x="-79.95222567613969" y="687.0636182958351"/>
      <point x="4.145869985927771" y="719.1184199020493"/>
      <point x="28.186971190588366" y="656.0448481554987" type="curve" smooth="yes"/>
      <point x="64.86716837215809" y="559.8116919071962"/>
      <point x="77.86772482163919" y="506.88493272878236"/>
      <point x="121.26241393227292" y="436.6735705000063" type="curve" smooth="yes"/>
      <point x="196.26846136856437" y="315.31593725433464"/>
      <point x="251.0094443386036" y="326.5232516827185"/>
      <point x="250.99247143903176" y="188.99444732539632" type="curve" smooth="yes"/>
      <point x="250.99015057000386" y="170.18880123448844"/>
      <point x="250.98666878889026" y="141.97646240900085"/>
      <point x="250.9833388463719" y="114.9944484524808" type="curve" smooth="yes"/>
      <point x="250.96356658398338" y="-45.21716384240612"/>
      <point x="76.11106004500029" y="-42.71191616683243"/>
      <point x="76.13003342810036" y="111.02649967169543" type="curve" smooth="yes"/>
      <point x="76.13396881471299" y="142.91433434758284"/>
      <point x="76.13622803980662" y="161.22048908481423"/>
      <point x="76.13953626100319" y="188.0264984989184" type="curve" smooth="yes"/>
      <point x="76.14708882985592" y="249.22380658095156"/>
      <point x="90.78936224853305" y="299.3142821041378"/>
      <point x="108.06195496056426" y="344.95010715031435" type="curve" smooth="yes"/>
      <point x="135.9128961391815" y="418.53493023905764"/>
      <point x="153.73898707544734" y="470.1078601126113"/>
      <point x="185.15422153464388" y="543.6902377885434" type="curve" smooth="yes"/>
      <point x="202.89637474596682" y="585.2468214287345"/>
      <point x="218.4198548580168" y="624.4664847060474"/>
      <point x="247.79773309340734" y="666.0025847938975" type="curve" smooth="yes"/>
      <point x="286.7754392556662" y="721.1114626842032"/>
      <point x="360.25394310940686" y="669.1411878011913"/>
    </contour>
  </outline>
</glyph>
<glyph name="Z" format="2">
  <advance width="421"/>
  <unicode hex="005A"/>
  <outline>
    <contour>
      <point x="3.7136156015986526" y="680.0174471320013" type="curve" smooth="yes"/>
      <point x="28.574346358341362" y="680.0203012228324"/>
      <point x="119.2024070841196" y="680.0209380870324"/>
      <point x="167.76755519511022" y="680.0209380870324" type="curve" smooth="yes"/>
      <point x="316.7804689699151" y="680.0209380870324"/>
      <point x="432.34644563928464" y="644.5620371089142"/>
      <point x="322.68423374654833" y="488.16819735137136" type="curve" smooth="yes"/>
      <point x="244.775907241059" y="377.05989376183857"/>
      <point x="190.08582338221524" y="271.018104154174"/>
      <point x="153.1773395614772" y="158.92930193520792" type="curve" smooth="yes"/>
      <point x="150.29644203393806" y="150.18019279418158"/>
      <point x="98.93933347371963" y="90.02094707324615"/>
      <point x="109.71198522336319" y="90.02094707324613" type="curve" smooth="yes"/>
      <point x="151.33925503278368" y="90.02094707324613"/>
      <point x="240.6181724372459" y="90.02031035823511"/>
      <point x="275.88572029411057" y="90.01745626740396" type="curve" smooth="yes"/>
      <point x="343.3857200730767" y="90.01199370644521"/>
      <point x="343.3784366584652" y="0.011994001157029007"/>
      <point x="275.8784368794991" y="0.017456562115775398" type="curve" smooth="yes"/>
      <point x="223.32219211287875" y="0.02170977237348298"/>
      <point x="171.7455859134152" y="0.02094707324612544"/>
      <point x="109.71198522336316" y="0.020947073246134096" type="curve" smooth="yes"/>
      <point x="-95.37614589734521" y="0.020947073246154496"/>
      <point x="12.846340328434673" y="20.513451823240477"/>
      <point x="67.69243612771828" y="187.07768172731872" type="curve" smooth="yes"/>
      <point x="107.18151657454247" y="307.00359766336953"/>
      <point x="165.63909073014452" y="420.9619138974169"/>
      <point x="248.99467335974262" y="539.8387759237013" type="curve" smooth="yes"/>
      <point x="295.4310336649997" y="606.0636000190551"/>
      <point x="230.86693313717922" y="590.0209380870324"/>
      <point x="167.76755519511022" y="590.0209380870324" type="curve" smooth="yes"/>
      <point x="95.39502105671616" y="590.0209380870324"/>
      <point x="40.771793006280056" y="590.0217009353482"/>
      <point x="3.7239478872695972" y="590.017447725091" type="curve" smooth="yes"/>
      <point x="-63.7760516679132" y="590.0096985108378"/>
      <point x="-63.78638395358414" y="680.0096979177481"/>
    </contour>
  </outline>
</glyph>
<glyph name="bracketleft" format="2">
  <advance width="304"/>
  <unicode hex="005B"/>
  <outline>
    <contour>
      <point x="159" y="678" type="curve" smooth="yes"/>
      <point x="119" y="678"/>
      <point x="72" y="687"/>
      <point x="72" y="559" type="curve" smooth="yes"/>
      <point x="72" y="296"/>
      <point x="72" y="220"/>
      <point x="72" y="43" type="curve" smooth="yes"/>
      <point x="72" y="-84"/>
      <point x="122" y="-68"/>
      <point x="159" y="-68" type="curve" smooth="yes"/>
      <point x="227" y="-68"/>
      <point x="227" y="-158"/>
      <point x="159" y="-158" type="curve" smooth="yes"/>
      <point x="100" y="-158"/>
      <point x="-18" y="-161"/>
      <point x="-18" y="43" type="curve" smooth="yes"/>
      <point x="-18" y="306"/>
      <point x="-18" y="382"/>
      <point x="-18" y="559" type="curve" smooth="yes"/>
      <point x="-18" y="762"/>
      <point x="95" y="768"/>
      <point x="159" y="768" type="curve" smooth="yes"/>
      <point x="227" y="768"/>
      <point x="227" y="678"/>
    </contour>
  </outline>
</glyph>
<glyph name="backslash" format="2">
  <advance width="346"/>
  <unicode hex="005C"/>
  <outline>
    <contour>
      <point x="174" y="-142" type="curve" smooth="yes"/>
      <point x="145" y="-91"/>
      <point x="127" y="-40"/>
      <point x="115" y="12" type="curve" smooth="yes"/>
      <point x="69" y="210"/>
      <point x="23" y="412"/>
      <point x="-24" y="610" type="curve" smooth="yes"/>
      <point x="-33" y="654"/>
      <point x="-37" y="695"/>
      <point x="-29" y="738" type="curve" smooth="yes"/>
      <point x="-17" y="805"/>
      <point x="72" y="788"/>
      <point x="59" y="722" type="curve" smooth="yes"/>
      <point x="53" y="691"/>
      <point x="57" y="660"/>
      <point x="64" y="630" type="curve" smooth="yes"/>
      <point x="111" y="432"/>
      <point x="157" y="230"/>
      <point x="203" y="32" type="curve" smooth="yes"/>
      <point x="213" y="-12"/>
      <point x="227" y="-55"/>
      <point x="252" y="-98" type="curve" smooth="yes"/>
      <point x="286" y="-156"/>
      <point x="208" y="-201"/>
    </contour>
  </outline>
</glyph>
<glyph name="bracketright" format="2">
  <advance width="304"/>
  <unicode hex="005D"/>
  <outline>
    <contour>
      <point x="60.03131937634983" y="-67.99999447119387" type="curve" smooth="yes"/>
      <point x="192.26028745823425" y="-67.99999447119387" type="line"/>
      <point x="147.26028780092884" y="-112.99444086750707" type="line"/>
      <point x="147.36346141530225" y="723.005546399485" type="line"/>
      <point x="192.36346107260766" y="677.9999927957981" type="line"/>
      <point x="60.13449299072325" y="677.9999927957981" type="line" smooth="yes"/>
      <point x="-7.365507009276747" y="677.9999927957981"/>
      <point x="-7.365507009276733" y="767.9999927957981"/>
      <point x="60.13449299072327" y="767.9999927957981" type="curve" smooth="yes"/>
      <point x="192.36346107260766" y="767.9999927957981" type="line" smooth="yes"/>
      <point x="217.21844365986357" y="767.9999927957981"/>
      <point x="237.36652816820043" y="747.8494215900856"/>
      <point x="237.36346072991307" y="722.9944391921113" type="curve" smooth="yes"/>
      <point x="237.26028711553965" y="-113.00554807488068" type="line" smooth="yes"/>
      <point x="237.25722021257454" y="-137.85619283858222"/>
      <point x="217.11093241118428" y="-157.99999447119387"/>
      <point x="192.26028745823425" y="-157.99999447119387" type="curve" smooth="yes"/>
      <point x="60.03131937634983" y="-157.99999447119387" type="line" smooth="yes"/>
      <point x="-7.468680623650172" y="-157.99999447119384"/>
      <point x="-7.468680623650172" y="-67.99999447119386"/>
    </contour>
  </outline>
</glyph>
<glyph name="asciicircum" format="2">
  <advance width="396"/>
  <unicode hex="005E"/>
  <outline>
    <contour>
      <point x="-48.0" y="317.0" type="curve" smooth="yes"/>
      <point x="-24" y="385"/>
      <point x="-10" y="433"/>
      <point x="37.0" y="574.0" type="curve" smooth="yes"/>
      <point x="74" y="686"/>
      <point x="146" y="693"/>
      <point x="188.0" y="572.0" type="curve" smooth="yes"/>
      <point x="233" y="441"/>
      <point x="255" y="392"/>
      <point x="307.0" y="334.0" type="curve" smooth="yes"/>
      <point x="355" y="281"/>
      <point x="289" y="219"/>
      <point x="237.0" y="277.0" type="curve" smooth="yes"/>
      <point x="181" y="340"/>
      <point x="142" y="419"/>
      <point x="120.0" y="483.0" type="curve" smooth="yes"/>
      <point x="108" y="519"/>
      <point x="117" y="517"/>
      <point x="106.0" y="484.0" type="curve" smooth="yes"/>
      <point x="85" y="420"/>
      <point x="60" y="355"/>
      <point x="36.0" y="287.0" type="curve" smooth="yes"/>
      <point x="15" y="225"/>
      <point x="-70" y="255"/>
    </contour>
  </outline>
</glyph>
<glyph name="underscore" format="2">
  <advance width="379"/>
  <unicode hex="005F"/>
  <outline>
    <contour>
      <point x="380.02479792987685" y="-122.99999500427435" type="curve" smooth="yes"/>
      <point x="-1.1057571296722781" y="-122.99999500427435" type="line" smooth="yes"/>
      <point x="-68.60575712967228" y="-122.99999500427434"/>
      <point x="-68.60575712967226" y="-32.99999500427434"/>
      <point x="-1.1057571296722617" y="-32.99999500427435" type="curve" smooth="yes"/>
      <point x="380.02479792987685" y="-32.99999500427435" type="line" smooth="yes"/>
      <point x="447.52479792987685" y="-32.999995004274375"/>
      <point x="447.52479792987685" y="-122.99999500427438"/>
    </contour>
  </outline>
</glyph>
<glyph name="grave" format="2">
  <advance width="288"/>
  <unicode hex="0060"/>
  <outline>
    <contour>
      <point x="135.2729510109376" y="580.6522121148291" type="curve" smooth="yes"/>
      <point x="70.9393157448799" y="686.6522105003569" type="line" smooth="yes"/>
      <point x="35.917642004716114" y="744.3560437217081"/>
      <point x="112.85608629985113" y="791.0516087085932"/>
      <point x="147.87776004001492" y="733.347775487242" type="curve" smooth="yes"/>
      <point x="212.2113953060726" y="627.3477771017142" type="line" smooth="yes"/>
      <point x="247.23306904623638" y="569.6439438803629"/>
      <point x="170.29462475110137" y="522.9483788934779"/>
    </contour>
  </outline>
</glyph>
<glyph name="b" format="2">
  <advance width="412"/>
  <unicode hex="0062"/>
  <outline>
    <contour>
      <point x="-32.983956810695254" y="31.045418093680745" type="curve" smooth="yes"/>
      <point x="-50.341072340394106" y="88.70463739886603"/>
      <point x="-51.85561031754906" y="116.56600369564677"/>
      <point x="-51.83913950207396" y="250.0264975546044" type="curve" smooth="yes"/>
      <point x="-51.81961786132487" y="408.20736110985547"/>
      <point x="28.357966927240998" y="508.02094070674207"/>
      <point x="130.36586276267232" y="508.02094070674207" type="curve" smooth="yes"/>
      <point x="231.58009086228807" y="508.02094070674207"/>
      <point x="313.951798815732" y="406.35447434171476"/>
      <point x="313.93225764846176" y="248.01539037769254" type="curve" smooth="yes"/>
      <point x="313.91074579546245" y="73.70814193225088"/>
      <point x="251.5173780400594" y="-10.982329260132282"/>
      <point x="180.52316606073867" y="-10.991269707091348" type="curve" smooth="yes"/>
      <point x="103.10685706028525" y="-11.001018901921302"/>
      <point x="51.04892057600149" y="85.53862501096937"/>
      <point x="38.93706621418194" y="195.05280809712133" type="curve" smooth="yes"/>
      <point x="17.241239749308043" y="391.22431418536314"/>
      <point x="-51.81459899611734" y="448.87445681060586"/>
      <point x="-51.7950809131609" y="607.0264921171835" type="curve" smooth="yes"/>
      <point x="-51.79149809305686" y="636.0575344001935"/>
      <point x="-48.656235115271926" y="670.4196055098664"/>
      <point x="-40.756560651597894" y="705.031591742385" type="curve" smooth="yes"/>
      <point x="-25.736913606379886" y="770.8393435854397"/>
      <point x="62.00675551769308" y="750.813147525149"/>
      <point x="46.98710847247507" y="685.0053956820943" type="curve" smooth="yes"/>
      <point x="40.737092306889124" y="657.6212959358282"/>
      <point x="38.20775303516444" y="629.9839875284343"/>
      <point x="38.20491840144989" y="607.01538490981" type="curve" smooth="yes"/>
      <point x="38.18717066486717" y="463.20819498715764"/>
      <point x="104.5316491382786" y="420.6858667090099"/>
      <point x="128.3916460892213" y="204.94614622841988" type="curve" smooth="yes"/>
      <point x="132.06896289278725" y="171.6962132568838"/>
      <point x="157.0072320170294" y="79.00576959667507"/>
      <point x="180.51183217582792" y="79.00872957925894" type="curve" smooth="yes"/>
      <point x="204.53798436863877" y="79.0117552419619"/>
      <point x="223.92497820439107" y="189.03672415564708"/>
      <point x="223.93225833385094" y="248.02649758506612" type="curve" smooth="yes"/>
      <point x="223.94327029618117" y="337.25474090918505"/>
      <point x="187.4027455501681" y="418.02094070674207"/>
      <point x="130.36586276267232" y="418.02094070674207" type="curve" smooth="yes"/>
      <point x="72.76664398108905" y="418.02094070674207"/>
      <point x="38.17188279509396" y="339.33292888049834"/>
      <point x="38.16085981253683" y="250.0153903472308" type="curve" smooth="yes"/>
      <point x="38.1465572863235" y="134.12421211470996"/>
      <point x="38.12380587232669" y="107.05680923543993"/>
      <point x="53.19595577445876" y="56.98809850290625" type="curve" smooth="yes"/>
      <point x="72.65296608137795" y="-7.646835935959238"/>
      <point x="-13.526946503776056" y="-33.58951634518474"/>
    </contour>
  </outline>
</glyph>
<glyph name="c" format="2">
  <advance width="335"/>
  <unicode hex="0063"/>
  <outline>
    <contour>
      <point x="307.9317900609285" y="29.597514432691526" type="curve" smooth="yes"/>
      <point x="263.2668390273481" y="2.355905687247667"/>
      <point x="214.56726979268126" y="-10.329024128660771"/>
      <point x="182.14825379534813" y="-10.9702527869892" type="curve" smooth="yes"/>
      <point x="87.21389619484428" y="-12.847997341557122"/>
      <point x="-0.9147416482480952" y="79.55371224734641"/>
      <point x="-0.8939498462725481" y="248.02649758506612" type="curve" smooth="yes"/>
      <point x="-0.8734707029733243" y="413.9658575793615"/>
      <point x="85.14123645771197" y="507.020940721973"/>
      <point x="179.18985548832842" y="507.020940721973" type="curve" smooth="yes"/>
      <point x="212.53418204065724" y="507.020940721973"/>
      <point x="262.7872133331769" y="495.7104155852438"/>
      <point x="308.41276906630645" y="467.1642955259328" type="curve" smooth="yes"/>
      <point x="365.6356544999122" y="431.3621813055068"/>
      <point x="317.8995022060109" y="355.06500072736577"/>
      <point x="260.6766167724051" y="390.8671149477918" type="curve" smooth="yes"/>
      <point x="232.85653419221808" y="408.2730490703063"/>
      <point x="199.5214855005177" y="417.020940721973"/>
      <point x="179.18985548832842" y="417.020940721973" type="curve" smooth="yes"/>
      <point x="126.40188331353357" y="417.020940721973"/>
      <point x="89.11754408099486" y="341.1544753357667"/>
      <point x="89.10604946833824" y="248.01539037769254" type="curve" smooth="yes"/>
      <point x="89.09437352744165" y="153.4070304769494"/>
      <point x="127.05667715567468" y="77.95767231425802"/>
      <point x="180.3684559857681" y="79.01214726856062" type="curve" smooth="yes"/>
      <point x="200.2051862790255" y="79.40450587539235"/>
      <point x="233.738649224408" y="89.76515788499417"/>
      <point x="261.0684912926424" y="106.43390703772184" type="curve" smooth="yes"/>
      <point x="318.69578574641514" y="141.5813811139364"/>
      <point x="365.5590845147012" y="64.74498850890609"/>
    </contour>
  </outline>
</glyph>
<glyph name="e" format="2">
  <advance width="388"/>
  <unicode hex="0065"/>
  <outline>
    <contour>
      <point x="78.00351166546335" y="294.00871608445755" type="curve" smooth="yes"/>
      <point x="90.73989154681664" y="294.0174485292396"/>
      <point x="170.62964482553244" y="294.00872666144653"/>
      <point x="224.40546871609985" y="294.00872666144653" type="curve" smooth="yes"/>
      <point x="228.61853548947545" y="294.00872666144653"/>
      <point x="193.85951204392092" y="311.531695659718"/>
      <point x="193.25692780389272" y="315.9792678564594" type="curve" smooth="yes"/>
      <point x="185.32035246263422" y="374.5577859794597"/>
      <point x="157.1892445863559" y="418.02094070674207"/>
      <point x="114.83032885673958" y="418.02094070674207" type="curve" smooth="yes"/>
      <point x="56.566325592694284" y="418.02094070674207"/>
      <point x="19.808158966489557" y="341.25494094202077"/>
      <point x="19.796651955029276" y="248.01539037769254" type="curve" smooth="yes"/>
      <point x="19.784263545824103" y="147.6340089489854"/>
      <point x="59.625036484363335" y="79.02094724078572"/>
      <point x="121.14134553267425" y="79.02094724078572" type="curve" smooth="yes"/>
      <point x="149.47023249828803" y="79.02094724078572"/>
      <point x="186.7112715710689" y="95.17648836311146"/>
      <point x="234.87344463428855" y="120.01141220249013" type="curve" smooth="yes"/>
      <point x="294.8669971093694" y="150.94721122917963"/>
      <point x="336.11472914495533" y="70.95580792907184"/>
      <point x="276.1211766698745" y="40.02000890238235" type="curve" smooth="yes"/>
      <point x="205.1888276026175" y="3.443596859653286"/>
      <point x="162.86360121856515" y="-10.97905275921429"/>
      <point x="121.14134553267425" y="-10.979052759214284" type="curve" smooth="yes"/>
      <point x="18.270434140150144" y="-10.979052759214277"/>
      <point x="-70.22406392995704" y="80.16330237447444"/>
      <point x="-70.20334735958151" y="248.02649758506612" type="curve" smooth="yes"/>
      <point x="-70.18331177578656" y="410.37176288549006"/>
      <point x="13.383196066880345" y="508.02094070674207"/>
      <point x="114.83032885673958" y="508.02094070674207" type="curve" smooth="yes"/>
      <point x="197.4080608468729" y="508.02094070674207"/>
      <point x="266.9699160874369" y="442.26009166891623"/>
      <point x="282.44208717966615" y="328.0626178521304" type="curve" smooth="yes"/>
      <point x="296.1436674744337" y="226.93357476999012"/>
      <point x="320.20231975873975" y="204.00872666144653"/>
      <point x="224.40546871609985" y="204.00872666144653" type="curve" smooth="yes"/>
      <point x="158.92555687660055" y="204.00872666144653"/>
      <point x="93.57361918414765" y="204.01937026407973"/>
      <point x="78.06521835550564" y="204.00873723843554" type="curve" smooth="yes"/>
      <point x="10.565234220989154" y="203.96245722090387"/>
      <point x="10.503527530946869" y="293.9624360669259"/>
    </contour>
  </outline>
</glyph>
<glyph name="f" format="2">
  <advance width="258"/>
  <unicode hex="0066"/>
  <outline>
    <contour>
      <point x="179.25524691689242" y="634.6289177620499" type="curve" smooth="yes"/>
      <point x="107.63260697655411" y="665.2285008855023"/>
      <point x="75.76126508793021" y="647.9196432550734"/>
      <point x="75.7533784451412" y="584.0153852601201" type="curve" smooth="yes"/>
      <point x="75.73925141627534" y="469.5462351415499"/>
      <point x="75.7175508959207" y="293.71024402776715"/>
      <point x="75.70537062696982" y="195.01539118492872" type="curve" smooth="yes"/>
      <point x="75.69980221314478" y="149.8953872468042"/>
      <point x="77.33237702647764" y="90.81731972371774"/>
      <point x="89.59890282754645" y="54.37121080202013" type="curve" smooth="yes"/>
      <point x="111.13031969236471" y="-9.602597024256873"/>
      <point x="25.83190925732873" y="-38.311152844014565"/>
      <point x="4.3004923925104706" y="25.66265498226244" type="curve" smooth="yes"/>
      <point x="-11.643567249348852" y="73.03539472823152"/>
      <point x="-14.301866525279499" y="136.37940911069805"/>
      <point x="-14.294628687640966" y="195.0264983923023" type="curve" smooth="yes"/>
      <point x="-14.286455192368583" y="261.2550781037608"/>
      <point x="-14.267673186174802" y="413.44279619592066"/>
      <point x="-14.246620869469595" y="584.0264924674935" type="curve" smooth="yes"/>
      <point x="-14.231383417522903" y="707.4932306523215"/>
      <point x="76.23530418372165" y="776.5121851163061"/>
      <point x="214.61440459230954" y="717.3920132121657" type="curve" smooth="yes"/>
      <point x="276.6867261798965" y="690.8726449556028"/>
      <point x="241.32756850447933" y="608.109549505487"/>
    </contour>
    <contour>
      <point x="162.25907250046333" y="408.0139595420783" type="curve" smooth="yes"/>
      <point x="138.2398254065382" y="408.0139595420783"/>
      <point x="124.09225403203294" y="408.0123916289953"/>
      <point x="118.44066620883557" y="408.0096017020826" type="curve" smooth="yes"/>
      <point x="109.2421698321608" y="408.0050608308442"/>
      <point x="85.20999083168327" y="408.0050555739245"/>
      <point x="39.925086782986526" y="408.0095964452024" type="curve" smooth="yes"/>
      <point x="13.813754113941718" y="408.01221471729644"/>
      <point x="1.2037258115410057" y="408.0139595420783"/>
      <point x="-15.93183635854667" y="408.0139595420783" type="curve" smooth="yes"/>
      <point x="-83.43183635854668" y="408.0139595420783"/>
      <point x="-83.43183635854665" y="498.0139595420783"/>
      <point x="-15.931836358546652" y="498.0139595420783" type="curve" smooth="yes"/>
      <point x="-1.0801529673223054" y="498.0139595420783"/>
      <point x="17.302974932781787" y="498.01186529372694"/>
      <point x="39.93411138890205" y="498.00959599273847" type="curve" smooth="yes"/>
      <point x="87.50655552695653" y="498.00482574203915"/>
      <point x="108.73308441692745" y="498.0048204852005"/>
      <point x="118.39623738646658" y="498.0095907358583" type="curve" smooth="yes"/>
      <point x="124.05685069969837" y="498.01238511823703"/>
      <point x="138.2014670757358" y="498.0139595420783"/>
      <point x="162.25907250046333" y="498.0139595420783" type="curve" smooth="yes"/>
      <point x="229.75907250046333" y="498.0139595420783"/>
      <point x="229.75907250046333" y="408.0139595420783"/>
    </contour>
  </outline>
</glyph>
<glyph name="h" format="2">
  <advance width="402"/>
  <unicode hex="0068"/>
  <anchor x="205.0" y="735" name="above"/>
  <anchor x="205.0" y="0" name="below"/>
  <outline>
    <contour>
      <point x="223.0" y="26.0" type="curve" smooth="yes"/>
      <point x="203.0" y="69.0"/>
      <point x="200.0" y="121.0"/>
      <point x="200.0" y="177.0" type="curve" smooth="yes"/>
      <point x="200.0" y="221.0"/>
      <point x="200.0" y="260.0"/>
      <point x="200.0" y="295.0" type="curve" smooth="yes"/>
      <point x="200.0" y="358.0"/>
      <point x="153.0" y="408.0"/>
      <point x="140.0" y="408.0" type="curve" smooth="yes"/>
      <point x="125.0" y="408.0"/>
      <point x="124.0" y="289.0"/>
      <point x="124.0" y="245.0" type="curve" smooth="yes"/>
      <point x="124.0" y="226.0"/>
      <point x="124.0" y="198.0"/>
      <point x="124.0" y="84.0" type="curve" smooth="yes"/>
      <point x="124.0" y="-41.0"/>
      <point x="-51.0" y="-40.0"/>
      <point x="-51.0" y="84.0" type="curve" smooth="yes"/>
      <point x="-51.0" y="197.0"/>
      <point x="-51.0" y="507.0"/>
      <point x="-51.0" y="547.0" type="curve" smooth="yes"/>
      <point x="-51.0" y="617.0"/>
      <point x="-47.0" y="672.0"/>
      <point x="-28.0" y="708.0" type="curve" smooth="yes"/>
      <point x="10.0" y="779.0"/>
      <point x="85.0" y="729.0"/>
      <point x="56.0" y="675.0" type="curve" smooth="yes"/>
      <point x="36.0" y="638.0"/>
      <point x="39.0" y="598.0"/>
      <point x="39.0" y="540.0" type="curve" smooth="yes"/>
      <point x="39.0" y="524.0"/>
      <point x="39.0" y="197.0"/>
      <point x="39.0" y="146.0" type="curve" smooth="yes"/>
      <point x="39.0" y="104.0"/>
      <point x="34.0" y="112.0"/>
      <point x="34.0" y="138.0" type="curve" smooth="yes"/>
      <point x="34.0" y="161.0"/>
      <point x="34.0" y="180.0"/>
      <point x="34.0" y="267.0" type="curve" smooth="yes"/>
      <point x="34.0" y="443.0"/>
      <point x="68.0" y="508.0"/>
      <point x="133.0" y="508.0" type="curve" smooth="yes"/>
      <point x="187.0" y="508.0"/>
      <point x="290.0" y="449.0"/>
      <point x="290.0" y="288.0" type="curve" smooth="yes"/>
      <point x="290.0" y="252.0"/>
      <point x="290.0" y="208.0"/>
      <point x="290.0" y="174.0" type="curve" smooth="yes"/>
      <point x="290.0" y="139.0"/>
      <point x="289.0" y="98.0"/>
      <point x="308.0" y="57.0" type="curve" smooth="yes"/>
      <point x="335.0" y="0.0"/>
      <point x="256.0" y="-45.0"/>
    </contour>
  </outline>
</glyph>
<glyph name="j" format="2">
  <advance width="173"/>
  <unicode hex="006A"/>
  <outline>
    <contour>
      <point x="68.71334101252388" y="443.65017752126033" type="curve" smooth="yes"/>
      <point x="56.01438671048605" y="405.95315849918245"/>
      <point x="51.25525604034744" y="346.23471315984114"/>
      <point x="51.24683686061553" y="278.01538992076644" type="curve" smooth="yes"/>
      <point x="51.23987425353164" y="221.59845164804264"/>
      <point x="51.22215705277409" y="78.03868883765797"/>
      <point x="51.21042990339046" y="-16.98460558612663" type="curve" smooth="yes"/>
      <point x="51.19184376477032" y="-167.58523874340827"/>
      <point x="-6.729973458704944" y="-193.87890876534956"/>
      <point x="-81.58482539263629" y="-153.61933356488817" type="curve" smooth="yes"/>
      <point x="-141.03216001307695" y="-121.64646371363214"/>
      <point x="-98.40166687806891" y="-42.38335088637794"/>
      <point x="-38.95433225762825" y="-74.35622073763396" type="curve" smooth="yes"/>
      <point x="-35.168156469016594" y="-76.39255939766254"/>
      <point x="-38.79050950242659" y="-24.59091336626725"/>
      <point x="-38.78956941122033" y="-16.973498378753053" type="curve" smooth="yes"/>
      <point x="-38.77209343200222" y="124.63168326119954"/>
      <point x="-38.76353823865713" y="193.953103965722"/>
      <point x="-38.75316245399526" y="278.02649712814" type="curve" smooth="yes"/>
      <point x="-38.74285790668212" y="361.52266497012954"/>
      <point x="-32.119981273812265" y="426.24314608560945"/>
      <point x="-16.57725863341264" y="472.381930200771" type="curve" smooth="yes"/>
      <point x="4.971555876220489" y="536.3498799352234"/>
      <point x="90.26215552215702" y="507.6181272557127"/>
    </contour>
    <contour>
      <point x="-37.340283214513256" y="628.0083479194967" type="curve" smooth="yes"/>
      <point x="-42.88406099163787" y="649.9726900889409"/>
      <point x="-43.42596708572068" y="673.1163116931905"/>
      <point x="-36.76747059696976" y="695.0776420139299" type="curve" smooth="yes"/>
      <point x="-17.182413632847084" y="759.673892243429"/>
      <point x="68.94592000648511" y="733.560482957932"/>
      <point x="49.36086304236244" y="668.9642327284329" type="curve" smooth="yes"/>
      <point x="47.59137765037683" y="663.1280423426947"/>
      <point x="48.449811529419605" y="655.8705189127064"/>
      <point x="49.923062106274195" y="650.033528132721" type="curve" smooth="yes"/>
      <point x="66.44194726619227" y="584.5860191421305"/>
      <point x="-20.82139805459518" y="562.5608389289062"/>
    </contour>
  </outline>
</glyph>
<glyph name="k" format="2">
  <advance width="355"/>
  <unicode hex="006B"/>
  <outline>
    <contour>
      <point x="54.93254186322967" y="685.1341981138502" type="curve" smooth="yes"/>
      <point x="45.76774684207808" y="644.4242904724915"/>
      <point x="41.87774776959119" y="602.7275541137184"/>
      <point x="41.872723341793304" y="562.0153855951991" type="curve" smooth="yes"/>
      <point x="41.853325135686276" y="404.8346940306784"/>
      <point x="41.84399031631457" y="329.1960830997594"/>
      <point x="41.824592110207604" y="172.01539153523873" type="curve" smooth="yes"/>
      <point x="41.81956768240974" y="131.30322301671924"/>
      <point x="45.69951542786814" y="90.60377585670588"/>
      <point x="54.85426159342405" y="49.88934646102531" type="curve" smooth="yes"/>
      <point x="69.66209654859068" y="-15.966389993292353"/>
      <point x="-18.145552057166192" y="-35.71016993351455"/>
      <point x="-32.95338701233283" y="30.145566520803115" type="curve" smooth="yes"/>
      <point x="-43.5861384332747" y="77.43321373471936"/>
      <point x="-48.18124281042009" y="124.74147741743322"/>
      <point x="-48.175407204403186" y="172.02649874261232" type="curve" smooth="yes"/>
      <point x="-48.16239015637681" y="277.50164420900893"/>
      <point x="-48.14029302084391" y="456.55134733617615"/>
      <point x="-48.127275972817486" y="562.0264928025728" type="curve" smooth="yes"/>
      <point x="-48.12144036680056" y="609.3115141277519"/>
      <point x="-43.51441834235199" y="657.6182994790955"/>
      <point x="-32.86999570937631" y="704.9006949155374" type="curve" smooth="yes"/>
      <point x="-18.04512310811083" y="770.7525980949919"/>
      <point x="69.75741446449516" y="750.9861012933046"/>
    </contour>
    <contour>
      <point x="240.83294970159102" y="426.9465299318403" type="curve" smooth="yes"/>
      <point x="207.44784314239328" y="391.9781146553797"/>
      <point x="172.55963638449526" y="353.1964009361315"/>
      <point x="155.47041980746326" y="314.0212373042078" type="curve" smooth="yes"/>
      <point x="133.7489322397244" y="264.22709806094724"/>
      <point x="132.2310586882771" y="271.1899908335928"/>
      <point x="154.31186173199887" y="218.3702546089996" type="curve" smooth="yes"/>
      <point x="173.171241698596" y="173.25652060111122"/>
      <point x="212.88662761899235" y="115.76043057751087"/>
      <point x="250.63954666127478" y="67.88526394302545" type="curve" smooth="yes"/>
      <point x="292.4360218517122" y="14.882389854395619"/>
      <point x="221.76552306687245" y="-40.846243732854305"/>
      <point x="179.969047876435" y="12.156630355775523" type="curve" smooth="yes"/>
      <point x="135.7467207815972" y="68.2357715808268"/>
      <point x="93.36666172915028" y="130.8131676105039"/>
      <point x="71.27550451943569" y="183.65767215151587" type="curve" smooth="yes"/>
      <point x="38.46136206751392" y="262.152749767796"/>
      <point x="40.69754189908518" y="276.0079284838466"/>
      <point x="72.97770788326994" y="350.00668546581954" type="curve" smooth="yes"/>
      <point x="94.89244738873656" y="400.2438336819341"/>
      <point x="132.92454393735346" y="444.252821360648"/>
      <point x="175.73668282676124" y="489.0953516339526" type="curve" smooth="yes"/>
      <point x="222.3482991033453" y="537.9175517900751"/>
      <point x="287.4445659781751" y="475.76873008796275"/>
    </contour>
  </outline>
</glyph>
<glyph name="l" format="2">
  <advance width="163"/>
  <unicode hex="006C"/>
  <outline>
    <contour>
      <point x="-23.385920168567758" y="21.176885894251292" type="curve" smooth="yes"/>
      <point x="-47.92367510562945" y="74.40634718156146"/>
      <point x="-48.72181974573046" y="124.80309556151991"/>
      <point x="-48.71525126373332" y="178.02649865122703" type="curve" smooth="yes"/>
      <point x="-48.702133308357986" y="284.319280904185"/>
      <point x="-48.68036140093747" y="460.7337104734604"/>
      <point x="-48.66724344556195" y="567.0264927264184" type="curve" smooth="yes"/>
      <point x="-48.66165349177323" y="612.3210316891817"/>
      <point x="-48.27488165553355" y="660.3946284868435"/>
      <point x="-32.25483462956659" y="709.0823051775835" type="curve" smooth="yes"/>
      <point x="-11.157546635232034" y="773.2005899275994"/>
      <point x="74.33349969812234" y="745.0708726018199"/>
      <point x="53.23621170378779" y="680.9525878518041" type="curve" smooth="yes"/>
      <point x="41.02776374163139" y="643.8490159138611"/>
      <point x="41.33701582283237" y="601.5331382447665"/>
      <point x="41.33275586904884" y="567.0153855190447" type="curve" smooth="yes"/>
      <point x="41.313207289251025" y="408.6162389811557"/>
      <point x="41.304296630674955" y="336.4145379817425"/>
      <point x="41.28474805087747" y="178.01539144385356" type="curve" smooth="yes"/>
      <point x="41.28000501754204" y="139.58331913391822"/>
      <point x="40.62930045164816" y="97.29098330124565"/>
      <point x="58.34776107836069" y="58.854536429090864" type="curve" smooth="yes"/>
      <point x="86.60599897949041" y="-2.4457245061054564"/>
      <point x="4.87231773256196" y="-40.12337504094503"/>
    </contour>
  </outline>
</glyph>
<glyph name="m" format="2">
  <advance width="586"/>
  <unicode hex="006D"/>
  <anchor x="296.0" y="509" name="above"/>
  <anchor x="296.0" y="0" name="below"/>
  <outline>
    <contour>
      <point x="36.0" y="444.0" type="curve" smooth="yes"/>
      <point x="24.0" y="408.0"/>
      <point x="39.0" y="372.0"/>
      <point x="39.0" y="335.0" type="curve" smooth="yes"/>
      <point x="39.0" y="308.0"/>
      <point x="39.0" y="182.0"/>
      <point x="39.0" y="139.0" type="curve" smooth="yes"/>
      <point x="39.0" y="89.0"/>
      <point x="34.0" y="103.0"/>
      <point x="34.0" y="129.0" type="curve" smooth="yes"/>
      <point x="34.0" y="151.0"/>
      <point x="34.0" y="218.0"/>
      <point x="34.0" y="292.0" type="curve" smooth="yes"/>
      <point x="34.0" y="451.0"/>
      <point x="39.0" y="508.0"/>
      <point x="114.0" y="508.0" type="curve" smooth="yes"/>
      <point x="173.0" y="508.0"/>
      <point x="255.0" y="460.0"/>
      <point x="255.0" y="298.0" type="curve" smooth="yes"/>
      <point x="255.0" y="262.0"/>
      <point x="255.0" y="178.0"/>
      <point x="255.0" y="158.0" type="curve" smooth="yes"/>
      <point x="255.0" y="132.0"/>
      <point x="252.0" y="128.0"/>
      <point x="252.0" y="163.0" type="curve" smooth="yes"/>
      <point x="252.0" y="189.0"/>
      <point x="252.0" y="234.0"/>
      <point x="252.0" y="282.0" type="curve" smooth="yes"/>
      <point x="252.0" y="460.0"/>
      <point x="250.0" y="508.0"/>
      <point x="325.0" y="508.0" type="curve" smooth="yes"/>
      <point x="384.0" y="508.0"/>
      <point x="473.0" y="453.0"/>
      <point x="473.0" y="304.0" type="curve" smooth="yes"/>
      <point x="473.0" y="271.0"/>
      <point x="473.0" y="215.0"/>
      <point x="473.0" y="182.0" type="curve" smooth="yes"/>
      <point x="473.0" y="130.0"/>
      <point x="471.0" y="99.0"/>
      <point x="491.0" y="57.0" type="curve" smooth="yes"/>
      <point x="518.0" y="0.0"/>
      <point x="439.0" y="-45.0"/>
      <point x="406.0" y="26.0" type="curve" smooth="yes"/>
      <point x="386.0" y="69.0"/>
      <point x="383.0" y="129.0"/>
      <point x="383.0" y="168.0" type="curve" smooth="yes"/>
      <point x="383.0" y="213.0"/>
      <point x="383.0" y="260.0"/>
      <point x="383.0" y="300.0" type="curve" smooth="yes"/>
      <point x="383.0" y="370.0"/>
      <point x="355.0" y="412.0"/>
      <point x="344.0" y="412.0" type="curve" smooth="yes"/>
      <point x="329.0" y="412.0"/>
      <point x="341.0" y="303.0"/>
      <point x="341.0" y="262.0" type="curve" smooth="yes"/>
      <point x="341.0" y="236.0"/>
      <point x="341.0" y="234.0"/>
      <point x="341.0" y="121.0" type="curve" smooth="yes"/>
      <point x="341.0" y="-39.0"/>
      <point x="166.0" y="-43.0"/>
      <point x="166.0" y="127.0" type="curve" smooth="yes"/>
      <point x="166.0" y="245.0"/>
      <point x="166.0" y="270.0"/>
      <point x="166.0" y="305.0" type="curve" smooth="yes"/>
      <point x="166.0" y="365.0"/>
      <point x="138.0" y="412.0"/>
      <point x="127.0" y="412.0" type="curve" smooth="yes"/>
      <point x="112.0" y="412.0"/>
      <point x="124.0" y="309.0"/>
      <point x="124.0" y="257.0" type="curve" smooth="yes"/>
      <point x="124.0" y="231.0"/>
      <point x="124.0" y="204.0"/>
      <point x="124.0" y="94.0" type="curve" smooth="yes"/>
      <point x="124.0" y="-35.0"/>
      <point x="-51.0" y="-37.0"/>
      <point x="-51.0" y="93.0" type="curve" smooth="yes"/>
      <point x="-51.0" y="200.0"/>
      <point x="-51.0" y="315.0"/>
      <point x="-51.0" y="339.0" type="curve" smooth="yes"/>
      <point x="-51.0" y="384.0"/>
      <point x="-68.0" y="435.0"/>
      <point x="-47.0" y="475.0" type="curve" smooth="yes"/>
      <point x="-11.0" y="543.0"/>
      <point x="56.0" y="505.0"/>
    </contour>
  </outline>
</glyph>
<glyph name="o" format="2">
  <advance width="409"/>
  <unicode hex="006F"/>
  <outline>
    <contour>
      <point x="168.5230251092109" y="-0.174643588222807" type="curve" smooth="yes"/>
      <point x="115.05254060194942" y="19.663702415808967"/>
      <point x="73.55204415707408" y="48.360757188417885"/>
      <point x="45.86314584960617" y="98.14998514042469" type="curve" smooth="yes"/>
      <point x="22.905927092348204" y="139.4308690945877"/>
      <point x="14.036416640680592" y="189.7858884664148"/>
      <point x="14.043727726627864" y="249.02649756983521" type="curve" smooth="yes"/>
      <point x="14.062986737407316" y="405.0793107268318"/>
      <point x="98.31323990785224" y="508.02094070674207"/>
      <point x="203.31992121665394" y="508.02094070674207" type="curve" smooth="yes"/>
      <point x="309.1092134630138" y="508.02094070674207"/>
      <point x="393.2696400473985" y="404.9101176454691"/>
      <point x="393.2504005465366" y="249.01539036246166" type="curve" smooth="yes"/>
      <point x="393.2435699467299" y="193.66808682936957"/>
      <point x="379.50767911916773" y="144.35358961766596"/>
      <point x="363.9835408118609" y="104.63822130192501" type="curve" smooth="yes"/>
      <point x="343.5319712213322" y="52.31701655328224"/>
      <point x="326.6321675398254" y="26.37316498459245"/>
      <point x="294.02141435672917" y="4.593616889023579" type="curve" smooth="yes"/>
      <point x="237.88905839160992" y="-32.89516294981809"/>
      <point x="187.90401860648768" y="41.94797833700758"/>
      <point x="244.03637457160693" y="79.43675817584925" type="curve" smooth="yes"/>
      <point x="261.4995399892967" y="91.09977770134108"/>
      <point x="269.20788264954217" y="109.38549357268"/>
      <point x="280.1597653247305" y="137.40367052947488" type="curve" smooth="yes"/>
      <point x="292.109044489029" y="167.9734846939333"/>
      <point x="303.2451435652951" y="206.42443052970913"/>
      <point x="303.25040123192576" y="249.0264975698353" type="curve" smooth="yes"/>
      <point x="303.2615452199389" y="339.32452477004887"/>
      <point x="264.59565873028805" y="418.02094070674207"/>
      <point x="203.31992121665394" y="418.02094070674207" type="curve" smooth="yes"/>
      <point x="142.7100251896089" y="418.02094070674207"/>
      <point x="104.05484334951902" y="339.089132930885"/>
      <point x="104.04372704123865" y="249.01539036246174" type="curve" smooth="yes"/>
      <point x="104.03873315091111" y="208.55066228612856"/>
      <point x="108.83727514631777" y="170.08911416472483"/>
      <point x="124.51837006516972" y="141.89190672143695" type="curve" smooth="yes"/>
      <point x="141.41005250344259" y="111.51786229131785"/>
      <point x="167.20933203272688" y="96.30745180444661"/>
      <point x="199.8291363343538" y="84.20501865309564" type="curve" smooth="yes"/>
      <point x="263.1138830153426" y="60.725435234238375"/>
      <point x="231.8077717901997" y="-23.654227007080063"/>
    </contour>
  </outline>
</glyph>
<glyph name="p" format="2">
  <advance width="412"/>
  <unicode hex="0070"/>
  <outline>
    <contour>
      <point x="-29.0" y="-139.0" type="curve" smooth="yes"/>
      <point x="-49.0" y="-96.0"/>
      <point x="-52.0" y="-56.0"/>
      <point x="-52.0" y="22.0" type="curve" smooth="yes"/>
      <point x="-52.0" y="94.0"/>
      <point x="-52.0" y="174.0"/>
      <point x="-52.0" y="261.0" type="curve" smooth="yes"/>
      <point x="-52.0" y="397.0"/>
      <point x="28.0" y="508.0"/>
      <point x="130.0" y="508.0" type="curve" smooth="yes"/>
      <point x="231.0" y="508.0"/>
      <point x="314.0" y="410.0"/>
      <point x="314.0" y="244.0" type="curve" smooth="yes"/>
      <point x="314.0" y="77.0"/>
      <point x="251.0" y="-11.0"/>
      <point x="180.0" y="-11.0" type="curve" smooth="yes"/>
      <point x="106.0" y="-11.0"/>
      <point x="61.0" y="63.0"/>
      <point x="26.0" y="242.0" type="curve" smooth="yes"/>
      <point x="11.0" y="322.0"/>
      <point x="4.0" y="415.0"/>
      <point x="23.0" y="469.0" type="curve" smooth="yes"/>
      <point x="50.0" y="545.0"/>
      <point x="132.0" y="505.0"/>
      <point x="112.0" y="449.0" type="curve" smooth="yes"/>
      <point x="91.0" y="389.0"/>
      <point x="102.0" y="321.0"/>
      <point x="114.0" y="258.0" type="curve" smooth="yes"/>
      <point x="126.0" y="197.0"/>
      <point x="157.0" y="79.0"/>
      <point x="181.0" y="79.0" type="curve" smooth="yes"/>
      <point x="204.0" y="79.0"/>
      <point x="224.0" y="181.0"/>
      <point x="224.0" y="255.0" type="curve" smooth="yes"/>
      <point x="224.0" y="329.0"/>
      <point x="187.0" y="418.0"/>
      <point x="130.0" y="418.0" type="curve" smooth="yes"/>
      <point x="72.0" y="418.0"/>
      <point x="38.0" y="350.0"/>
      <point x="38.0" y="238.0" type="curve" smooth="yes"/>
      <point x="38.0" y="164.0"/>
      <point x="38.0" y="69.0"/>
      <point x="38.0" y="14.0" type="curve" smooth="yes"/>
      <point x="38.0" y="-34.0"/>
      <point x="36.0" y="-66.0"/>
      <point x="56.0" y="-108.0" type="curve" smooth="yes"/>
      <point x="83.0" y="-165.0"/>
      <point x="4.0" y="-210.0"/>
    </contour>
  </outline>
</glyph>
<glyph name="q" format="2">
  <advance width="412"/>
  <unicode hex="0071"/>
  <outline>
    <contour>
      <point x="277.288474814707" y="-112.45336481259253" type="curve" smooth="yes"/>
      <point x="287.33245263103976" y="-77.84751257915188"/>
      <point x="289.6573227254795" y="-42.60277276918826"/>
      <point x="289.66159385775114" y="-7.994442466748533" type="curve" smooth="yes"/>
      <point x="289.66781966815455" y="42.452345208089326"/>
      <point x="290.4623563693319" y="132.68941426975854"/>
      <point x="286.21031106478114" y="217.75431259131926" type="curve" smooth="yes"/>
      <point x="279.3016892116675" y="355.9657316578676"/>
      <point x="189.96245518356892" y="418.01811601357167"/>
      <point x="105.61468736129018" y="418.02268610203697" type="curve" smooth="yes"/>
      <point x="32.750274195972835" y="418.02663400513774"/>
      <point x="19.079924646444805" y="338.72475665217866"/>
      <point x="19.068729893671403" y="248.01539037769254" type="curve" smooth="yes"/>
      <point x="19.057723437322288" y="158.83176117523567"/>
      <point x="54.919777750975776" y="79.02094724078572"/>
      <point x="111.92814209707784" y="79.02094724078572" type="curve" smooth="yes"/>
      <point x="168.3755179040767" y="79.02094724078572"/>
      <point x="204.82937978916985" y="158.93202971590438"/>
      <point x="204.84037524181417" y="248.02649758506612" type="curve" smooth="yes"/>
      <point x="204.85245023524948" y="345.8683190572105"/>
      <point x="205.2058770048441" y="413.3055801719834"/>
      <point x="220.58721265585044" y="469.8326155515598" type="curve" smooth="yes"/>
      <point x="238.3099607965749" y="534.9644372544758"/>
      <point x="325.1523897337963" y="511.3341064001766"/>
      <point x="307.42964159307184" y="446.20228469726055" type="curve" smooth="yes"/>
      <point x="294.57763480174805" y="398.9706359591231"/>
      <point x="294.85046392064896" y="329.767962622823"/>
      <point x="294.840374556425" y="248.01539037769254" type="curve" smooth="yes"/>
      <point x="294.8208236185711" y="89.59713687168828"/>
      <point x="212.29682832655163" y="-10.97905275921429"/>
      <point x="111.92814209707781" y="-10.979052759214284" type="curve" smooth="yes"/>
      <point x="10.713913997462026" y="-10.979052759214277"/>
      <point x="-70.95081058820958" y="89.68741362104386"/>
      <point x="-70.93126942093939" y="248.02649758506612" type="curve" smooth="yes"/>
      <point x="-70.9119813801236" y="404.31453667700436"/>
      <point x="-19.922447244111886" y="508.029488024225"/>
      <point x="105.61956369639319" y="508.02268596993343" type="curve" smooth="yes"/>
      <point x="226.2500918565801" y="508.0161500271394"/>
      <point x="366.2176727112815" y="419.91142536399025"/>
      <point x="376.09808477809594" y="222.24743365177613" type="curve" smooth="yes"/>
      <point x="380.4451278755509" y="135.2820434456363"/>
      <point x="379.6679580777667" y="43.568303482140124"/>
      <point x="379.66159317236196" y="-8.005549674122097" type="curve" smooth="yes"/>
      <point x="379.6562431396772" y="-51.356044696818394"/>
      <point x="376.3026784353813" y="-94.19225146100878"/>
      <point x="363.72156265978685" y="-137.53964244728175" type="curve" smooth="yes"/>
      <point x="344.9068544337699" y="-202.36445833109164"/>
      <point x="258.47376658869007" y="-177.27818069640242"/>
    </contour>
  </outline>
</glyph>
<glyph name="r" format="2">
  <advance width="275"/>
  <unicode hex="0072"/>
  <outline>
    <contour>
      <point x="237.97580825550148" y="411.37297641637224" type="curve" smooth="yes"/>
      <point x="106.49058878939124" y="428.1436611723376"/>
      <point x="96.32385746613426" y="355.1878776837304"/>
      <point x="96.31223529619946" y="261.01521564676693" type="curve" smooth="yes"/>
      <point x="96.30825627168397" y="228.77378973095693"/>
      <point x="92.05818209023052" y="168.5418478252787"/>
      <point x="92.05392117008036" y="134.0162647786334" type="curve" smooth="yes"/>
      <point x="92.05278561436586" y="124.81503083331921"/>
      <point x="85.63684954727367" y="124.51401401664472"/>
      <point x="86.33447904078491" y="133.48856630582526" type="curve" smooth="yes"/>
      <point x="89.63983845682984" y="176.00987767488485"/>
      <point x="89.63321558171202" y="230.6208848705651"/>
      <point x="86.36837403804535" y="270.3119732026374" type="curve" smooth="yes"/>
      <point x="80.43280629226172" y="342.4714151075314"/>
      <point x="62.97957590977461" y="397.4983975466746"/>
      <point x="89.75754769805793" y="469.6570313345531" type="curve" smooth="yes"/>
      <point x="113.2417903636017" y="532.9400491705085"/>
      <point x="197.61914747820896" y="501.62772561645016"/>
      <point x="174.13490481266518" y="438.34470778049473" type="curve" smooth="yes"/>
      <point x="155.99838535616425" y="389.47220630818356"/>
      <point x="172.04532058542992" y="326.5631692652774"/>
      <point x="176.06543610268832" y="277.6901204613726" type="curve" smooth="yes"/>
      <point x="179.71056091070602" y="233.37588076508004"/>
      <point x="179.75415017080243" y="173.9876541079716"/>
      <point x="176.06378803662398" y="126.5135317446755" type="curve" smooth="yes"/>
      <point x="162.25055643767374" y="-51.18475999955702"/>
      <point x="2.0314375794702193" y="-48.159271017069585"/>
      <point x="2.053921855469568" y="134.02737198600698" type="curve" smooth="yes"/>
      <point x="2.058542658132716" y="171.46902788823797"/>
      <point x="6.308566855903827" y="231.29595967508482"/>
      <point x="6.312235981588671" y="261.0263228541405" type="curve" smooth="yes"/>
      <point x="6.329663988796236" y="402.2427946443198"/>
      <point x="52.19442165659378" y="525.7981613473681"/>
      <point x="249.3628820562102" y="500.6497065886697" type="curve" smooth="yes"/>
      <point x="316.3204296854333" y="492.10940123813805"/>
      <point x="304.9333558847246" y="402.8326710658406"/>
    </contour>
  </outline>
</glyph>
<glyph name="t" format="2">
  <advance width="238"/>
  <unicode hex="0074"/>
  <outline>
    <contour>
      <point x="59.675139138251694" y="21.74461355768017" type="curve" smooth="yes"/>
      <point x="42.02934121417903" y="61.461016728289124"/>
      <point x="34.59262210486303" y="95.81407494137862"/>
      <point x="34.60116384654103" y="165.02649884922835" type="curve" smooth="yes"/>
      <point x="34.612162747586495" y="254.14890858440086"/>
      <point x="34.61989620111889" y="316.81189750622366"/>
      <point x="34.63794104400907" y="463.02649431042886" type="curve" smooth="yes"/>
      <point x="34.64467804667542" y="517.6153945589565"/>
      <point x="37.073205872986826" y="556.8695476073661"/>
      <point x="44.646756550068346" y="596.4713914032508" type="curve" smooth="yes"/>
      <point x="57.32583884264382" y="662.769889668431"/>
      <point x="145.72383652955074" y="645.8644466116637"/>
      <point x="133.04475423697525" y="579.5659483464834" type="curve" smooth="yes"/>
      <point x="126.47487575745126" y="545.2122729836992"/>
      <point x="124.64378455122139" y="510.3699842075521"/>
      <point x="124.63794035861986" y="463.0153871030553" type="curve" smooth="yes"/>
      <point x="124.62583147673489" y="364.89897271570965"/>
      <point x="124.61755389344358" y="297.82698373900786"/>
      <point x="124.60116316115182" y="165.01539164185488" type="curve" smooth="yes"/>
      <point x="124.59467647140481" y="112.45473862138958"/>
      <point x="128.52233356553663" y="88.44786899742954"/>
      <point x="141.92274074086228" y="58.28680876566199" type="curve" smooth="yes"/>
      <point x="169.3293871468486" y="-3.3988924362959665"/>
      <point x="87.08178554423802" y="-39.941087644277786"/>
    </contour>
    <contour>
      <point x="193.48089785356206" y="408.01308687745666" type="curve" smooth="yes"/>
      <point x="179.3519289747825" y="408.01308687745666"/>
      <point x="172.2815980053047" y="408.0116343483697"/>
      <point x="167.33645874436164" y="408.00960002668745" type="curve" smooth="yes"/>
      <point x="157.43038569832166" y="408.0055248858028"/>
      <point x="133.40183368118005" y="408.00505178484076"/>
      <point x="88.82450626300931" y="408.00959645283194" type="curve" smooth="yes"/>
      <point x="63.838750586515424" y="408.0121437559259"/>
      <point x="54.59632596474697" y="408.01308687745666"/>
      <point x="36.50319243014848" y="408.01308687745666" type="curve" smooth="yes"/>
      <point x="-30.99680756985152" y="408.01308687745666"/>
      <point x="-30.996807569851505" y="498.01308687745666"/>
      <point x="36.503192430148495" y="498.01308687745666" type="curve" smooth="yes"/>
      <point x="51.35487582137284" y="498.01308687745666"/>
      <point x="68.32421437071265" y="498.01168692966434"/>
      <point x="88.83368178210259" y="498.00959598510894" type="curve" smooth="yes"/>
      <point x="135.68623275097872" y="498.00481935759376"/>
      <point x="156.88775643001355" y="498.0053092754741"/>
      <point x="167.29943472416383" y="498.00959241125344" type="curve" smooth="yes"/>
      <point x="172.25247128875228" y="498.01162998171293"/>
      <point x="179.3293652507811" y="498.01308687745666"/>
      <point x="193.48089785356206" y="498.01308687745666" type="curve" smooth="yes"/>
      <point x="260.98089785356206" y="498.01308687745666"/>
      <point x="260.98089785356206" y="408.01308687745666"/>
    </contour>
  </outline>
</glyph>
<glyph name="u" format="2">
  <advance width="402"/>
  <unicode hex="0075"/>
  <outline>
    <contour>
      <point x="45.655797637080795" y="448.7445968622187" type="curve" smooth="yes"/>
      <point x="28.92624868526485" y="369.30055371708926"/>
      <point x="32.45825122460844" y="286.4635610287333"/>
      <point x="32.44844625453443" y="207.01539100215822" type="curve" smooth="yes"/>
      <point x="32.43933094450956" y="133.1554306722833"/>
      <point x="52.566560771590176" y="79.02094724078572"/>
      <point x="97.73575394165273" y="79.02094724078572" type="curve" smooth="yes"/>
      <point x="155.14854398563728" y="79.02094724078572"/>
      <point x="194.17167139161091" y="152.01099882089218"/>
      <point x="194.18055907037802" y="224.02649795060705" type="curve" smooth="yes"/>
      <point x="194.18449445699062" y="255.91433262649443"/>
      <point x="194.1932334688636" y="326.7252066932092"/>
      <point x="194.1989476691121" y="373.0264956812073" type="curve" smooth="yes"/>
      <point x="194.2207809463384" y="549.9381953832608"/>
      <point x="369.0735927109528" y="549.9061442249696"/>
      <point x="369.0517594337263" y="372.994444522916" type="curve" smooth="yes"/>
      <point x="369.0462095295291" y="328.0244212620493"/>
      <point x="369.03207562640455" y="213.49957007923746"/>
      <point x="369.02460848257545" y="152.9944478737076" type="curve" smooth="yes"/>
      <point x="369.0203267151364" y="118.29994243967656"/>
      <point x="368.9044804794168" y="75.04157606857925"/>
      <point x="375.1910789092324" y="43.903928798658214" type="curve" smooth="yes"/>
      <point x="388.5495851891286" y="-22.261018945369912"/>
      <point x="300.3296548637578" y="-40.07236065189814"/>
      <point x="286.9711485838616" y="26.09258709212999" type="curve" smooth="yes"/>
      <point x="279.1553715673165" y="64.8042863677397"/>
      <point x="279.01928588544325" y="109.87181253349857"/>
      <point x="279.0246091679646" y="153.00555508108135" type="curve" smooth="yes"/>
      <point x="279.03573682108026" y="243.17122311034134"/>
      <point x="279.0434895661239" y="305.9905281950289"/>
      <point x="279.0517601191155" y="373.0055517302897" type="curve" smooth="yes"/>
      <point x="279.0528398278275" y="381.7542659733753"/>
      <point x="284.2000266924349" y="381.76410271691924"/>
      <point x="284.1989469837229" y="373.0153884738337" type="curve" smooth="yes"/>
      <point x="284.19511250445925" y="341.9451905845075"/>
      <point x="284.1864229589281" y="271.53513470460007"/>
      <point x="284.18055838498884" y="224.01539074323347" type="curve" smooth="yes"/>
      <point x="284.1643927962728" y="93.02810254129774"/>
      <point x="202.16251994132918" y="-10.97905275921429"/>
      <point x="97.7357539416527" y="-10.979052759214284" type="curve" smooth="yes"/>
      <point x="9.285540350212015" y="-10.979052759214277"/>
      <point x="-57.56940263989101" y="62.39408818537633"/>
      <point x="-57.55155306007636" y="207.02649820953187" type="curve" smooth="yes"/>
      <point x="-57.54063896323475" y="295.4617524748768"/>
      <point x="-61.03465608969419" y="378.8596428307134"/>
      <point x="-42.41268009196516" y="467.29030338660164" type="curve" smooth="yes"/>
      <point x="-28.50340019867802" y="533.3416616833861"/>
      <point x="59.56507753036793" y="514.7959551590031"/>
    </contour>
  </outline>
</glyph>
<glyph name="v" format="2">
  <advance width="345"/>
  <unicode hex="0076"/>
  <outline>
    <contour>
      <point x="96.06965416579149" y="444.16800922425625" type="curve" smooth="yes"/>
      <point x="88.30980608619927" y="420.1749552498411"/>
      <point x="97.66164785242603" y="389.13390107944804"/>
      <point x="104.36314548085515" y="365.11399748592527" type="curve" smooth="yes"/>
      <point x="126.46439107253097" y="285.8974077259338"/>
      <point x="146.18811970127746" y="207.40475314616467"/>
      <point x="169.18783600065385" y="129.80924180964675" type="curve" smooth="yes"/>
      <point x="178.86672511340072" y="97.154997726931"/>
      <point x="177.87796162602152" y="97.6127840787188"/>
      <point x="186.63576404072523" y="129.07839114999115" type="curve" smooth="yes"/>
      <point x="206.85575479814315" y="201.72610047596032"/>
      <point x="192.29086287396376" y="279.51473279599617"/>
      <point x="215.59749843609467" y="364.87393615823584" type="curve" smooth="yes"/>
      <point x="226.92647409195004" y="406.36565358420694"/>
      <point x="238.8033835241209" y="446.53834459193644"/>
      <point x="275.5975619448313" y="487.91774640876065" type="curve" smooth="yes"/>
      <point x="320.45062436522176" y="538.360315648566"/>
      <point x="387.7073833516289" y="478.5562324213788"/>
      <point x="342.8543209312384" y="428.11366318157343" type="curve" smooth="yes"/>
      <point x="317.6210588119774" y="399.7358779666592"/>
      <point x="310.1886597477241" y="369.6227592996394"/>
      <point x="302.4193053406687" y="341.16794860603994" type="curve" smooth="yes"/>
      <point x="282.6016836919579" y="268.58705669829504"/>
      <point x="297.1198756919899" y="190.38383190783003"/>
      <point x="273.34003147019587" y="104.94604751082437" type="curve" smooth="yes"/>
      <point x="231.8348971903883" y="-44.176321874463355"/>
      <point x="128.76893179778196" y="-50.52292908518453"/>
      <point x="82.89856691840751" y="104.23265014360011" type="curve" smooth="yes"/>
      <point x="59.63059838669777" y="182.73317999704784"/>
      <point x="39.52087861363992" y="262.62251584790636"/>
      <point x="17.673860831441587" y="340.9278872783505" type="curve" smooth="yes"/>
      <point x="5.096580013400126" y="386.00812000669293"/>
      <point x="-4.126659610993741" y="426.83355864256714"/>
      <point x="10.43691913121777" y="471.8634003660778" type="curve" smooth="yes"/>
      <point x="31.20846248758382" y="536.0879516420082"/>
      <point x="116.84119752215754" y="508.3925605001866"/>
    </contour>
  </outline>
</glyph>
<glyph name="w" format="2">
  <advance width="513"/>
  <unicode hex="0077"/>
  <anchor x="256.0" y="498" name="above"/>
  <anchor x="256.0" y="0" name="below"/>
  <outline>
    <contour>
      <point x="8.0" y="469.0" type="curve" smooth="yes"/>
      <point x="19.0" y="426.0"/>
      <point x="30.0" y="383.0"/>
      <point x="40.0" y="342.0" type="curve" smooth="yes"/>
      <point x="52.0" y="293.0"/>
      <point x="64.0" y="241.0"/>
      <point x="78.0" y="184.0" type="curve" smooth="yes"/>
      <point x="85.0" y="158.0"/>
      <point x="87.0" y="148.0"/>
      <point x="92.0" y="129.0" type="curve" smooth="yes"/>
      <point x="108.0" y="68.0"/>
      <point x="124.0" y="69.0"/>
      <point x="138.0" y="130.0" type="curve" smooth="yes"/>
      <point x="142.0" y="146.0"/>
      <point x="144.0" y="158.0"/>
      <point x="149.0" y="180.0" type="curve" smooth="yes"/>
      <point x="160.0" y="231.0"/>
      <point x="165.0" y="252.0"/>
      <point x="175.0" y="299.0" type="curve" smooth="yes"/>
      <point x="180.0" y="321.0"/>
      <point x="160.0" y="310.0"/>
      <point x="148.0" y="392.0" type="curve" smooth="yes"/>
      <point x="127.0" y="534.0"/>
      <point x="286.0" y="537.0"/>
      <point x="277.0" y="397.0" type="curve" smooth="yes"/>
      <point x="274" y="343"/>
      <point x="254.0" y="331.0"/>
      <point x="259.0" y="309.0" type="curve" smooth="yes"/>
      <point x="271.0" y="257.0"/>
      <point x="279.0" y="232.0"/>
      <point x="286.0" y="181.0" type="curve" smooth="yes"/>
      <point x="290" y="153"/>
      <point x="289.0" y="141.0"/>
      <point x="292.0" y="121.0" type="curve" smooth="yes"/>
      <point x="300.0" y="72.0"/>
      <point x="323.0" y="72.0"/>
      <point x="336.0" y="125.0" type="curve" smooth="yes"/>
      <point x="342.0" y="148.0"/>
      <point x="344.0" y="158.0"/>
      <point x="351.0" y="185.0" type="curve" smooth="yes"/>
      <point x="363.0" y="236.0"/>
      <point x="359" y="266"/>
      <point x="354.0" y="326.0" type="curve" smooth="yes"/>
      <point x="351.0" y="362.0"/>
      <point x="354.0" y="421.0"/>
      <point x="369.0" y="466.0" type="curve" smooth="yes"/>
      <point x="392" y="535"/>
      <point x="475" y="509"/>
      <point x="458.0" y="451.0" type="curve" smooth="yes"/>
      <point x="446.0" y="411.0"/>
      <point x="440" y="370"/>
      <point x="444.0" y="335.0" type="curve" smooth="yes"/>
      <point x="451.0" y="278.0"/>
      <point x="454.0" y="232.0"/>
      <point x="440.0" y="173.0" type="curve" smooth="yes"/>
      <point x="433.0" y="142.0"/>
      <point x="429.0" y="130.0"/>
      <point x="418.0" y="85.0" type="curve" smooth="yes"/>
      <point x="385.0" y="-47.0"/>
      <point x="229.0" y="-49.0"/>
      <point x="208.0" y="85.0" type="curve" smooth="yes"/>
      <point x="202.0" y="125.0"/>
      <point x="203.0" y="141.0"/>
      <point x="198.0" y="165.0" type="curve" smooth="yes"/>
      <point x="189.0" y="209.0"/>
      <point x="184.0" y="230.0"/>
      <point x="172.0" y="286.0" type="curve" smooth="yes"/>
      <point x="166.0" y="310.0"/>
      <point x="157.0" y="335.0"/>
      <point x="148.0" y="392.0" type="curve" smooth="yes"/>
      <point x="127.0" y="534.0"/>
      <point x="286.0" y="537.0"/>
      <point x="277.0" y="397.0" type="curve" smooth="yes"/>
      <point x="273.0" y="331.0"/>
      <point x="270.0" y="321.0"/>
      <point x="265.0" y="295.0" type="curve" smooth="yes"/>
      <point x="254.0" y="240.0"/>
      <point x="249.0" y="220.0"/>
      <point x="238.0" y="169.0" type="curve" smooth="yes"/>
      <point x="233.0" y="147.0"/>
      <point x="229.0" y="131.0"/>
      <point x="220.0" y="91.0" type="curve" smooth="yes"/>
      <point x="190.0" y="-40.0"/>
      <point x="45.0" y="-54.0"/>
      <point x="12.0" y="78.0" type="curve" smooth="yes"/>
      <point x="0.0" y="125.0"/>
      <point x="-3.0" y="136.0"/>
      <point x="-10.0" y="162.0" type="curve" smooth="yes"/>
      <point x="-24.0" y="218.0"/>
      <point x="-36.0" y="270.0"/>
      <point x="-48.0" y="320.0" type="curve" smooth="yes"/>
      <point x="-58.0" y="362.0"/>
      <point x="-68.0" y="404.0"/>
      <point x="-79.0" y="447.0" type="curve" smooth="yes"/>
      <point x="-95.0" y="512.0"/>
      <point x="-8.0" y="534.0"/>
    </contour>
  </outline>
</glyph>
